<svg width="24" height="24" viewBox="0 0 24 24" fill="none" xmlns="http://www.w3.org/2000/svg">
<path d="M12.0002 9C11.0002 9 10.1002 9.4 9.3002 10.1C8.5002 10.8 8.2002 11.8 8.2002 12.8C8.2002 13.8 8.6002 14.7 9.3002 15.5C10.0002 16.3 11.0002 16.6 12.0002 16.6C13.0002 16.6 13.9002 16.2 14.7002 15.5C15.5002 14.8 15.8002 13.8 15.8002 12.8C15.8002 11.8 15.4002 10.9 14.7002 10.1C14.0002 9.3 13.0002 9 12.0002 9Z" fill="url(#paint0_linear_6320_11003)"/>
<path d="M23.1 6.9C22.6 6.3 21.8 6 21 6H19.2C18.4 6 17.6 5.7 17.1 5.1L15.9 3.9C15.3 3.3 14.6 3 13.8 3H10.3C9.4 3 8.7 3.3 8.1 3.9L6.9 5.1C6.3 5.7 5.6 6 4.8 6H3C2.2 6 1.4 6.3 0.9 6.9C0.3 7.4 0 8.2 0 9V18C0 18.8 0.3 19.6 0.9 20.1C1.4 20.7 2.2 21 3 21H21C21.8 21 22.6 20.7 23.1 20.1C23.7 19.5 24 18.8 24 18V9C24 8.2 23.7 7.4 23.1 6.9ZM4.3 10.3C4.2 10.4 4 10.5 3.8 10.5C3.6 10.5 3.4 10.4 3.3 10.3C3.1 10.1 3 9.9 3 9.8C3 9.7 3.1 9.4 3.2 9.3C3.3 9.2 3.6 9 3.8 9C4 9 4.2 9.1 4.3 9.2C4.4 9.3 4.5 9.5 4.5 9.7C4.5 9.9 4.4 10.1 4.3 10.3ZM15.7 16.5C14.7 17.5 13.4 18 12 18C10.6 18 9.3 17.4 8.3 16.5C7.3 15.5 6.8 14.2 6.8 12.8C6.8 11.4 7.3 10 8.3 9C9.3 8 10.6 7.5 12 7.5C13.4 7.5 14.7 8.1 15.7 9C16.7 10 17.2 11.3 17.2 12.7C17.2 14.1 16.7 15.5 15.7 16.5Z" fill="url(#paint1_linear_6320_11003)"/>
<defs>
<linearGradient id="paint0_linear_6320_11003" x1="15.8774" y1="9.16944" x2="9.17263" y2="17.4986" gradientUnits="userSpaceOnUse">
<stop stop-color="#4839C3"/>
<stop offset="1" stop-color="#3CE682"/>
</linearGradient>
<linearGradient id="paint1_linear_6320_11003" x1="22" y1="3" x2="0.500001" y2="21" gradientUnits="userSpaceOnUse">
<stop stop-color="#465BB7"/>
<stop offset="1" stop-color="#3FC190"/>
</linearGradient>
</defs>
</svg>
