<svg width="18" height="20" viewBox="0 0 18 20" fill="none" xmlns="http://www.w3.org/2000/svg">
<path d="M9.00018 9.34118C7.89407 9.34118 6.83326 8.90178 6.05113 8.11965C5.26899 7.33751 4.82959 6.2767 4.82959 5.17059C4.82959 4.06448 5.26899 3.00368 6.05113 2.22154C6.83326 1.4394 7.89407 1 9.00018 1C10.1063 1 11.1671 1.4394 11.9492 2.22154C12.7314 3.00368 13.1708 4.06448 13.1708 5.17059C13.1708 6.2767 12.7314 7.33751 11.9492 8.11965C11.1671 8.90178 10.1063 9.34118 9.00018 9.34118Z" stroke="#7A769D" stroke-width="1.5" stroke-linecap="round"/>
<path d="M1.54736 19V17.7579C1.54736 16.4402 2.07081 15.1765 3.00256 14.2448C3.93431 13.313 5.19803 12.7896 6.51572 12.7896H11.4841C12.8018 12.7896 14.0655 13.313 14.9972 14.2448C15.929 15.1765 16.4524 16.4402 16.4524 17.7579V19" stroke="#7A769D" stroke-width="1.5" stroke-linecap="round"/>
</svg>
