<svg width="24" height="24" viewBox="0 0 24 24" fill="none" xmlns="http://www.w3.org/2000/svg">
<path fill-rule="evenodd" clip-rule="evenodd" d="M7.99609 7.08656C7.99609 6.27831 8.23201 5.48822 8.67402 4.81619C9.11603 4.14416 9.74427 3.62037 10.4793 3.31107C11.2143 3.00177 12.0231 2.92084 12.8035 3.07852C13.5838 3.2362 14.3005 3.62541 14.8631 4.19692C15.4257 4.76844 15.8088 5.49659 15.964 6.28931C16.1192 7.08202 16.0395 7.90369 15.7351 8.65042C15.4306 9.39714 14.915 10.0354 14.2535 10.4844C13.592 10.9334 12.8143 11.1731 12.0187 11.1731C10.9518 11.1731 9.92867 10.7426 9.17428 9.97619C8.4199 9.20981 7.99609 8.17038 7.99609 7.08656Z" fill="url(#paint0_linear_6320_9956)"/>
<path fill-rule="evenodd" clip-rule="evenodd" d="M8.76651 13.4879H15.2498C15.4404 13.4835 15.631 13.4896 15.821 13.5061C16.3488 13.5587 16.856 13.7411 17.2989 14.0374C17.7417 14.3338 18.1069 14.7352 18.3629 15.2071C18.4502 15.3781 18.5289 15.5537 18.5985 15.733V15.7656L18.6306 15.8345C18.7888 16.1781 18.9213 16.5333 19.0269 16.8972C19.1338 17.339 19.15 17.7984 19.0744 18.2468C18.9988 18.6952 18.8331 19.123 18.5876 19.5035C18.342 19.8839 18.022 20.2089 17.6473 20.4581C17.2727 20.7073 16.8515 20.8755 16.41 20.952C16.0391 20.9937 15.6656 21.0083 15.2926 20.9955H8.72367C8.35064 21.0083 7.9772 20.9937 7.60623 20.952C7.1632 20.8777 6.74006 20.7111 6.36337 20.4628C5.98667 20.2146 5.66453 19.8899 5.41715 19.5092C5.16978 19.1285 5.0025 18.6999 4.92581 18.2505C4.84913 17.801 4.86469 17.3403 4.97151 16.8972C5.07871 16.5334 5.21236 16.1782 5.37136 15.8345L5.40349 15.7656V15.733C5.49988 15.5045 5.56772 15.3485 5.64269 15.2071C5.89916 14.7334 6.2659 14.3307 6.71085 14.0342C7.15581 13.7377 7.66546 13.5564 8.19529 13.5061C8.38523 13.4894 8.57592 13.4834 8.76651 13.4879Z" fill="url(#paint1_linear_6320_9956)"/>
<defs>
<linearGradient id="paint0_linear_6320_9956" x1="15.9994" y1="2.5" x2="4.99939" y2="19.5" gradientUnits="userSpaceOnUse">
<stop stop-color="#4839C3"/>
<stop offset="1" stop-color="#3CE682"/>
</linearGradient>
<linearGradient id="paint1_linear_6320_9956" x1="17.9995" y1="7.49999" x2="5.99951" y2="20" gradientUnits="userSpaceOnUse">
<stop stop-color="#4839C3"/>
<stop offset="1" stop-color="#3CE682"/>
</linearGradient>
</defs>
</svg>
