<svg width="24" height="24" viewBox="0 0 24 24" fill="none" xmlns="http://www.w3.org/2000/svg">
<path d="M20.7741 15.0281L16.3453 13.0434C16.1447 12.9575 15.9257 12.9229 15.7083 12.9429C15.4909 12.9628 15.282 13.0367 15.1003 13.1578C15.0819 13.1696 15.0643 13.1828 15.0478 13.1972L12.7331 15.1659C12.7091 15.179 12.6824 15.1864 12.655 15.1873C12.6277 15.1883 12.6005 15.1829 12.5756 15.1716C11.0878 14.4534 9.54656 12.9216 8.82563 11.4544C8.81362 11.4299 8.80738 11.4029 8.80738 11.3756C8.80738 11.3483 8.81362 11.3214 8.82563 11.2969L10.8009 8.95313C10.8151 8.93578 10.8283 8.91763 10.8403 8.89875C10.9597 8.71641 11.0319 8.5072 11.0502 8.29C11.0685 8.07281 11.0325 7.85446 10.9453 7.65469L8.97469 3.23344C8.86278 2.97245 8.66924 2.75479 8.42312 2.61314C8.177 2.47148 7.89158 2.41347 7.60969 2.44781C6.38459 2.60887 5.26004 3.2105 4.44621 4.14028C3.63237 5.07006 3.18493 6.26436 3.1875 7.5C3.1875 14.8406 9.15938 20.8125 16.5 20.8125C17.7356 20.8149 18.9298 20.3674 19.8595 19.5536C20.7892 18.7398 21.3909 17.6153 21.5522 16.3903C21.5865 16.1097 21.5292 15.8256 21.389 15.5802C21.2488 15.3347 21.0331 15.1411 20.7741 15.0281ZM16.5 19.6875C9.78 19.6875 4.3125 14.22 4.3125 7.5C4.30937 6.53806 4.65657 5.60788 5.28923 4.88326C5.92189 4.15864 6.79674 3.68914 7.75031 3.5625H7.77188C7.80966 3.56321 7.84634 3.57531 7.87712 3.59722C7.9079 3.61914 7.93135 3.64984 7.94438 3.68531L9.9225 8.10188C9.93378 8.12643 9.93962 8.15313 9.93962 8.18016C9.93962 8.20718 9.93378 8.23388 9.9225 8.25844L7.94344 10.6078C7.92867 10.6246 7.9152 10.6424 7.90313 10.6613C7.77929 10.8503 7.70636 11.0681 7.69142 11.2936C7.67647 11.5191 7.72001 11.7447 7.81781 11.9484C8.64938 13.6509 10.365 15.3534 12.0862 16.185C12.2912 16.2823 12.5178 16.3248 12.7441 16.3083C12.9703 16.2919 13.1885 16.2171 13.3772 16.0912C13.395 16.0791 13.4128 16.0659 13.4297 16.0519L15.7434 14.0831C15.7663 14.0708 15.7915 14.0637 15.8174 14.062C15.8433 14.0604 15.8692 14.0644 15.8934 14.0737L20.3231 16.0584C20.3593 16.0738 20.3897 16.1002 20.4101 16.1339C20.4304 16.1675 20.4397 16.2067 20.4366 16.2459C20.3106 17.1999 19.8415 18.0754 19.1171 18.7088C18.3926 19.3422 17.4623 19.6901 16.5 19.6875Z" fill="#4839C3"/>
</svg>
