<svg width="24" height="24" viewBox="0 0 24 24" fill="none" xmlns="http://www.w3.org/2000/svg">
<path d="M8.16334 4.89732L8.65259 4.40925C8.65263 4.40921 8.65267 4.40917 8.65271 4.40913C9.07302 3.98875 9.64259 3.75181 10.237 3.75001M8.16334 4.89732L10.237 3.75001M8.16334 4.89732L8.65133 4.40933L8.65141 4.40925C9.07205 3.98848 9.64218 3.7515 10.237 3.75001M8.16334 4.89732L10.237 3.75001M16.5893 5.65117L16.5894 5.65125C16.9377 5.99964 17.3512 6.276 17.8063 6.46453C18.2614 6.65304 18.7492 6.75005 19.2418 6.75C18.2474 6.74979 17.2937 6.35456 16.5906 5.65125L15.3487 4.40933L15.3486 4.40925C14.9268 3.9873 14.3546 3.75017 13.758 3.75L16.5893 5.65117ZM16.5893 5.65117L15.3474 4.40925C15.3474 4.40922 15.3474 4.4092 15.3473 4.40917M16.5893 5.65117L15.3473 4.40917M15.3473 4.40917C14.9255 3.98723 14.3533 3.75013 13.7567 3.75M15.3473 4.40917L13.7567 3.75M13.7567 3.75H13.7578H13.7567Z" fill="#7A769D" stroke="#7A769D" stroke-width="1.5"/>
<mask id="path-2-inside-1_6320_10742" fill="white">
<path d="M12 16.5C11.0054 16.5 10.0516 16.1049 9.34835 15.4017C8.64509 14.6984 8.25 13.7446 8.25 12.75C8.25 11.7554 8.64509 10.8016 9.34835 10.0983C10.0516 9.39509 11.0054 9 12 9C12.9946 9 13.9484 9.39509 14.6517 10.0983C15.3549 10.8016 15.75 11.7554 15.75 12.75C15.75 13.7446 15.3549 14.6984 14.6517 15.4017C13.9484 16.1049 12.9946 16.5 12 16.5ZM12 18C13.3924 18 14.7277 17.4469 15.7123 16.4623C16.6969 15.4777 17.25 14.1424 17.25 12.75C17.25 11.3576 16.6969 10.0223 15.7123 9.03769C14.7277 8.05312 13.3924 7.5 12 7.5C10.6076 7.5 9.27226 8.05312 8.28769 9.03769C7.30312 10.0223 6.75 11.3576 6.75 12.75C6.75 14.1424 7.30312 15.4777 8.28769 16.4623C9.27226 17.4469 10.6076 18 12 18V18ZM4.5 9.75C4.5 9.94891 4.42098 10.1397 4.28033 10.2803C4.13968 10.421 3.94891 10.5 3.75 10.5C3.55109 10.5 3.36032 10.421 3.21967 10.2803C3.07902 10.1397 3 9.94891 3 9.75C3 9.55109 3.07902 9.36032 3.21967 9.21967C3.36032 9.07902 3.55109 9 3.75 9C3.94891 9 4.13968 9.07902 4.28033 9.21967C4.42098 9.36032 4.5 9.55109 4.5 9.75V9.75Z"/>
</mask>
<path d="M12 16.5C11.0054 16.5 10.0516 16.1049 9.34835 15.4017C8.64509 14.6984 8.25 13.7446 8.25 12.75C8.25 11.7554 8.64509 10.8016 9.34835 10.0983C10.0516 9.39509 11.0054 9 12 9C12.9946 9 13.9484 9.39509 14.6517 10.0983C15.3549 10.8016 15.75 11.7554 15.75 12.75C15.75 13.7446 15.3549 14.6984 14.6517 15.4017C13.9484 16.1049 12.9946 16.5 12 16.5ZM12 18C13.3924 18 14.7277 17.4469 15.7123 16.4623C16.6969 15.4777 17.25 14.1424 17.25 12.75C17.25 11.3576 16.6969 10.0223 15.7123 9.03769C14.7277 8.05312 13.3924 7.5 12 7.5C10.6076 7.5 9.27226 8.05312 8.28769 9.03769C7.30312 10.0223 6.75 11.3576 6.75 12.75C6.75 14.1424 7.30312 15.4777 8.28769 16.4623C9.27226 17.4469 10.6076 18 12 18V18ZM4.5 9.75C4.5 9.94891 4.42098 10.1397 4.28033 10.2803C4.13968 10.421 3.94891 10.5 3.75 10.5C3.55109 10.5 3.36032 10.421 3.21967 10.2803C3.07902 10.1397 3 9.94891 3 9.75C3 9.55109 3.07902 9.36032 3.21967 9.21967C3.36032 9.07902 3.55109 9 3.75 9C3.94891 9 4.13968 9.07902 4.28033 9.21967C4.42098 9.36032 4.5 9.55109 4.5 9.75V9.75Z" fill="#7A769D"/>
<path d="M8.25 12.75H6.75H8.25ZM12 9V7.5V9ZM6.75 12.75H5.25H6.75ZM12 15C11.4033 15 10.831 14.7629 10.409 14.341L8.28769 16.4623C9.27226 17.4469 10.6076 18 12 18V15ZM10.409 14.341C9.98705 13.919 9.75 13.3467 9.75 12.75H6.75C6.75 14.1424 7.30312 15.4777 8.28769 16.4623L10.409 14.341ZM9.75 12.75C9.75 12.1533 9.98705 11.581 10.409 11.159L8.28769 9.03769C7.30312 10.0223 6.75 11.3576 6.75 12.75H9.75ZM10.409 11.159C10.831 10.7371 11.4033 10.5 12 10.5V7.5C10.6076 7.5 9.27226 8.05312 8.28769 9.03769L10.409 11.159ZM12 10.5C12.5967 10.5 13.169 10.7371 13.591 11.159L15.7123 9.03769C14.7277 8.05312 13.3924 7.5 12 7.5V10.5ZM13.591 11.159C14.0129 11.581 14.25 12.1533 14.25 12.75H17.25C17.25 11.3576 16.6969 10.0223 15.7123 9.03769L13.591 11.159ZM14.25 12.75C14.25 13.3467 14.0129 13.919 13.591 14.341L15.7123 16.4623C16.6969 15.4777 17.25 14.1424 17.25 12.75H14.25ZM13.591 14.341C13.169 14.7629 12.5967 15 12 15V18C13.3924 18 14.7277 17.4469 15.7123 16.4623L13.591 14.341ZM12 19.5C13.7902 19.5 15.5071 18.7888 16.773 17.523L14.6517 15.4016C13.9484 16.1049 12.9946 16.5 12 16.5V19.5ZM16.773 17.523C18.0388 16.2571 18.75 14.5402 18.75 12.75H15.75C15.75 13.7446 15.3549 14.6984 14.6517 15.4016L16.773 17.523ZM18.75 12.75C18.75 10.9598 18.0388 9.2429 16.773 7.97703L14.6517 10.0983C15.3549 10.8016 15.75 11.7554 15.75 12.75H18.75ZM16.773 7.97703C15.5071 6.71116 13.7902 6 12 6V9C12.9946 9 13.9484 9.39509 14.6517 10.0983L16.773 7.97703ZM12 6C10.2098 6 8.4929 6.71116 7.22703 7.97703L9.34835 10.0983C10.0516 9.39509 11.0054 9 12 9V6ZM7.22703 7.97703C5.96116 9.2429 5.25 10.9598 5.25 12.75H8.25C8.25 11.7554 8.64509 10.8016 9.34835 10.0983L7.22703 7.97703ZM5.25 12.75C5.25 14.5402 5.96116 16.2571 7.22703 17.523L9.34835 15.4016C8.64509 14.6984 8.25 13.7446 8.25 12.75H5.25ZM7.22703 17.523C8.4929 18.7888 10.2098 19.5 12 19.5V16.5C11.0054 16.5 10.0516 16.1049 9.34835 15.4016L7.22703 17.523ZM3 9.75C3 9.55109 3.07902 9.36032 3.21967 9.21967L5.34099 11.341C5.76295 10.919 6 10.3467 6 9.75H3ZM3.21967 9.21967C3.36032 9.07902 3.55109 9 3.75 9V12C4.34674 12 4.91903 11.7629 5.34099 11.341L3.21967 9.21967ZM3.75 9C3.94891 9 4.13968 9.07902 4.28033 9.21967L2.15901 11.341C2.58097 11.7629 3.15326 12 3.75 12V9ZM4.28033 9.21967C4.42098 9.36032 4.5 9.55109 4.5 9.75H1.5C1.5 10.3467 1.73705 10.919 2.15901 11.341L4.28033 9.21967ZM4.5 9.75C4.5 9.94891 4.42098 10.1397 4.28033 10.2803L2.15901 8.15901C1.73705 8.58097 1.5 9.15326 1.5 9.75H4.5ZM4.28033 10.2803C4.13968 10.421 3.94891 10.5 3.75 10.5V7.5C3.15326 7.5 2.58097 7.73705 2.15901 8.15901L4.28033 10.2803ZM3.75 10.5C3.55109 10.5 3.36032 10.421 3.21967 10.2803L5.34099 8.15901C4.91903 7.73705 4.34674 7.5 3.75 7.5V10.5ZM3.21967 10.2803C3.07902 10.1397 3 9.94891 3 9.75H6C6 9.15326 5.76295 8.58097 5.34099 8.15901L3.21967 10.2803Z" fill="#7A769D" mask="url(#path-2-inside-1_6320_10742)"/>
</svg>
