<svg width="24" height="18" viewBox="0 0 24 18" fill="none" xmlns="http://www.w3.org/2000/svg">
<path d="M16.5893 2.65117L16.5894 2.65125C16.9377 2.99964 17.3512 3.276 17.8063 3.46453C18.2614 3.65304 18.7492 3.75005 19.2418 3.75C18.2474 3.74979 17.2938 3.35459 16.5907 2.65133C16.5906 2.6513 16.5906 2.65128 16.5906 2.65125L15.3487 1.40933L15.3486 1.40925C14.9268 0.987302 14.3546 0.75017 13.758 0.75L16.5893 2.65117ZM16.5893 2.65117L15.3474 1.40925M16.5893 2.65117L15.3474 1.40925M15.3474 1.40925C14.9256 0.987264 14.3533 0.750127 13.7567 0.75M15.3474 1.40925L13.7567 0.75M13.7567 0.75H13.7578H13.7567ZM8.16337 1.89729L8.65133 1.40933L8.65141 1.40925C9.07205 0.98848 9.64218 0.751495 10.237 0.750007C9.64266 0.751808 9.07315 0.9887 8.65285 1.40899C8.65276 1.40908 8.65268 1.40916 8.65259 1.40925L8.16337 1.89729Z" fill="#7A769D" stroke="#7A769D" stroke-width="1.5"/>
<mask id="path-2-inside-1_6320_9155" fill="white">
<path d="M12 13.5C11.0054 13.5 10.0516 13.1049 9.34835 12.4017C8.64509 11.6984 8.25 10.7446 8.25 9.75C8.25 8.75544 8.64509 7.80161 9.34835 7.09835C10.0516 6.39509 11.0054 6 12 6C12.9946 6 13.9484 6.39509 14.6517 7.09835C15.3549 7.80161 15.75 8.75544 15.75 9.75C15.75 10.7446 15.3549 11.6984 14.6517 12.4017C13.9484 13.1049 12.9946 13.5 12 13.5ZM12 15C13.3924 15 14.7277 14.4469 15.7123 13.4623C16.6969 12.4777 17.25 11.1424 17.25 9.75C17.25 8.35761 16.6969 7.02226 15.7123 6.03769C14.7277 5.05312 13.3924 4.5 12 4.5C10.6076 4.5 9.27226 5.05312 8.28769 6.03769C7.30312 7.02226 6.75 8.35761 6.75 9.75C6.75 11.1424 7.30312 12.4777 8.28769 13.4623C9.27226 14.4469 10.6076 15 12 15ZM4.5 6.75C4.5 6.94891 4.42098 7.13968 4.28033 7.28033C4.13968 7.42098 3.94891 7.5 3.75 7.5C3.55109 7.5 3.36032 7.42098 3.21967 7.28033C3.07902 7.13968 3 6.94891 3 6.75C3 6.55109 3.07902 6.36032 3.21967 6.21967C3.36032 6.07902 3.55109 6 3.75 6C3.94891 6 4.13968 6.07902 4.28033 6.21967C4.42098 6.36032 4.5 6.55109 4.5 6.75Z"/>
</mask>
<path d="M12 13.5C11.0054 13.5 10.0516 13.1049 9.34835 12.4017C8.64509 11.6984 8.25 10.7446 8.25 9.75C8.25 8.75544 8.64509 7.80161 9.34835 7.09835C10.0516 6.39509 11.0054 6 12 6C12.9946 6 13.9484 6.39509 14.6517 7.09835C15.3549 7.80161 15.75 8.75544 15.75 9.75C15.75 10.7446 15.3549 11.6984 14.6517 12.4017C13.9484 13.1049 12.9946 13.5 12 13.5ZM12 15C13.3924 15 14.7277 14.4469 15.7123 13.4623C16.6969 12.4777 17.25 11.1424 17.25 9.75C17.25 8.35761 16.6969 7.02226 15.7123 6.03769C14.7277 5.05312 13.3924 4.5 12 4.5C10.6076 4.5 9.27226 5.05312 8.28769 6.03769C7.30312 7.02226 6.75 8.35761 6.75 9.75C6.75 11.1424 7.30312 12.4777 8.28769 13.4623C9.27226 14.4469 10.6076 15 12 15ZM4.5 6.75C4.5 6.94891 4.42098 7.13968 4.28033 7.28033C4.13968 7.42098 3.94891 7.5 3.75 7.5C3.55109 7.5 3.36032 7.42098 3.21967 7.28033C3.07902 7.13968 3 6.94891 3 6.75C3 6.55109 3.07902 6.36032 3.21967 6.21967C3.36032 6.07902 3.55109 6 3.75 6C3.94891 6 4.13968 6.07902 4.28033 6.21967C4.42098 6.36032 4.5 6.55109 4.5 6.75Z" fill="#7A769D"/>
<path d="M8.25 9.75H6.75H8.25ZM12 6V4.5V6ZM6.75 9.75H5.25H6.75ZM12 12C11.4033 12 10.831 11.7629 10.409 11.341L8.28769 13.4623C9.27226 14.4469 10.6076 15 12 15V12ZM10.409 11.341C9.98705 10.919 9.75 10.3467 9.75 9.75H6.75C6.75 11.1424 7.30312 12.4777 8.28769 13.4623L10.409 11.341ZM9.75 9.75C9.75 9.15326 9.98705 8.58097 10.409 8.15901L8.28769 6.03769C7.30312 7.02226 6.75 8.35761 6.75 9.75H9.75ZM10.409 8.15901C10.831 7.73705 11.4033 7.5 12 7.5V4.5C10.6076 4.5 9.27226 5.05312 8.28769 6.03769L10.409 8.15901ZM12 7.5C12.5967 7.5 13.169 7.73705 13.591 8.15901L15.7123 6.03769C14.7277 5.05312 13.3924 4.5 12 4.5V7.5ZM13.591 8.15901C14.0129 8.58097 14.25 9.15326 14.25 9.75H17.25C17.25 8.35761 16.6969 7.02226 15.7123 6.03769L13.591 8.15901ZM14.25 9.75C14.25 10.3467 14.0129 10.919 13.591 11.341L15.7123 13.4623C16.6969 12.4777 17.25 11.1424 17.25 9.75H14.25ZM13.591 11.341C13.169 11.7629 12.5967 12 12 12V15C13.3924 15 14.7277 14.4469 15.7123 13.4623L13.591 11.341ZM12 16.5C13.7902 16.5 15.5071 15.7888 16.773 14.523L14.6517 12.4016C13.9484 13.1049 12.9946 13.5 12 13.5V16.5ZM16.773 14.523C18.0388 13.2571 18.75 11.5402 18.75 9.75H15.75C15.75 10.7446 15.3549 11.6984 14.6517 12.4016L16.773 14.523ZM18.75 9.75C18.75 7.95979 18.0388 6.2429 16.773 4.97703L14.6517 7.09835C15.3549 7.80161 15.75 8.75544 15.75 9.75H18.75ZM16.773 4.97703C15.5071 3.71116 13.7902 3 12 3V6C12.9946 6 13.9484 6.39509 14.6517 7.09835L16.773 4.97703ZM12 3C10.2098 3 8.4929 3.71116 7.22703 4.97703L9.34835 7.09835C10.0516 6.39509 11.0054 6 12 6V3ZM7.22703 4.97703C5.96116 6.2429 5.25 7.95979 5.25 9.75H8.25C8.25 8.75544 8.64509 7.80161 9.34835 7.09835L7.22703 4.97703ZM5.25 9.75C5.25 11.5402 5.96116 13.2571 7.22703 14.523L9.34835 12.4016C8.64509 11.6984 8.25 10.7446 8.25 9.75H5.25ZM7.22703 14.523C8.4929 15.7888 10.2098 16.5 12 16.5V13.5C11.0054 13.5 10.0516 13.1049 9.34835 12.4016L7.22703 14.523ZM3 6.75C3 6.55109 3.07902 6.36032 3.21967 6.21967L5.34099 8.34099C5.76295 7.91903 6 7.34674 6 6.75H3ZM3.21967 6.21967C3.36032 6.07902 3.55109 6 3.75 6V9C4.34674 9 4.91903 8.76295 5.34099 8.34099L3.21967 6.21967ZM3.75 6C3.94891 6 4.13968 6.07902 4.28033 6.21967L2.15901 8.34099C2.58097 8.76295 3.15326 9 3.75 9V6ZM4.28033 6.21967C4.42098 6.36032 4.5 6.55109 4.5 6.75H1.5C1.5 7.34674 1.73705 7.91903 2.15901 8.34099L4.28033 6.21967ZM4.5 6.75C4.5 6.94891 4.42098 7.13968 4.28033 7.28033L2.15901 5.15901C1.73705 5.58097 1.5 6.15326 1.5 6.75H4.5ZM4.28033 7.28033C4.13968 7.42098 3.94891 7.5 3.75 7.5V4.5C3.15326 4.5 2.58097 4.73705 2.15901 5.15901L4.28033 7.28033ZM3.75 7.5C3.55109 7.5 3.36032 7.42098 3.21967 7.28033L5.34099 5.15901C4.91903 4.73705 4.34674 4.5 3.75 4.5V7.5ZM3.21967 7.28033C3.07902 7.13968 3 6.94891 3 6.75H6C6 6.15326 5.76295 5.58097 5.34099 5.15901L3.21967 7.28033Z" fill="#7A769D" mask="url(#path-2-inside-1_6320_9155)"/>
</svg>
