<svg width="100" height="100" viewBox="0 0 100 100" fill="none" xmlns="http://www.w3.org/2000/svg">
<path d="M0 40C0 21.1438 0 11.7157 5.85786 5.85786C11.7157 0 21.1438 0 40 0H60C78.8562 0 88.2843 0 94.1421 5.85786C100 11.7157 100 21.1438 100 40V60C100 78.8562 100 88.2843 94.1421 94.1421C88.2843 100 78.8562 100 60 100H40C21.1438 100 11.7157 100 5.85786 94.1421C0 88.2843 0 78.8562 0 60V40Z" fill="#FEE2E2"/>
<g clip-path="url(#clip0_924_12527)">
<mask id="path-2-inside-1_924_12527" fill="white">
<path d="M70.8332 35.6111C68.9721 31.7916 63.7638 28.6666 57.3749 30.4861C55.6059 30.9902 53.9565 31.8451 52.5248 33C51.0931 34.1549 49.9085 35.5861 49.0416 37.2083C47.6359 39.5026 46.5912 41.9994 45.9443 44.6111L53.2777 47.8611L46.8888 53.9305L51.736 59.625L53.8471 57.8194L50.7499 54.1667L58.2499 47.0417L49.4166 43.0555C50.1433 41.0229 51.1583 39.1051 52.4304 37.3611C53.8045 35.3639 55.8178 33.8943 58.1388 33.1944C62.7777 31.9583 66.9443 34.0278 68.3332 36.875C70.486 41.2917 69.5138 46.2083 65.361 51.8889C60.9435 57.5614 55.7759 62.6075 49.9999 66.8889C44.2212 62.5947 39.0534 57.5344 34.6388 51.8472C30.4721 46.1528 29.5138 41.2361 31.6666 36.8333C32.4146 35.5467 33.4989 34.4881 34.8032 33.7712C36.1074 33.0542 37.5822 32.706 39.0693 32.7639C40.0094 32.7689 40.9443 32.9044 41.8471 33.1666C43.6257 33.6712 45.2432 34.6283 46.5416 35.9444L46.7499 35.5278C47.1591 34.8385 47.6236 34.1835 48.1388 33.5694C46.585 32.1223 44.7093 31.0654 42.6666 30.4861C36.3888 28.6944 31.0277 31.7916 29.1666 35.6111C26.5555 40.9583 27.6388 46.9722 32.3888 53.4861C36.111 58.5833 41.4304 63.75 49.1527 69.75C49.3967 69.9403 49.6973 70.0437 50.0068 70.0437C50.3163 70.0437 50.617 69.9403 50.861 69.75C58.5693 63.7639 63.9027 58.6389 67.6249 53.4861C72.361 46.9722 73.4443 40.9583 70.8332 35.6111Z"/>
</mask>
<path d="M70.8332 35.6111C68.9721 31.7916 63.7638 28.6666 57.3749 30.4861C55.6059 30.9902 53.9565 31.8451 52.5248 33C51.0931 34.1549 49.9085 35.5861 49.0416 37.2083C47.6359 39.5026 46.5912 41.9994 45.9443 44.6111L53.2777 47.8611L46.8888 53.9305L51.736 59.625L53.8471 57.8194L50.7499 54.1667L58.2499 47.0417L49.4166 43.0555C50.1433 41.0229 51.1583 39.1051 52.4304 37.3611C53.8045 35.3639 55.8178 33.8943 58.1388 33.1944C62.7777 31.9583 66.9443 34.0278 68.3332 36.875C70.486 41.2917 69.5138 46.2083 65.361 51.8889C60.9435 57.5614 55.7759 62.6075 49.9999 66.8889C44.2212 62.5947 39.0534 57.5344 34.6388 51.8472C30.4721 46.1528 29.5138 41.2361 31.6666 36.8333C32.4146 35.5467 33.4989 34.4881 34.8032 33.7712C36.1074 33.0542 37.5822 32.706 39.0693 32.7639C40.0094 32.7689 40.9443 32.9044 41.8471 33.1666C43.6257 33.6712 45.2432 34.6283 46.5416 35.9444L46.7499 35.5278C47.1591 34.8385 47.6236 34.1835 48.1388 33.5694C46.585 32.1223 44.7093 31.0654 42.6666 30.4861C36.3888 28.6944 31.0277 31.7916 29.1666 35.6111C26.5555 40.9583 27.6388 46.9722 32.3888 53.4861C36.111 58.5833 41.4304 63.75 49.1527 69.75C49.3967 69.9403 49.6973 70.0437 50.0068 70.0437C50.3163 70.0437 50.617 69.9403 50.861 69.75C58.5693 63.7639 63.9027 58.6389 67.6249 53.4861C72.361 46.9722 73.4443 40.9583 70.8332 35.6111Z" fill="#7A769D"/>
<path d="M70.8332 35.6111L68.1364 36.9252L68.1375 36.9275L70.8332 35.6111ZM57.3749 30.4861L56.5532 27.6008L56.5527 27.6009L57.3749 30.4861ZM49.0416 37.2083L51.5996 38.7756L51.6458 38.7003L51.6874 38.6223L49.0416 37.2083ZM45.9443 44.6111L43.0323 43.8898L42.427 46.3337L44.7288 47.3538L45.9443 44.6111ZM53.2777 47.8611L55.3439 50.0361L58.6031 46.9398L54.4932 45.1184L53.2777 47.8611ZM46.8888 53.9305L44.8225 51.7555L42.7631 53.712L44.6043 55.8751L46.8888 53.9305ZM51.736 59.625L49.4516 61.5695L51.4007 63.8593L53.6859 61.9049L51.736 59.625ZM53.8471 57.8194L55.797 60.0993L58.0672 58.1577L56.1353 55.8793L53.8471 57.8194ZM50.7499 54.1667L48.6836 51.9917L46.6282 53.9444L48.4617 56.1068L50.7499 54.1667ZM58.2499 47.0417L60.3161 49.2166L63.5517 46.1428L59.4838 44.3072L58.2499 47.0417ZM49.4166 43.0555L46.5917 42.0455L45.6599 44.6516L48.1826 45.79L49.4166 43.0555ZM52.4304 37.3611L54.8542 39.129L54.8786 39.0956L54.902 39.0615L52.4304 37.3611ZM58.1388 33.1944L57.3663 30.2956L57.3193 30.3081L57.2727 30.3222L58.1388 33.1944ZM68.3332 36.875L71.0299 35.5605L71.0295 35.5597L68.3332 36.875ZM65.361 51.8889L67.7279 53.7321L67.7559 53.6962L67.7828 53.6594L65.361 51.8889ZM49.9999 66.8889L48.2105 69.2968L49.9976 70.6248L51.7863 69.299L49.9999 66.8889ZM34.6388 51.8472L32.2177 53.6187L32.2428 53.6531L32.269 53.6868L34.6388 51.8472ZM31.6666 36.8333L29.0731 35.3254L29.0189 35.4187L28.9715 35.5155L31.6666 36.8333ZM39.0693 32.7639L38.9527 35.7616L39.003 35.7636L39.0534 35.7638L39.0693 32.7639ZM41.8471 33.1666L41.0104 36.0476L41.0193 36.0502L41.0283 36.0528L41.8471 33.1666ZM46.5416 35.9444L44.4059 38.0513L47.35 41.0357L49.2248 37.2861L46.5416 35.9444ZM46.7499 35.5278L44.1702 33.9964L44.115 34.0894L44.0666 34.1861L46.7499 35.5278ZM48.1388 33.5694L50.4371 35.4976L52.2678 33.3155L50.1834 31.3741L48.1388 33.5694ZM42.6666 30.4861L41.8432 33.3709L41.848 33.3723L42.6666 30.4861ZM29.1666 35.6111L31.8623 36.9275L31.8634 36.9252L29.1666 35.6111ZM32.3888 53.4861L29.9648 55.2537L29.966 55.2553L32.3888 53.4861ZM49.1527 69.75L50.9977 67.3844L50.9933 67.381L49.1527 69.75ZM50.861 69.75L49.021 67.3806L49.016 67.3844L50.861 69.75ZM67.6249 53.4861L65.1984 51.7219L65.193 51.7294L67.6249 53.4861ZM73.5301 34.297C71.0233 29.1523 64.3215 25.3885 56.5532 27.6008L58.1966 33.3714C63.206 31.9448 66.921 34.4309 68.1364 36.9252L73.5301 34.297ZM56.5527 27.6009C54.3966 28.2153 52.3862 29.2574 50.6412 30.665L54.4084 35.335C55.5267 34.4328 56.8152 33.765 58.197 33.3712L56.5527 27.6009ZM50.6412 30.665C48.8963 32.0726 47.4524 33.817 46.3957 35.7943L51.6874 38.6223C52.3647 37.3551 53.29 36.2371 54.4084 35.335L50.6412 30.665ZM46.4835 35.641C44.9172 38.1975 43.7532 40.9796 43.0323 43.8898L48.8563 45.3324C49.4293 43.0191 50.3545 40.8077 51.5996 38.7756L46.4835 35.641ZM44.7288 47.3538L52.0621 50.6038L54.4932 45.1184L47.1599 41.8684L44.7288 47.3538ZM51.2114 45.6861L44.8225 51.7555L48.955 56.1055L55.3439 50.0361L51.2114 45.6861ZM44.6043 55.8751L49.4516 61.5695L54.0204 57.6804L49.1732 51.986L44.6043 55.8751ZM53.6859 61.9049L55.797 60.0993L51.8972 55.5395L49.7861 57.3451L53.6859 61.9049ZM56.1353 55.8793L53.0381 52.2265L48.4617 56.1068L51.5589 59.7596L56.1353 55.8793ZM52.8161 56.3416L60.3161 49.2166L56.1836 44.8667L48.6836 51.9917L52.8161 56.3416ZM59.4838 44.3072L50.6505 40.3211L48.1826 45.79L57.0159 49.7761L59.4838 44.3072ZM52.2414 44.0656C52.8715 42.3034 53.7514 40.6409 54.8542 39.129L50.0067 35.5932C48.5653 37.5694 47.4152 39.7423 46.5917 42.0455L52.2414 44.0656ZM54.902 39.0615C55.8896 37.626 57.3367 36.5697 59.0049 36.0667L57.2727 30.3222C54.2989 31.2189 51.7193 33.1018 49.9589 35.6607L54.902 39.0615ZM58.9112 36.0933C62.4081 35.1615 64.9815 36.8467 65.6369 38.1903L71.0295 35.5597C68.9071 31.2088 63.1472 28.7552 57.3663 30.2956L58.9112 36.0933ZM65.6365 38.1894C67.1037 41.1995 66.7545 44.8994 62.9392 50.1184L67.7828 53.6594C72.273 47.5173 73.8683 41.3838 71.0299 35.5605L65.6365 38.1894ZM62.9941 50.0456C58.7435 55.5038 53.7711 60.3592 48.2134 64.4788L51.7863 69.299C57.7806 64.8558 63.1435 59.619 67.7279 53.7321L62.9941 50.0456ZM51.7892 64.4809C46.2289 60.349 41.2564 55.48 37.0086 50.0077L32.269 53.6868C36.8504 59.5889 42.2135 64.8404 48.2105 69.2968L51.7892 64.4809ZM37.0599 50.0757C33.2326 44.8451 32.8967 41.1471 34.3616 38.1511L28.9715 35.5155C26.1309 41.3251 27.7116 47.4604 32.2177 53.6187L37.0599 50.0757ZM34.2601 38.3412C34.7343 37.5256 35.4216 36.8546 36.2483 36.4001L33.358 31.1422C31.5763 32.1216 30.095 33.5678 29.0731 35.3254L34.2601 38.3412ZM36.2483 36.4001C37.0751 35.9457 38.01 35.7249 38.9527 35.7616L39.186 29.7661C37.1544 29.6871 35.1396 30.1628 33.358 31.1422L36.2483 36.4001ZM39.0534 35.7638C39.7157 35.7674 40.3743 35.8629 41.0104 36.0476L42.6839 30.2857C41.5143 29.946 40.3032 29.7704 39.0853 29.7639L39.0534 35.7638ZM41.0283 36.0528C42.308 36.4158 43.4717 37.1044 44.4059 38.0513L48.6772 33.8375C47.0146 32.1522 44.9434 30.9267 42.6659 30.2805L41.0283 36.0528ZM49.2248 37.2861L49.4332 36.8694L44.0666 34.1861L43.8583 34.6028L49.2248 37.2861ZM49.3296 37.0591C49.6559 36.5095 50.0262 35.9873 50.4371 35.4976L45.8405 31.6412C45.2209 32.3798 44.6623 33.1674 44.1702 33.9964L49.3296 37.0591ZM50.1834 31.3741C48.2815 29.6027 45.9856 28.309 43.4851 27.5999L41.848 33.3723C43.4331 33.8218 44.8885 34.6418 46.0941 35.7647L50.1834 31.3741ZM43.4899 27.6013C35.8564 25.4227 28.9876 29.1295 26.4697 34.297L31.8634 36.9252C33.0677 34.4538 36.9212 31.9662 41.8432 33.3709L43.4899 27.6013ZM26.4708 34.2947C23.2008 40.9913 24.8269 48.2078 29.9648 55.2537L34.8128 51.7185C30.4507 45.7366 29.9101 40.9253 31.8623 36.9275L26.4708 34.2947ZM29.966 55.2553C33.917 60.6658 39.4742 66.0292 47.312 72.119L50.9933 67.381C43.3867 61.4708 38.305 56.5008 34.8116 51.7169L29.966 55.2553ZM47.3077 72.1156C48.0789 72.717 49.0288 73.0437 50.0068 73.0437V67.0437C50.3658 67.0437 50.7146 67.1636 50.9977 67.3844L47.3077 72.1156ZM50.0068 73.0437C50.9848 73.0437 51.9348 72.717 52.706 72.1156L49.016 67.3844C49.2991 67.1636 49.6478 67.0437 50.0068 67.0437V73.0437ZM52.7011 72.1194C60.5149 66.0514 66.0972 60.7242 70.0568 55.2428L65.193 51.7294C61.7082 56.5536 56.6238 61.4763 49.021 67.3806L52.7011 72.1194ZM70.0513 55.2503C75.1734 48.2056 76.7985 40.9902 73.529 34.2947L68.1375 36.9275C70.0902 40.9264 69.5486 45.7388 65.1985 51.7219L70.0513 55.2503Z" fill="#EF5D70" mask="url(#path-2-inside-1_924_12527)"/>
</g>
<defs>
<clipPath id="clip0_924_12527">
<rect width="50" height="50" fill="white" transform="translate(25 25)"/>
</clipPath>
</defs>
</svg>
