<svg width="328" height="86" viewBox="0 0 328 86" fill="none" xmlns="http://www.w3.org/2000/svg">
<rect x="0.5" y="0.5" width="327" height="85" rx="19.5" fill="white"/>
<path d="M264.932 37.021H260.285C259.371 37.021 258.63 37.855 258.63 38.8839V40.1257C258.63 41.1546 259.371 41.9886 260.285 41.9886H260.837L262.639 56.1762C262.872 58.0116 264.269 59.375 265.917 59.375H291.082C292.73 59.375 294.128 58.0116 294.361 56.1762L296.162 41.9886H296.714C297.629 41.9886 298.37 41.1546 298.37 40.1257V38.8839C298.37 37.855 297.629 37.021 296.714 37.021H292.068L284.701 25.625M264.932 37.021L272.299 25.6251M264.932 37.021H291.665" stroke="#4839C3" stroke-width="1.5" stroke-linecap="round"/>
<path d="M272 44V53" stroke="#3CE682" stroke-width="2" stroke-linecap="round"/>
<path d="M279.2 44V53" stroke="#3CE682" stroke-width="2" stroke-linecap="round"/>
<path d="M286.4 44V53" stroke="#3CE682" stroke-width="2" stroke-linecap="round"/>
<path d="M33.648 34H31.584L27.168 28.208V34H25.392V22.576H27.168V28.112L31.488 22.576H33.44L29.12 28.112L33.648 34ZM38.105 25.216C39.1183 25.216 39.881 25.456 40.393 25.936C40.9157 26.4053 41.177 27.1467 41.177 28.16V34H39.945L39.609 32.8H39.545C39.2997 33.1093 39.0543 33.3653 38.809 33.568C38.5743 33.7707 38.297 33.92 37.977 34.016C37.6677 34.112 37.2837 34.16 36.825 34.16C36.345 34.16 35.913 34.0693 35.529 33.888C35.145 33.696 34.841 33.408 34.617 33.024C34.393 32.6293 34.281 32.1387 34.281 31.552C34.281 30.6773 34.5903 30.0107 35.209 29.552C35.8383 29.0933 36.793 28.8427 38.073 28.8L39.449 28.752V28.272C39.449 27.632 39.3157 27.184 39.049 26.928C38.793 26.672 38.4303 26.544 37.961 26.544C37.5663 26.544 37.177 26.608 36.793 26.736C36.409 26.864 36.0357 27.0187 35.673 27.2L35.145 25.968C35.5397 25.7547 35.9877 25.5787 36.489 25.44C37.001 25.2907 37.5397 25.216 38.105 25.216ZM38.409 29.888C37.5343 29.9307 36.9263 30.096 36.585 30.384C36.2437 30.6613 36.073 31.056 36.073 31.568C36.073 32.016 36.1903 32.3413 36.425 32.544C36.6703 32.7467 36.985 32.848 37.369 32.848C37.9557 32.848 38.4463 32.6613 38.841 32.288C39.2463 31.9147 39.449 31.3547 39.449 30.608V29.856L38.409 29.888ZM48.5998 25.376H50.5038L47.1598 29.52L50.7917 34H48.7918L45.2878 29.632V34H43.5598V25.376H45.2878V29.568L48.5998 25.376ZM59.3569 34.16C58.5995 34.16 57.9329 34.0053 57.3569 33.696C56.7915 33.3867 56.3489 32.9067 56.0289 32.256C55.7195 31.5947 55.5649 30.7573 55.5649 29.744C55.5649 28.6773 55.7355 27.8133 56.0769 27.152C56.4182 26.4907 56.8822 26.0053 57.4689 25.696C58.0555 25.376 58.7275 25.216 59.4849 25.216C59.9329 25.216 60.3595 25.2693 60.7649 25.376C61.1809 25.472 61.5222 25.584 61.7889 25.712L61.2609 27.072C60.9942 26.9653 60.7062 26.8693 60.3969 26.784C60.0875 26.6987 59.7942 26.656 59.5169 26.656C59.0262 26.656 58.6209 26.7733 58.3009 27.008C57.9915 27.232 57.7569 27.5733 57.5969 28.032C57.4369 28.48 57.3569 29.0453 57.3569 29.728C57.3569 30.3787 57.4369 30.928 57.5969 31.376C57.7569 31.824 57.9915 32.1653 58.3009 32.4C58.6209 32.624 59.0049 32.736 59.4529 32.736C59.8902 32.736 60.2795 32.6827 60.6209 32.576C60.9729 32.4693 61.2982 32.3307 61.5969 32.16V33.632C61.2982 33.8133 60.9729 33.9467 60.6209 34.032C60.2689 34.1173 59.8475 34.16 59.3569 34.16ZM70.042 25.376V32.656H71.226V37.024H69.61V34H64.106V37.024H62.506V32.656H63.162C63.5887 31.9947 63.9407 31.2693 64.218 30.48C64.506 29.6907 64.7247 28.864 64.874 28C65.034 27.1253 65.1247 26.2507 65.146 25.376H70.042ZM66.618 26.688C66.5647 27.3813 66.4633 28.0907 66.314 28.816C66.1647 29.5413 65.978 30.2347 65.754 30.896C65.53 31.5573 65.2633 32.144 64.954 32.656H68.33V26.688H66.618ZM75.9644 25.216C76.679 25.216 77.2977 25.376 77.8204 25.696C78.343 26.0053 78.743 26.4533 79.0204 27.04C79.3084 27.6267 79.4524 28.32 79.4524 29.12V30.048H74.0284C74.0497 30.9333 74.263 31.6107 74.6684 32.08C75.0737 32.5493 75.6444 32.784 76.3804 32.784C76.903 32.784 77.367 32.736 77.7724 32.64C78.1884 32.5333 78.6097 32.3787 79.0364 32.176V33.584C78.631 33.776 78.215 33.92 77.7884 34.016C77.3724 34.112 76.8657 34.16 76.2684 34.16C75.4897 34.16 74.7964 33.9947 74.1884 33.664C73.5804 33.3333 73.1057 32.8427 72.7644 32.192C72.423 31.5307 72.2524 30.72 72.2524 29.76C72.2524 28.7893 72.407 27.968 72.7164 27.296C73.0257 26.624 73.4577 26.112 74.0124 25.76C74.5777 25.3973 75.2284 25.216 75.9644 25.216ZM75.9644 26.528C75.4204 26.528 74.983 26.7253 74.6524 27.12C74.3217 27.5147 74.1297 28.0747 74.0764 28.8H77.7404C77.7404 28.352 77.6764 27.9573 77.5484 27.616C77.4204 27.2747 77.223 27.008 76.9564 26.816C76.7004 26.624 76.3697 26.528 75.9644 26.528ZM88.1079 34H86.3479V26.736H84.1399C84.0332 28.0587 83.9052 29.1947 83.7559 30.144C83.6065 31.0827 83.4145 31.8453 83.1799 32.432C82.9559 33.0187 82.6732 33.4507 82.3319 33.728C82.0012 33.9947 81.6065 34.128 81.1479 34.128C80.9879 34.128 80.8279 34.112 80.6679 34.08C80.5079 34.0587 80.3692 34.0213 80.2519 33.968V32.672C80.3372 32.6933 80.4225 32.7147 80.5079 32.736C80.5932 32.7467 80.6785 32.752 80.7639 32.752C80.9559 32.752 81.1319 32.6667 81.2919 32.496C81.4519 32.3253 81.5959 32.0587 81.7239 31.696C81.8625 31.3333 81.9852 30.864 82.0919 30.288C82.2092 29.7013 82.3105 29.0027 82.3959 28.192C82.4812 27.3813 82.5559 26.4427 82.6199 25.376H88.1079V34ZM93.7925 25.216C94.8058 25.216 95.5685 25.456 96.0805 25.936C96.6032 26.4053 96.8645 27.1467 96.8645 28.16V34H95.6325L95.2965 32.8H95.2325C94.9872 33.1093 94.7418 33.3653 94.4965 33.568C94.2618 33.7707 93.9845 33.92 93.6645 34.016C93.3552 34.112 92.9712 34.16 92.5125 34.16C92.0325 34.16 91.6005 34.0693 91.2165 33.888C90.8325 33.696 90.5285 33.408 90.3045 33.024C90.0805 32.6293 89.9685 32.1387 89.9685 31.552C89.9685 30.6773 90.2778 30.0107 90.8965 29.552C91.5258 29.0933 92.4805 28.8427 93.7605 28.8L95.1365 28.752V28.272C95.1365 27.632 95.0032 27.184 94.7365 26.928C94.4805 26.672 94.1178 26.544 93.6485 26.544C93.2538 26.544 92.8645 26.608 92.4805 26.736C92.0965 26.864 91.7232 27.0187 91.3605 27.2L90.8325 25.968C91.2272 25.7547 91.6752 25.5787 92.1765 25.44C92.6885 25.2907 93.2272 25.216 93.7925 25.216ZM94.0965 29.888C93.2218 29.9307 92.6138 30.096 92.2725 30.384C91.9312 30.6613 91.7605 31.056 91.7605 31.568C91.7605 32.016 91.8778 32.3413 92.1125 32.544C92.3578 32.7467 92.6725 32.848 93.0565 32.848C93.6432 32.848 94.1338 32.6613 94.5285 32.288C94.9338 31.9147 95.1365 31.3547 95.1365 30.608V29.856L94.0965 29.888ZM105.375 26.736H102.703V34H100.991V26.736H98.3513V25.376H105.375V26.736ZM110.695 28.848C111.441 28.848 112.055 28.944 112.535 29.136C113.025 29.3173 113.388 29.5893 113.623 29.952C113.868 30.3147 113.991 30.7733 113.991 31.328C113.991 31.872 113.873 32.3467 113.639 32.752C113.404 33.1467 113.041 33.456 112.551 33.68C112.06 33.8933 111.415 34 110.615 34H106.935V25.376H108.663V28.848H110.695ZM112.247 31.392C112.247 30.9227 112.097 30.6027 111.799 30.432C111.511 30.2507 111.079 30.16 110.503 30.16H108.663V32.72H110.535C111.036 32.72 111.447 32.6187 111.767 32.416C112.087 32.2133 112.247 31.872 112.247 31.392ZM122.178 25.216C122.786 25.216 123.33 25.3013 123.81 25.472C124.29 25.6427 124.669 25.8987 124.946 26.24C125.223 26.5813 125.362 26.9973 125.362 27.488C125.362 28.0107 125.223 28.4267 124.946 28.736C124.669 29.0453 124.295 29.2693 123.826 29.408V29.472C124.167 29.568 124.471 29.7013 124.738 29.872C125.015 30.032 125.234 30.2507 125.394 30.528C125.554 30.7947 125.634 31.1467 125.634 31.584C125.634 32.0533 125.501 32.4853 125.234 32.88C124.978 33.2747 124.578 33.5893 124.034 33.824C123.501 34.048 122.807 34.16 121.954 34.16C121.549 34.16 121.17 34.1387 120.818 34.096C120.466 34.0533 120.146 33.9893 119.858 33.904C119.57 33.8187 119.314 33.7173 119.09 33.6V32.128C119.431 32.2987 119.837 32.4533 120.306 32.592C120.786 32.7307 121.309 32.8 121.874 32.8C122.279 32.8 122.631 32.7573 122.93 32.672C123.239 32.5867 123.479 32.448 123.65 32.256C123.831 32.064 123.922 31.808 123.922 31.488C123.922 31.1787 123.842 30.928 123.682 30.736C123.522 30.544 123.282 30.4 122.962 30.304C122.642 30.208 122.226 30.16 121.714 30.16H120.674V28.864H121.554C122.237 28.864 122.77 28.7787 123.154 28.608C123.549 28.4267 123.746 28.112 123.746 27.664C123.746 27.3013 123.602 27.0293 123.314 26.848C123.026 26.656 122.605 26.56 122.05 26.56C121.623 26.56 121.223 26.608 120.85 26.704C120.487 26.7893 120.109 26.9227 119.714 27.104L119.154 25.824C119.602 25.632 120.071 25.4827 120.562 25.376C121.063 25.2693 121.602 25.216 122.178 25.216ZM130.746 25.216C131.759 25.216 132.522 25.456 133.034 25.936C133.556 26.4053 133.818 27.1467 133.818 28.16V34H132.586L132.25 32.8H132.186C131.94 33.1093 131.695 33.3653 131.45 33.568C131.215 33.7707 130.938 33.92 130.618 34.016C130.308 34.112 129.924 34.16 129.466 34.16C128.986 34.16 128.554 34.0693 128.17 33.888C127.786 33.696 127.482 33.408 127.258 33.024C127.034 32.6293 126.922 32.1387 126.922 31.552C126.922 30.6773 127.231 30.0107 127.85 29.552C128.479 29.0933 129.434 28.8427 130.714 28.8L132.09 28.752V28.272C132.09 27.632 131.956 27.184 131.69 26.928C131.434 26.672 131.071 26.544 130.602 26.544C130.207 26.544 129.818 26.608 129.434 26.736C129.05 26.864 128.676 27.0187 128.314 27.2L127.786 25.968C128.18 25.7547 128.628 25.5787 129.13 25.44C129.642 25.2907 130.18 25.216 130.746 25.216ZM131.05 29.888C130.175 29.9307 129.567 30.096 129.226 30.384C128.884 30.6613 128.714 31.056 128.714 31.568C128.714 32.016 128.831 32.3413 129.066 32.544C129.311 32.7467 129.626 32.848 130.01 32.848C130.596 32.848 131.087 32.6613 131.482 32.288C131.887 31.9147 132.09 31.3547 132.09 30.608V29.856L131.05 29.888ZM141.24 25.376H143.144L139.8 29.52L143.432 34H141.432L137.928 29.632V34H136.2V25.376H137.928V29.568L141.24 25.376ZM148.011 25.216C149.025 25.216 149.787 25.456 150.299 25.936C150.822 26.4053 151.083 27.1467 151.083 28.16V34H149.851L149.515 32.8H149.451C149.206 33.1093 148.961 33.3653 148.715 33.568C148.481 33.7707 148.203 33.92 147.883 34.016C147.574 34.112 147.19 34.16 146.731 34.16C146.251 34.16 145.819 34.0693 145.435 33.888C145.051 33.696 144.747 33.408 144.523 33.024C144.299 32.6293 144.187 32.1387 144.187 31.552C144.187 30.6773 144.497 30.0107 145.115 29.552C145.745 29.0933 146.699 28.8427 147.979 28.8L149.355 28.752V28.272C149.355 27.632 149.222 27.184 148.955 26.928C148.699 26.672 148.337 26.544 147.867 26.544C147.473 26.544 147.083 26.608 146.699 26.736C146.315 26.864 145.942 27.0187 145.579 27.2L145.051 25.968C145.446 25.7547 145.894 25.5787 146.395 25.44C146.907 25.2907 147.446 25.216 148.011 25.216ZM148.315 29.888C147.441 29.9307 146.833 30.096 146.491 30.384C146.15 30.6613 145.979 31.056 145.979 31.568C145.979 32.016 146.097 32.3413 146.331 32.544C146.577 32.7467 146.891 32.848 147.275 32.848C147.862 32.848 148.353 32.6613 148.747 32.288C149.153 31.9147 149.355 31.3547 149.355 30.608V29.856L148.315 29.888ZM155.85 25.216C156.458 25.216 157.002 25.3013 157.482 25.472C157.962 25.6427 158.341 25.8987 158.618 26.24C158.895 26.5813 159.034 26.9973 159.034 27.488C159.034 28.0107 158.895 28.4267 158.618 28.736C158.341 29.0453 157.967 29.2693 157.498 29.408V29.472C157.839 29.568 158.143 29.7013 158.41 29.872C158.687 30.032 158.906 30.2507 159.066 30.528C159.226 30.7947 159.306 31.1467 159.306 31.584C159.306 32.0533 159.173 32.4853 158.906 32.88C158.65 33.2747 158.25 33.5893 157.706 33.824C157.173 34.048 156.479 34.16 155.626 34.16C155.221 34.16 154.842 34.1387 154.49 34.096C154.138 34.0533 153.818 33.9893 153.53 33.904C153.242 33.8187 152.986 33.7173 152.762 33.6V32.128C153.103 32.2987 153.509 32.4533 153.978 32.592C154.458 32.7307 154.981 32.8 155.546 32.8C155.951 32.8 156.303 32.7573 156.602 32.672C156.911 32.5867 157.151 32.448 157.322 32.256C157.503 32.064 157.594 31.808 157.594 31.488C157.594 31.1787 157.514 30.928 157.354 30.736C157.194 30.544 156.954 30.4 156.634 30.304C156.314 30.208 155.898 30.16 155.386 30.16H154.346V28.864H155.226C155.909 28.864 156.442 28.7787 156.826 28.608C157.221 28.4267 157.418 28.112 157.418 27.664C157.418 27.3013 157.274 27.0293 156.986 26.848C156.698 26.656 156.277 26.56 155.722 26.56C155.295 26.56 154.895 26.608 154.522 26.704C154.159 26.7893 153.781 26.9227 153.386 27.104L152.826 25.824C153.274 25.632 153.743 25.4827 154.234 25.376C154.735 25.2693 155.274 25.216 155.85 25.216Z" fill="#383553"/>
<path d="M25 52V44.86H30.17V52H29.6V45.38H25.58V52H25ZM36.498 49.34C36.498 49.7533 36.4446 50.13 36.338 50.47C36.238 50.8033 36.0846 51.0933 35.878 51.34C35.678 51.58 35.428 51.7667 35.128 51.9C34.828 52.0333 34.4846 52.1 34.098 52.1C33.7313 52.1 33.4013 52.0367 33.108 51.91C32.8213 51.7767 32.5746 51.59 32.368 51.35C32.1613 51.1033 32.0046 50.81 31.898 50.47C31.7913 50.13 31.738 49.7533 31.738 49.34C31.738 48.76 31.8313 48.2667 32.018 47.86C32.2113 47.4467 32.488 47.13 32.848 46.91C33.2146 46.69 33.648 46.58 34.148 46.58C34.6546 46.58 35.0813 46.6967 35.428 46.93C35.7813 47.1567 36.048 47.4767 36.228 47.89C36.408 48.3033 36.498 48.7867 36.498 49.34ZM32.328 49.34C32.328 49.7933 32.3913 50.1933 32.518 50.54C32.6446 50.88 32.8413 51.1433 33.108 51.33C33.3746 51.5167 33.708 51.61 34.108 51.61C34.5213 51.61 34.8613 51.5167 35.128 51.33C35.3946 51.1367 35.5913 50.87 35.718 50.53C35.8446 50.1833 35.908 49.7867 35.908 49.34C35.908 48.8933 35.848 48.5 35.728 48.16C35.608 47.82 35.418 47.5533 35.158 47.36C34.898 47.1667 34.558 47.07 34.138 47.07C33.5313 47.07 33.078 47.27 32.778 47.67C32.478 48.07 32.328 48.6267 32.328 49.34ZM44.7864 46.68V52H37.9364V46.68H38.5064V51.51H41.0764V46.68H41.6464V51.51H44.2164V46.68H44.7864ZM48.4397 46.59C49.0397 46.59 49.4864 46.7367 49.7797 47.03C50.073 47.3233 50.2197 47.79 50.2197 48.43V52H49.7897L49.6897 51.1H49.6597C49.533 51.3 49.3864 51.4767 49.2197 51.63C49.0597 51.7767 48.863 51.8933 48.6297 51.98C48.403 52.06 48.123 52.1 47.7897 52.1C47.4564 52.1 47.1664 52.0433 46.9197 51.93C46.673 51.81 46.483 51.64 46.3497 51.42C46.2164 51.2 46.1497 50.93 46.1497 50.61C46.1497 50.0833 46.3664 49.6833 46.7997 49.41C47.233 49.13 47.863 48.97 48.6897 48.93L49.6597 48.89V48.51C49.6597 47.9833 49.553 47.6133 49.3397 47.4C49.133 47.18 48.823 47.07 48.4097 47.07C48.1364 47.07 47.873 47.1067 47.6197 47.18C47.373 47.2467 47.123 47.3433 46.8697 47.47L46.6897 47.02C46.9364 46.8933 47.2097 46.79 47.5097 46.71C47.8097 46.63 48.1197 46.59 48.4397 46.59ZM48.7497 49.35C48.0764 49.3833 47.573 49.5033 47.2397 49.71C46.9064 49.91 46.7397 50.2133 46.7397 50.62C46.7397 50.9467 46.843 51.1967 47.0497 51.37C47.2564 51.5367 47.5364 51.62 47.8897 51.62C48.4564 51.62 48.8897 51.4633 49.1897 51.15C49.4964 50.8367 49.653 50.3967 49.6597 49.83V49.31L48.7497 49.35ZM55.071 46.68V47.17H52.491V52H51.921V46.68H55.071ZM60.5019 49.34C60.5019 49.7533 60.4485 50.13 60.3419 50.47C60.2419 50.8033 60.0885 51.0933 59.8819 51.34C59.6819 51.58 59.4319 51.7667 59.1319 51.9C58.8319 52.0333 58.4885 52.1 58.1019 52.1C57.7352 52.1 57.4052 52.0367 57.1119 51.91C56.8252 51.7767 56.5785 51.59 56.3719 51.35C56.1652 51.1033 56.0085 50.81 55.9019 50.47C55.7952 50.13 55.7419 49.7533 55.7419 49.34C55.7419 48.76 55.8352 48.2667 56.0219 47.86C56.2152 47.4467 56.4919 47.13 56.8519 46.91C57.2185 46.69 57.6519 46.58 58.1519 46.58C58.6585 46.58 59.0852 46.6967 59.4319 46.93C59.7852 47.1567 60.0519 47.4767 60.2319 47.89C60.4119 48.3033 60.5019 48.7867 60.5019 49.34ZM56.3319 49.34C56.3319 49.7933 56.3952 50.1933 56.5219 50.54C56.6485 50.88 56.8452 51.1433 57.1119 51.33C57.3785 51.5167 57.7119 51.61 58.1119 51.61C58.5252 51.61 58.8652 51.5167 59.1319 51.33C59.3985 51.1367 59.5952 50.87 59.7219 50.53C59.8485 50.1833 59.9119 49.7867 59.9119 49.34C59.9119 48.8933 59.8519 48.5 59.7319 48.16C59.6119 47.82 59.4219 47.5533 59.1619 47.36C58.9019 47.1667 58.5619 47.07 58.1419 47.07C57.5352 47.07 57.0819 47.27 56.7819 47.67C56.4819 48.07 56.3319 48.6267 56.3319 49.34ZM65.9903 47.98C65.9903 48.3133 65.9003 48.5767 65.7203 48.77C65.5403 48.9633 65.3036 49.0967 65.0103 49.17V49.2C65.357 49.2533 65.6403 49.3833 65.8603 49.59C66.0803 49.79 66.1903 50.0867 66.1903 50.48C66.1903 50.7133 66.1503 50.9233 66.0703 51.11C65.9903 51.2967 65.8703 51.4567 65.7103 51.59C65.5503 51.7233 65.347 51.8267 65.1003 51.9C64.8536 51.9667 64.5603 52 64.2203 52H61.9503V46.68H64.1703C64.5636 46.68 64.8936 46.73 65.1603 46.83C65.4336 46.9233 65.6403 47.0667 65.7803 47.26C65.9203 47.4533 65.9903 47.6933 65.9903 47.98ZM65.6003 50.48C65.6003 50.1133 65.4736 49.85 65.2203 49.69C64.9736 49.53 64.6003 49.45 64.1003 49.45H62.5203V51.52H64.1403C64.627 51.52 64.9903 51.4367 65.2303 51.27C65.477 51.1033 65.6003 50.84 65.6003 50.48ZM65.4103 48.04C65.4103 47.76 65.3136 47.5467 65.1203 47.4C64.927 47.2467 64.597 47.17 64.1303 47.17H62.5203V48.96H64.0603C64.5203 48.96 64.8603 48.8833 65.0803 48.73C65.3003 48.5767 65.4103 48.3467 65.4103 48.04ZM69.5139 46.59C70.1139 46.59 70.5606 46.7367 70.8539 47.03C71.1472 47.3233 71.2939 47.79 71.2939 48.43V52H70.8639L70.7639 51.1H70.7339C70.6072 51.3 70.4606 51.4767 70.2939 51.63C70.1339 51.7767 69.9372 51.8933 69.7039 51.98C69.4772 52.06 69.1972 52.1 68.8639 52.1C68.5306 52.1 68.2406 52.0433 67.9939 51.93C67.7472 51.81 67.5572 51.64 67.4239 51.42C67.2906 51.2 67.2239 50.93 67.2239 50.61C67.2239 50.0833 67.4406 49.6833 67.8739 49.41C68.3072 49.13 68.9372 48.97 69.7639 48.93L70.7339 48.89V48.51C70.7339 47.9833 70.6272 47.6133 70.4139 47.4C70.2072 47.18 69.8972 47.07 69.4839 47.07C69.2106 47.07 68.9472 47.1067 68.6939 47.18C68.4472 47.2467 68.1972 47.3433 67.9439 47.47L67.7639 47.02C68.0106 46.8933 68.2839 46.79 68.5839 46.71C68.8839 46.63 69.1939 46.59 69.5139 46.59ZM69.8239 49.35C69.1506 49.3833 68.6472 49.5033 68.3139 49.71C67.9806 49.91 67.8139 50.2133 67.8139 50.62C67.8139 50.9467 67.9172 51.1967 68.1239 51.37C68.3306 51.5367 68.6106 51.62 68.9639 51.62C69.5306 51.62 69.9639 51.4633 70.2639 51.15C70.5706 50.8367 70.7272 50.3967 70.7339 49.83V49.31L69.8239 49.35ZM72.9752 52H72.3052L73.8952 49.72C73.6152 49.68 73.3752 49.6 73.1752 49.48C72.9752 49.36 72.8186 49.1967 72.7052 48.99C72.5986 48.7833 72.5452 48.5333 72.5452 48.24C72.5452 47.72 72.7119 47.33 73.0452 47.07C73.3786 46.81 73.8119 46.68 74.3452 46.68H76.5752V52H76.0152V49.78H74.4752L72.9752 52ZM73.1052 48.24C73.1052 48.5933 73.2186 48.86 73.4452 49.04C73.6719 49.2133 74.0119 49.3 74.4652 49.3H76.0152V47.17H74.4052C73.9719 47.17 73.6452 47.2633 73.4252 47.45C73.2119 47.6367 73.1052 47.9 73.1052 48.24ZM81.4845 50.39C81.4845 50.4567 81.4845 50.5333 81.4845 50.62C81.4845 50.7067 81.4811 50.7967 81.4745 50.89C81.4745 50.9767 81.4711 51.0633 81.4645 51.15C81.4578 51.23 81.4545 51.3067 81.4545 51.38L84.5645 46.68H85.2645V52H84.7245V48.29C84.7245 48.19 84.7245 48.08 84.7245 47.96C84.7245 47.84 84.7278 47.72 84.7345 47.6C84.7411 47.48 84.7445 47.3767 84.7445 47.29L81.6345 52H80.9445V46.68H81.4845V50.39ZM87.5984 46.68V48.99H90.8584V46.68H91.4284V52H90.8584V49.48H87.5984V52H87.0284V46.68H87.5984ZM95.3205 52.1C94.8005 52.1 94.3572 51.9933 93.9905 51.78C93.6305 51.56 93.3539 51.2467 93.1605 50.84C92.9739 50.4333 92.8805 49.9433 92.8805 49.37C92.8805 48.77 92.9872 48.2633 93.2005 47.85C93.4205 47.4367 93.7205 47.1233 94.1005 46.91C94.4805 46.69 94.9272 46.58 95.4405 46.58C95.6939 46.58 95.9305 46.6067 96.1505 46.66C96.3772 46.7067 96.5772 46.77 96.7505 46.85L96.6005 47.33C96.4205 47.2567 96.2272 47.2 96.0205 47.16C95.8139 47.1133 95.6172 47.09 95.4305 47.09C95.0039 47.09 94.6439 47.1833 94.3505 47.37C94.0639 47.55 93.8439 47.81 93.6905 48.15C93.5439 48.49 93.4705 48.8967 93.4705 49.37C93.4705 49.81 93.5339 50.2 93.6605 50.54C93.7939 50.8733 93.9972 51.1333 94.2705 51.32C94.5439 51.5067 94.8939 51.6 95.3205 51.6C95.5805 51.6 95.8239 51.5733 96.0505 51.52C96.2839 51.4667 96.4972 51.3967 96.6905 51.31V51.83C96.5172 51.9033 96.3172 51.9667 96.0905 52.02C95.8639 52.0733 95.6072 52.1 95.3205 52.1ZM101.386 47.17H99.5964V52H99.0364V47.17H97.2564V46.68H101.386V47.17ZM104.848 46.58C105.528 46.58 106.058 46.81 106.438 47.27C106.825 47.73 107.018 48.41 107.018 49.31C107.018 49.91 106.928 50.42 106.748 50.84C106.568 51.2533 106.311 51.5667 105.978 51.78C105.651 51.9933 105.258 52.1 104.798 52.1C104.485 52.1 104.211 52.0533 103.978 51.96C103.745 51.8667 103.551 51.7433 103.398 51.59C103.245 51.4367 103.125 51.2667 103.038 51.08H102.998C103.011 51.2467 103.021 51.43 103.028 51.63C103.035 51.8233 103.038 52.0033 103.038 52.17V54.36H102.468V46.68H102.938L103.008 47.68H103.038C103.125 47.4867 103.248 47.3067 103.408 47.14C103.568 46.9733 103.765 46.84 103.998 46.74C104.238 46.6333 104.521 46.58 104.848 46.58ZM104.768 47.07C104.375 47.07 104.051 47.1533 103.798 47.32C103.545 47.4867 103.355 47.7333 103.228 48.06C103.101 48.38 103.038 48.7767 103.038 49.25V49.35C103.038 49.85 103.098 50.27 103.218 50.61C103.345 50.9433 103.531 51.1933 103.778 51.36C104.031 51.5267 104.348 51.61 104.728 51.61C105.101 51.61 105.411 51.52 105.658 51.34C105.911 51.1533 106.101 50.89 106.228 50.55C106.361 50.2033 106.428 49.79 106.428 49.31C106.428 48.5833 106.291 48.03 106.018 47.65C105.745 47.2633 105.328 47.07 104.768 47.07ZM107.477 46.68H108.087L109.347 49.99C109.42 50.1833 109.487 50.3633 109.547 50.53C109.607 50.6967 109.66 50.8533 109.707 51C109.753 51.14 109.793 51.27 109.827 51.39H109.857C109.903 51.2367 109.967 51.04 110.047 50.8C110.127 50.5533 110.22 50.2867 110.327 50L111.567 46.68H112.177L109.777 52.95C109.657 53.2567 109.523 53.52 109.377 53.74C109.23 53.96 109.057 54.1267 108.857 54.24C108.657 54.36 108.417 54.42 108.137 54.42C108.01 54.42 107.893 54.41 107.787 54.39C107.687 54.3767 107.59 54.3567 107.497 54.33V53.85C107.583 53.87 107.67 53.8867 107.757 53.9C107.85 53.92 107.953 53.93 108.067 53.93C108.253 53.93 108.417 53.89 108.557 53.81C108.697 53.7367 108.82 53.62 108.927 53.46C109.033 53.3067 109.13 53.1133 109.217 52.88L109.567 51.98L107.477 46.68ZM115.984 46.68H116.634L114.254 49.26L116.784 52H116.094L113.614 49.31V52H113.044V46.68H113.614V49.27L115.984 46.68ZM122.701 53.81H122.141V52H117.771V46.68H118.341V51.51H121.411V46.68H121.981V51.51H122.701V53.81ZM124.346 50.39C124.346 50.4567 124.346 50.5333 124.346 50.62C124.346 50.7067 124.342 50.7967 124.336 50.89C124.336 50.9767 124.332 51.0633 124.326 51.15C124.319 51.23 124.316 51.3067 124.316 51.38L127.426 46.68H128.126V52H127.586V48.29C127.586 48.19 127.586 48.08 127.586 47.96C127.586 47.84 127.589 47.72 127.596 47.6C127.602 47.48 127.606 47.3767 127.606 47.29L124.496 52H123.806V46.68H124.346V50.39ZM129.87 52H129.2L130.79 49.72C130.51 49.68 130.27 49.6 130.07 49.48C129.87 49.36 129.713 49.1967 129.6 48.99C129.493 48.7833 129.44 48.5333 129.44 48.24C129.44 47.72 129.606 47.33 129.94 47.07C130.273 46.81 130.706 46.68 131.24 46.68H133.47V52H132.91V49.78H131.37L129.87 52ZM130 48.24C130 48.5933 130.113 48.86 130.34 49.04C130.566 49.2133 130.906 49.3 131.36 49.3H132.91V47.17H131.3C130.866 47.17 130.54 47.2633 130.32 47.45C130.106 47.6367 130 47.9 130 48.24ZM142.129 46.68V52H141.559V47.18H138.409V52H137.839V46.68H142.129ZM148.344 49.34C148.344 49.7533 148.29 50.13 148.184 50.47C148.084 50.8033 147.93 51.0933 147.724 51.34C147.524 51.58 147.274 51.7667 146.974 51.9C146.674 52.0333 146.33 52.1 145.944 52.1C145.577 52.1 145.247 52.0367 144.954 51.91C144.667 51.7767 144.42 51.59 144.214 51.35C144.007 51.1033 143.85 50.81 143.744 50.47C143.637 50.13 143.584 49.7533 143.584 49.34C143.584 48.76 143.677 48.2667 143.864 47.86C144.057 47.4467 144.334 47.13 144.694 46.91C145.06 46.69 145.494 46.58 145.994 46.58C146.5 46.58 146.927 46.6967 147.274 46.93C147.627 47.1567 147.894 47.4767 148.074 47.89C148.254 48.3033 148.344 48.7867 148.344 49.34ZM144.174 49.34C144.174 49.7933 144.237 50.1933 144.364 50.54C144.49 50.88 144.687 51.1433 144.954 51.33C145.22 51.5167 145.554 51.61 145.954 51.61C146.367 51.61 146.707 51.5167 146.974 51.33C147.24 51.1367 147.437 50.87 147.564 50.53C147.69 50.1833 147.754 49.7867 147.754 49.34C147.754 48.8933 147.694 48.5 147.574 48.16C147.454 47.82 147.264 47.5533 147.004 47.36C146.744 47.1667 146.404 47.07 145.984 47.07C145.377 47.07 144.924 47.27 144.624 47.67C144.324 48.07 144.174 48.6267 144.174 49.34ZM156.84 49.34C156.84 49.7533 156.786 50.13 156.68 50.47C156.58 50.8033 156.426 51.0933 156.22 51.34C156.02 51.58 155.77 51.7667 155.47 51.9C155.17 52.0333 154.826 52.1 154.44 52.1C154.073 52.1 153.743 52.0367 153.45 51.91C153.163 51.7767 152.916 51.59 152.71 51.35C152.503 51.1033 152.346 50.81 152.24 50.47C152.133 50.13 152.08 49.7533 152.08 49.34C152.08 48.76 152.173 48.2667 152.36 47.86C152.553 47.4467 152.83 47.13 153.19 46.91C153.556 46.69 153.99 46.58 154.49 46.58C154.996 46.58 155.423 46.6967 155.77 46.93C156.123 47.1567 156.39 47.4767 156.57 47.89C156.75 48.3033 156.84 48.7867 156.84 49.34ZM152.67 49.34C152.67 49.7933 152.733 50.1933 152.86 50.54C152.986 50.88 153.183 51.1433 153.45 51.33C153.716 51.5167 154.05 51.61 154.45 51.61C154.863 51.61 155.203 51.5167 155.47 51.33C155.736 51.1367 155.933 50.87 156.06 50.53C156.186 50.1833 156.25 49.7867 156.25 49.34C156.25 48.8933 156.19 48.5 156.07 48.16C155.95 47.82 155.76 47.5533 155.5 47.36C155.24 47.1667 154.9 47.07 154.48 47.07C153.873 47.07 153.42 47.27 153.12 47.67C152.82 48.07 152.67 48.6267 152.67 49.34ZM161.088 46.6C161.622 46.6333 162.078 46.7667 162.458 47C162.838 47.2267 163.132 47.5367 163.338 47.93C163.545 48.3233 163.648 48.7933 163.648 49.34C163.648 49.86 163.545 50.32 163.338 50.72C163.138 51.1133 162.848 51.43 162.468 51.67C162.088 51.9033 161.628 52.04 161.088 52.08V54.4H160.528V52.08C160.002 52.0467 159.545 51.9167 159.158 51.69C158.772 51.4633 158.475 51.15 158.268 50.75C158.068 50.35 157.968 49.88 157.968 49.34C157.968 48.7933 158.068 48.3233 158.268 47.93C158.475 47.5367 158.768 47.2267 159.148 47C159.535 46.7667 159.998 46.6333 160.538 46.6V44.4H161.088V46.6ZM160.538 47.09C160.098 47.1167 159.732 47.2233 159.438 47.41C159.145 47.5967 158.925 47.8533 158.778 48.18C158.632 48.5 158.558 48.8867 158.558 49.34C158.558 49.7933 158.632 50.1833 158.778 50.51C158.925 50.8367 159.145 51.0933 159.438 51.28C159.738 51.4667 160.105 51.5733 160.538 51.6V47.09ZM161.088 51.6C161.522 51.5667 161.882 51.4533 162.168 51.26C162.462 51.0667 162.682 50.8067 162.828 50.48C162.982 50.1533 163.058 49.7733 163.058 49.34C163.058 48.8867 162.985 48.5 162.838 48.18C162.692 47.8533 162.472 47.6 162.178 47.42C161.885 47.2333 161.522 47.1233 161.088 47.09V51.6ZM169.545 49.34C169.545 49.7533 169.492 50.13 169.385 50.47C169.285 50.8033 169.132 51.0933 168.925 51.34C168.725 51.58 168.475 51.7667 168.175 51.9C167.875 52.0333 167.532 52.1 167.145 52.1C166.778 52.1 166.448 52.0367 166.155 51.91C165.868 51.7767 165.622 51.59 165.415 51.35C165.208 51.1033 165.052 50.81 164.945 50.47C164.838 50.13 164.785 49.7533 164.785 49.34C164.785 48.76 164.878 48.2667 165.065 47.86C165.258 47.4467 165.535 47.13 165.895 46.91C166.262 46.69 166.695 46.58 167.195 46.58C167.702 46.58 168.128 46.6967 168.475 46.93C168.828 47.1567 169.095 47.4767 169.275 47.89C169.455 48.3033 169.545 48.7867 169.545 49.34ZM165.375 49.34C165.375 49.7933 165.438 50.1933 165.565 50.54C165.692 50.88 165.888 51.1433 166.155 51.33C166.422 51.5167 166.755 51.61 167.155 51.61C167.568 51.61 167.908 51.5167 168.175 51.33C168.442 51.1367 168.638 50.87 168.765 50.53C168.892 50.1833 168.955 49.7867 168.955 49.34C168.955 48.8933 168.895 48.5 168.775 48.16C168.655 47.82 168.465 47.5533 168.205 47.36C167.945 47.1667 167.605 47.07 167.185 47.07C166.578 47.07 166.125 47.27 165.825 47.67C165.525 48.07 165.375 48.6267 165.375 49.34ZM176.273 46.68V52H175.743V48.26C175.743 48.12 175.747 47.9833 175.753 47.85C175.76 47.71 175.767 47.5667 175.773 47.42H175.753L173.863 52H173.373L171.503 47.41H171.473C171.487 47.5567 171.493 47.7 171.493 47.84C171.493 47.98 171.493 48.13 171.493 48.29V52H170.973V46.68H171.743L173.613 51.3L175.503 46.68H176.273ZM181.638 52H181.068V47.17H179.268C179.201 48.01 179.124 48.7367 179.038 49.35C178.951 49.9633 178.838 50.47 178.698 50.87C178.564 51.27 178.394 51.5667 178.188 51.76C177.988 51.9533 177.744 52.05 177.458 52.05C177.371 52.05 177.294 52.0467 177.228 52.04C177.161 52.0333 177.104 52.0233 177.058 52.01V51.55C177.098 51.5633 177.141 51.5733 177.188 51.58C177.234 51.5867 177.294 51.59 177.368 51.59C177.528 51.59 177.671 51.5267 177.798 51.4C177.931 51.2733 178.048 51.0833 178.148 50.83C178.248 50.5767 178.334 50.2567 178.408 49.87C178.488 49.4767 178.554 49.0167 178.608 48.49C178.668 47.9567 178.721 47.3533 178.768 46.68H181.638V52ZM185.406 46.58C185.866 46.58 186.246 46.6867 186.546 46.9C186.852 47.1067 187.082 47.3933 187.236 47.76C187.396 48.1267 187.476 48.55 187.476 49.03V49.41H183.676C183.676 50.1233 183.839 50.6667 184.166 51.04C184.499 51.4133 184.969 51.6 185.576 51.6C185.909 51.6 186.199 51.5733 186.446 51.52C186.692 51.4667 186.962 51.3733 187.256 51.24V51.76C186.989 51.88 186.726 51.9667 186.466 52.02C186.206 52.0733 185.902 52.1 185.556 52.1C185.029 52.1 184.579 51.99 184.206 51.77C183.839 51.55 183.559 51.2367 183.366 50.83C183.179 50.4167 183.086 49.9367 183.086 49.39C183.086 48.8433 183.176 48.36 183.356 47.94C183.536 47.52 183.799 47.19 184.146 46.95C184.492 46.7033 184.912 46.58 185.406 46.58ZM185.406 47.06C184.912 47.06 184.516 47.2233 184.216 47.55C183.916 47.87 183.739 48.3333 183.686 48.94H186.886C186.886 48.5667 186.832 48.24 186.726 47.96C186.619 47.68 186.456 47.46 186.236 47.3C186.022 47.14 185.746 47.06 185.406 47.06ZM189.483 46.68V48.99H192.743V46.68H193.313V52H192.743V49.48H189.483V52H188.913V46.68H189.483ZM195.615 50.39C195.615 50.4567 195.615 50.5333 195.615 50.62C195.615 50.7067 195.612 50.7967 195.605 50.89C195.605 50.9767 195.602 51.0633 195.595 51.15C195.589 51.23 195.585 51.3067 195.585 51.38L198.695 46.68H199.395V52H198.855V48.29C198.855 48.19 198.855 48.08 198.855 47.96C198.855 47.84 198.859 47.72 198.865 47.6C198.872 47.48 198.875 47.3767 198.875 47.29L195.765 52H195.075V46.68H195.615V50.39ZM207.759 49.34C207.759 49.88 207.676 50.36 207.509 50.78C207.343 51.1933 207.096 51.5167 206.769 51.75C206.443 51.9833 206.033 52.1 205.539 52.1C205.079 52.1 204.689 51.9933 204.369 51.78C204.056 51.5667 203.813 51.2633 203.639 50.87C203.466 50.4767 203.369 50.0133 203.349 49.48H201.719V52H201.149V46.68H201.719V48.99H203.359C203.393 48.5233 203.496 48.11 203.669 47.75C203.843 47.39 204.086 47.1067 204.399 46.9C204.719 46.6867 205.109 46.58 205.569 46.58C206.056 46.58 206.459 46.7 206.779 46.94C207.106 47.1733 207.349 47.4967 207.509 47.91C207.676 48.3233 207.759 48.8 207.759 49.34ZM203.939 49.34C203.939 49.78 203.993 50.1733 204.099 50.52C204.213 50.86 204.386 51.1267 204.619 51.32C204.859 51.5133 205.169 51.61 205.549 51.61C205.929 51.61 206.239 51.5167 206.479 51.33C206.719 51.1367 206.893 50.87 206.999 50.53C207.113 50.19 207.169 49.7933 207.169 49.34C207.169 48.8867 207.113 48.49 206.999 48.15C206.893 47.81 206.719 47.5467 206.479 47.36C206.246 47.1667 205.939 47.07 205.559 47.07C205.179 47.07 204.869 47.1667 204.629 47.36C204.396 47.5467 204.223 47.81 204.109 48.15C203.996 48.49 203.939 48.8867 203.939 49.34ZM28.92 61.98C28.92 62.3133 28.83 62.5767 28.65 62.77C28.47 62.9633 28.2333 63.0967 27.94 63.17V63.2C28.2867 63.2533 28.57 63.3833 28.79 63.59C29.01 63.79 29.12 64.0867 29.12 64.48C29.12 64.7133 29.08 64.9233 29 65.11C28.92 65.2967 28.8 65.4567 28.64 65.59C28.48 65.7233 28.2767 65.8267 28.03 65.9C27.7833 65.9667 27.49 66 27.15 66H24.88V60.68H27.1C27.4933 60.68 27.8233 60.73 28.09 60.83C28.3633 60.9233 28.57 61.0667 28.71 61.26C28.85 61.4533 28.92 61.6933 28.92 61.98ZM28.53 64.48C28.53 64.1133 28.4033 63.85 28.15 63.69C27.9033 63.53 27.53 63.45 27.03 63.45H25.45V65.52H27.07C27.5567 65.52 27.92 65.4367 28.16 65.27C28.4067 65.1033 28.53 64.84 28.53 64.48ZM28.34 62.04C28.34 61.76 28.2433 61.5467 28.05 61.4C27.8567 61.2467 27.5267 61.17 27.06 61.17H25.45V62.96H26.99C27.45 62.96 27.79 62.8833 28.01 62.73C28.23 62.5767 28.34 62.3467 28.34 62.04ZM32.4436 60.59C33.0436 60.59 33.4903 60.7367 33.7836 61.03C34.0769 61.3233 34.2236 61.79 34.2236 62.43V66H33.7936L33.6936 65.1H33.6636C33.5369 65.3 33.3903 65.4767 33.2236 65.63C33.0636 65.7767 32.8669 65.8933 32.6336 65.98C32.4069 66.06 32.1269 66.1 31.7936 66.1C31.4603 66.1 31.1703 66.0433 30.9236 65.93C30.6769 65.81 30.4869 65.64 30.3536 65.42C30.2203 65.2 30.1536 64.93 30.1536 64.61C30.1536 64.0833 30.3703 63.6833 30.8036 63.41C31.2369 63.13 31.8669 62.97 32.6936 62.93L33.6636 62.89V62.51C33.6636 61.9833 33.5569 61.6133 33.3436 61.4C33.1369 61.18 32.8269 61.07 32.4136 61.07C32.1403 61.07 31.8769 61.1067 31.6236 61.18C31.3769 61.2467 31.1269 61.3433 30.8736 61.47L30.6936 61.02C30.9403 60.8933 31.2136 60.79 31.5136 60.71C31.8136 60.63 32.1236 60.59 32.4436 60.59ZM32.7536 63.35C32.0803 63.3833 31.5769 63.5033 31.2436 63.71C30.9103 63.91 30.7436 64.2133 30.7436 64.62C30.7436 64.9467 30.8469 65.1967 31.0536 65.37C31.2603 65.5367 31.5403 65.62 31.8936 65.62C32.4603 65.62 32.8936 65.4633 33.1936 65.15C33.5003 64.8367 33.6569 64.3967 33.6636 63.83V63.31L32.7536 63.35ZM42.7649 60.68V66H35.9149V60.68H36.4849V65.51H39.0549V60.68H39.6249V65.51H42.1949V60.68H42.7649ZM45.0782 64.39C45.0782 64.4567 45.0782 64.5333 45.0782 64.62C45.0782 64.7067 45.0749 64.7967 45.0682 64.89C45.0682 64.9767 45.0649 65.0633 45.0582 65.15C45.0515 65.23 45.0482 65.3067 45.0482 65.38L48.1582 60.68H48.8582V66H48.3182V62.29C48.3182 62.19 48.3182 62.08 48.3182 61.96C48.3182 61.84 48.3215 61.72 48.3282 61.6C48.3349 61.48 48.3382 61.3767 48.3382 61.29L45.2282 66H44.5382V60.68H45.0782V64.39ZM51.9022 63.27L50.0522 60.68H50.7122L52.2422 62.88L53.7822 60.68H54.4322L52.5922 63.27L54.5422 66H53.8822L52.2422 63.66L50.6122 66H49.9622L51.9022 63.27ZM59.5089 60.58C59.8822 60.58 60.2022 60.6367 60.4689 60.75C60.7356 60.8567 60.9389 61.0133 61.0789 61.22C61.2189 61.42 61.2889 61.6667 61.2889 61.96C61.2889 62.2667 61.2056 62.52 61.0389 62.72C60.8722 62.92 60.6389 63.0633 60.3389 63.15V63.17C60.5789 63.23 60.7822 63.32 60.9489 63.44C61.1222 63.56 61.2522 63.71 61.3389 63.89C61.4322 64.0633 61.4789 64.27 61.4789 64.51C61.4789 64.83 61.3956 65.11 61.2289 65.35C61.0689 65.59 60.8322 65.7767 60.5189 65.91C60.2122 66.0367 59.8389 66.1 59.3989 66.1C59.1589 66.1 58.9322 66.0833 58.7189 66.05C58.5056 66.0233 58.3122 65.9833 58.1389 65.93C57.9722 65.8767 57.8256 65.8167 57.6989 65.75V65.21C57.9389 65.33 58.1989 65.43 58.4789 65.51C58.7589 65.5833 59.0622 65.62 59.3889 65.62C59.6822 65.62 59.9422 65.58 60.1689 65.5C60.4022 65.4133 60.5822 65.2867 60.7089 65.12C60.8422 64.9533 60.9089 64.74 60.9089 64.48C60.9089 64.2333 60.8489 64.0333 60.7289 63.88C60.6089 63.7267 60.4322 63.6167 60.1989 63.55C59.9722 63.4767 59.6856 63.44 59.3389 63.44H58.6289V62.96H59.2689C59.7156 62.96 60.0722 62.8833 60.3389 62.73C60.6056 62.5767 60.7389 62.33 60.7389 61.99C60.7389 61.69 60.6289 61.4633 60.4089 61.31C60.1956 61.15 59.8856 61.07 59.4789 61.07C59.1922 61.07 58.9356 61.1033 58.7089 61.17C58.4822 61.23 58.2456 61.3167 57.9989 61.43L57.7989 60.96C58.0522 60.84 58.3156 60.7467 58.5889 60.68C58.8689 60.6133 59.1756 60.58 59.5089 60.58ZM64.7288 60.59C65.3288 60.59 65.7754 60.7367 66.0688 61.03C66.3621 61.3233 66.5088 61.79 66.5088 62.43V66H66.0788L65.9788 65.1H65.9488C65.8221 65.3 65.6754 65.4767 65.5088 65.63C65.3488 65.7767 65.1521 65.8933 64.9188 65.98C64.6921 66.06 64.4121 66.1 64.0788 66.1C63.7454 66.1 63.4554 66.0433 63.2088 65.93C62.9621 65.81 62.7721 65.64 62.6388 65.42C62.5054 65.2 62.4388 64.93 62.4388 64.61C62.4388 64.0833 62.6554 63.6833 63.0888 63.41C63.5221 63.13 64.1521 62.97 64.9788 62.93L65.9488 62.89V62.51C65.9488 61.9833 65.8421 61.6133 65.6288 61.4C65.4221 61.18 65.1121 61.07 64.6988 61.07C64.4254 61.07 64.1621 61.1067 63.9088 61.18C63.6621 61.2467 63.4121 61.3433 63.1588 61.47L62.9788 61.02C63.2254 60.8933 63.4988 60.79 63.7988 60.71C64.0988 60.63 64.4088 60.59 64.7288 60.59ZM65.0388 63.35C64.3654 63.3833 63.8621 63.5033 63.5288 63.71C63.1954 63.91 63.0288 64.2133 63.0288 64.62C63.0288 64.9467 63.1321 65.1967 63.3388 65.37C63.5454 65.5367 63.8254 65.62 64.1788 65.62C64.7454 65.62 65.1788 65.4633 65.4788 65.15C65.7854 64.8367 65.9421 64.3967 65.9488 63.83V63.31L65.0388 63.35ZM71.1501 60.68H71.8001L69.4201 63.26L71.9501 66H71.2601L68.7801 63.31V66H68.2101V60.68H68.7801V63.27L71.1501 60.68ZM74.8166 60.59C75.4166 60.59 75.8633 60.7367 76.1566 61.03C76.45 61.3233 76.5966 61.79 76.5966 62.43V66H76.1666L76.0666 65.1H76.0366C75.91 65.3 75.7633 65.4767 75.5966 65.63C75.4366 65.7767 75.24 65.8933 75.0066 65.98C74.78 66.06 74.5 66.1 74.1666 66.1C73.8333 66.1 73.5433 66.0433 73.2966 65.93C73.05 65.81 72.86 65.64 72.7266 65.42C72.5933 65.2 72.5266 64.93 72.5266 64.61C72.5266 64.0833 72.7433 63.6833 73.1766 63.41C73.61 63.13 74.24 62.97 75.0666 62.93L76.0366 62.89V62.51C76.0366 61.9833 75.93 61.6133 75.7166 61.4C75.51 61.18 75.2 61.07 74.7866 61.07C74.5133 61.07 74.25 61.1067 73.9966 61.18C73.75 61.2467 73.5 61.3433 73.2466 61.47L73.0666 61.02C73.3133 60.8933 73.5866 60.79 73.8866 60.71C74.1866 60.63 74.4966 60.59 74.8166 60.59ZM75.1266 63.35C74.4533 63.3833 73.95 63.5033 73.6166 63.71C73.2833 63.91 73.1166 64.2133 73.1166 64.62C73.1166 64.9467 73.22 65.1967 73.4266 65.37C73.6333 65.5367 73.9133 65.62 74.2666 65.62C74.8333 65.62 75.2666 65.4633 75.5666 65.15C75.8733 64.8367 76.03 64.3967 76.0366 63.83V63.31L75.1266 63.35ZM79.548 60.58C79.9213 60.58 80.2413 60.6367 80.508 60.75C80.7746 60.8567 80.978 61.0133 81.118 61.22C81.258 61.42 81.328 61.6667 81.328 61.96C81.328 62.2667 81.2446 62.52 81.078 62.72C80.9113 62.92 80.678 63.0633 80.378 63.15V63.17C80.618 63.23 80.8213 63.32 80.988 63.44C81.1613 63.56 81.2913 63.71 81.378 63.89C81.4713 64.0633 81.518 64.27 81.518 64.51C81.518 64.83 81.4346 65.11 81.268 65.35C81.108 65.59 80.8713 65.7767 80.558 65.91C80.2513 66.0367 79.878 66.1 79.438 66.1C79.198 66.1 78.9713 66.0833 78.758 66.05C78.5446 66.0233 78.3513 65.9833 78.178 65.93C78.0113 65.8767 77.8646 65.8167 77.738 65.75V65.21C77.978 65.33 78.238 65.43 78.518 65.51C78.798 65.5833 79.1013 65.62 79.428 65.62C79.7213 65.62 79.9813 65.58 80.208 65.5C80.4413 65.4133 80.6213 65.2867 80.748 65.12C80.8813 64.9533 80.948 64.74 80.948 64.48C80.948 64.2333 80.888 64.0333 80.768 63.88C80.648 63.7267 80.4713 63.6167 80.238 63.55C80.0113 63.4767 79.7246 63.44 79.378 63.44H78.668V62.96H79.308C79.7546 62.96 80.1113 62.8833 80.378 62.73C80.6446 62.5767 80.778 62.33 80.778 61.99C80.778 61.69 80.668 61.4633 80.448 61.31C80.2346 61.15 79.9246 61.07 79.518 61.07C79.2313 61.07 78.9746 61.1033 78.748 61.17C78.5213 61.23 78.2846 61.3167 78.038 61.43L77.838 60.96C78.0913 60.84 78.3546 60.7467 78.628 60.68C78.908 60.6133 79.2146 60.58 79.548 60.58ZM87.3378 63.34C87.3378 63.7533 87.2845 64.13 87.1778 64.47C87.0778 64.8033 86.9245 65.0933 86.7178 65.34C86.5178 65.58 86.2678 65.7667 85.9678 65.9C85.6678 66.0333 85.3245 66.1 84.9378 66.1C84.5711 66.1 84.2411 66.0367 83.9478 65.91C83.6611 65.7767 83.4145 65.59 83.2078 65.35C83.0011 65.1033 82.8445 64.81 82.7378 64.47C82.6311 64.13 82.5778 63.7533 82.5778 63.34C82.5778 62.76 82.6711 62.2667 82.8578 61.86C83.0511 61.4467 83.3278 61.13 83.6878 60.91C84.0545 60.69 84.4878 60.58 84.9878 60.58C85.4945 60.58 85.9211 60.6967 86.2678 60.93C86.6211 61.1567 86.8878 61.4767 87.0678 61.89C87.2478 62.3033 87.3378 62.7867 87.3378 63.34ZM83.1678 63.34C83.1678 63.7933 83.2311 64.1933 83.3578 64.54C83.4845 64.88 83.6811 65.1433 83.9478 65.33C84.2145 65.5167 84.5478 65.61 84.9478 65.61C85.3611 65.61 85.7011 65.5167 85.9678 65.33C86.2345 65.1367 86.4311 64.87 86.5578 64.53C86.6845 64.1833 86.7478 63.7867 86.7478 63.34C86.7478 62.8933 86.6878 62.5 86.5678 62.16C86.4478 61.82 86.2578 61.5533 85.9978 61.36C85.7378 61.1667 85.3978 61.07 84.9778 61.07C84.3711 61.07 83.9178 61.27 83.6178 61.67C83.3178 62.07 83.1678 62.6267 83.1678 63.34ZM92.8263 61.98C92.8263 62.3133 92.7363 62.5767 92.5563 62.77C92.3763 62.9633 92.1396 63.0967 91.8463 63.17V63.2C92.1929 63.2533 92.4763 63.3833 92.6963 63.59C92.9163 63.79 93.0263 64.0867 93.0263 64.48C93.0263 64.7133 92.9863 64.9233 92.9062 65.11C92.8263 65.2967 92.7063 65.4567 92.5463 65.59C92.3863 65.7233 92.1829 65.8267 91.9363 65.9C91.6896 65.9667 91.3963 66 91.0563 66H88.7863V60.68H91.0063C91.3996 60.68 91.7296 60.73 91.9963 60.83C92.2696 60.9233 92.4763 61.0667 92.6163 61.26C92.7563 61.4533 92.8263 61.6933 92.8263 61.98ZM92.4363 64.48C92.4363 64.1133 92.3096 63.85 92.0563 63.69C91.8096 63.53 91.4363 63.45 90.9363 63.45H89.3563V65.52H90.9763C91.4629 65.52 91.8263 65.4367 92.0663 65.27C92.3129 65.1033 92.4363 64.84 92.4363 64.48ZM92.2463 62.04C92.2463 61.76 92.1496 61.5467 91.9563 61.4C91.7629 61.2467 91.4329 61.17 90.9663 61.17H89.3563V62.96H90.8963C91.3563 62.96 91.6963 62.8833 91.9163 62.73C92.1363 62.5767 92.2463 62.3467 92.2463 62.04Z" fill="#7A769D"/>
<rect x="0.5" y="0.5" width="327" height="85" rx="19.5" stroke="#EDEDFF"/>
</svg>
