<svg width="328" height="86" viewBox="0 0 328 86" fill="none" xmlns="http://www.w3.org/2000/svg">
<rect x="0.5" y="0.5" width="327" height="85" rx="19.5" fill="white"/>
<path d="M261.875 42.75H278.25V45.0625H261.875V42.75Z" fill="#3CE682" stroke="white" stroke-width="0.5"/>
<path d="M259.062 35.7188H272.625V38.0312H259.062V35.7188Z" fill="#3CE682" stroke="white" stroke-width="0.5"/>
<path d="M297.844 43.4507L297.844 43.4509C297.906 43.5947 297.938 43.7496 297.938 43.9062V43.9062V53.75C297.938 54.0567 297.816 54.3508 297.599 54.5676C297.382 54.7844 297.088 54.9062 296.781 54.9062H293.769H293.575L293.527 55.0948C293.235 56.2478 292.566 57.2704 291.627 58.0009C290.689 58.7314 289.533 59.128 288.344 59.128C287.154 59.128 285.999 58.7314 285.06 58.0009C284.121 57.2704 283.453 56.2478 283.161 55.0948L283.113 54.9062H282.919H274.082H273.888L273.84 55.0938C273.513 56.3604 272.735 57.4644 271.652 58.1986C270.569 58.9329 269.256 59.247 267.958 59.0822C266.66 58.9173 265.467 58.2848 264.602 57.3032C263.737 56.3216 263.26 55.0582 263.26 53.75C263.26 52.4418 263.737 51.1784 264.602 50.1968C265.467 49.2152 266.66 48.5827 267.958 48.4178C269.256 48.253 270.569 48.5671 271.652 49.3014C272.735 50.0356 273.513 51.1396 273.84 52.4062L273.888 52.5938H274.082H282.919H283.112L283.16 52.4069C283.339 51.7219 283.652 51.079 284.08 50.5154C284.509 49.9518 285.045 49.4786 285.657 49.1231L285.781 49.0508V48.9069V31.25V31H285.531H264.688V28.6875H286.938C287.244 28.6875 287.538 28.8093 287.755 29.0262C287.972 29.243 288.094 29.5371 288.094 29.8438V32.6562V32.9062H288.344H292.563H292.563C292.789 32.9061 293.01 32.9725 293.199 33.097C293.388 33.2215 293.536 33.3988 293.625 33.6068L293.625 33.6069L297.844 43.4507ZM268.656 56.8125H268.657C269.468 56.8117 270.247 56.4888 270.821 55.9147C271.395 55.3406 271.718 54.5622 271.719 53.7502V53.75C271.719 53.1443 271.539 52.5522 271.203 52.0486C270.866 51.5449 270.388 51.1524 269.828 50.9206C269.269 50.6888 268.653 50.6282 268.059 50.7463C267.465 50.8645 266.919 51.1562 266.491 51.5845C266.063 52.0128 265.771 52.5585 265.653 53.1525C265.535 53.7466 265.595 54.3624 265.827 54.922C266.059 55.4816 266.451 55.9599 266.955 56.2964L267.094 56.0885L266.955 56.2964C267.459 56.6329 268.051 56.8125 268.656 56.8125ZM288.344 35.2188H288.094V35.4688V42.5V42.75H288.344H294.649H295.029L294.879 42.4015L291.864 35.3702L291.799 35.2188H291.634H288.344ZM291.406 53.7502V53.75C291.406 53.1443 291.227 52.5522 290.89 52.0486C290.554 51.5449 290.075 51.1524 289.516 50.9206C288.956 50.6888 288.34 50.6282 287.746 50.7463C287.152 50.8645 286.607 51.1562 286.178 51.5845C285.75 52.0128 285.458 52.5585 285.34 53.1525C285.222 53.7466 285.283 54.3624 285.514 54.922C285.746 55.4816 286.139 55.9599 286.642 56.2964C287.146 56.6329 287.738 56.8125 288.344 56.8125H288.344C289.156 56.8117 289.934 56.4888 290.509 55.9147C291.083 55.3406 291.406 54.5622 291.406 53.7502ZM295.375 52.5938H295.625V52.3438V45.3125V45.0625H295.375H288.344H288.094V45.3125V48.125V48.3743L288.343 48.375C289.532 48.3783 290.685 48.7759 291.623 49.5054C292.561 50.2349 293.231 51.2551 293.527 52.406L293.575 52.5938H293.769H295.375Z" fill="#4839C3" stroke="white" stroke-width="0.5"/>
<path d="M33.184 22.576V32.496H34.576V37.104H32.88V34H25.792V37.104H24.08V32.496H24.928C25.2693 31.856 25.5893 31.152 25.888 30.384C26.1973 29.6053 26.4693 28.7893 26.704 27.936C26.9493 27.072 27.1467 26.192 27.296 25.296C27.456 24.3893 27.568 23.4827 27.632 22.576H33.184ZM29.104 24.08C29.0613 24.688 28.9707 25.36 28.832 26.096C28.6933 26.8213 28.5173 27.568 28.304 28.336C28.0907 29.104 27.856 29.8507 27.6 30.576C27.3547 31.2907 27.0827 31.9307 26.784 32.496H31.424V24.08H29.104ZM43.3546 29.68C43.3546 30.3947 43.264 31.0293 43.0826 31.584C42.9013 32.1387 42.64 32.608 42.2986 32.992C41.968 33.376 41.5626 33.6693 41.0826 33.872C40.6026 34.064 40.064 34.16 39.4666 34.16C38.9226 34.16 38.416 34.064 37.9466 33.872C37.4773 33.6693 37.072 33.376 36.7306 32.992C36.3893 32.608 36.1226 32.1387 35.9306 31.584C35.7493 31.0293 35.6586 30.3893 35.6586 29.664C35.6586 28.7147 35.8133 27.9093 36.1226 27.248C36.432 26.5867 36.8746 26.0853 37.4506 25.744C38.0373 25.392 38.7306 25.216 39.5306 25.216C40.2773 25.216 40.9386 25.392 41.5146 25.744C42.0906 26.0853 42.5386 26.5867 42.8586 27.248C43.1893 27.9093 43.3546 28.72 43.3546 29.68ZM37.4506 29.68C37.4506 30.32 37.52 30.8747 37.6586 31.344C37.808 31.8027 38.032 32.1547 38.3306 32.4C38.64 32.6453 39.0293 32.768 39.4986 32.768C39.9786 32.768 40.368 32.6453 40.6666 32.4C40.976 32.1547 41.2 31.8027 41.3386 31.344C41.488 30.8747 41.5626 30.32 41.5626 29.68C41.5626 29.0187 41.488 28.464 41.3386 28.016C41.1893 27.568 40.9653 27.2267 40.6666 26.992C40.368 26.7467 39.9733 26.624 39.4826 26.624C38.768 26.624 38.2506 26.8907 37.9306 27.424C37.6106 27.9573 37.4506 28.7093 37.4506 29.68ZM48.6694 34.16C47.912 34.16 47.2454 34.0053 46.6694 33.696C46.104 33.3867 45.6614 32.9067 45.3414 32.256C45.032 31.5947 44.8774 30.7573 44.8774 29.744C44.8774 28.6773 45.048 27.8133 45.3894 27.152C45.7307 26.4907 46.1947 26.0053 46.7814 25.696C47.368 25.376 48.04 25.216 48.7974 25.216C49.2454 25.216 49.672 25.2693 50.0774 25.376C50.4934 25.472 50.8347 25.584 51.1014 25.712L50.5734 27.072C50.3067 26.9653 50.0187 26.8693 49.7094 26.784C49.4 26.6987 49.1067 26.656 48.8294 26.656C48.3387 26.656 47.9334 26.7733 47.6134 27.008C47.304 27.232 47.0694 27.5733 46.9094 28.032C46.7494 28.48 46.6694 29.0453 46.6694 29.728C46.6694 30.3787 46.7494 30.928 46.9094 31.376C47.0694 31.824 47.304 32.1653 47.6134 32.4C47.9334 32.624 48.3174 32.736 48.7654 32.736C49.2027 32.736 49.592 32.6827 49.9334 32.576C50.2854 32.4693 50.6107 32.3307 50.9094 32.16V33.632C50.6107 33.8133 50.2854 33.9467 49.9334 34.032C49.5814 34.1173 49.16 34.16 48.6694 34.16ZM58.9065 26.736H56.2345V34H54.5225V26.736H51.8825V25.376H58.9065V26.736ZM63.73 25.216C64.7433 25.216 65.506 25.456 66.018 25.936C66.5407 26.4053 66.802 27.1467 66.802 28.16V34H65.57L65.234 32.8H65.17C64.9247 33.1093 64.6793 33.3653 64.434 33.568C64.1993 33.7707 63.922 33.92 63.602 34.016C63.2927 34.112 62.9087 34.16 62.45 34.16C61.97 34.16 61.538 34.0693 61.154 33.888C60.77 33.696 60.466 33.408 60.242 33.024C60.018 32.6293 59.906 32.1387 59.906 31.552C59.906 30.6773 60.2153 30.0107 60.834 29.552C61.4633 29.0933 62.418 28.8427 63.698 28.8L65.074 28.752V28.272C65.074 27.632 64.9407 27.184 64.674 26.928C64.418 26.672 64.0553 26.544 63.586 26.544C63.1913 26.544 62.802 26.608 62.418 26.736C62.034 26.864 61.6607 27.0187 61.298 27.2L60.77 25.968C61.1647 25.7547 61.6127 25.5787 62.114 25.44C62.626 25.2907 63.1647 25.216 63.73 25.216ZM64.034 29.888C63.1593 29.9307 62.5513 30.096 62.21 30.384C61.8687 30.6613 61.698 31.056 61.698 31.568C61.698 32.016 61.8153 32.3413 62.05 32.544C62.2953 32.7467 62.61 32.848 62.994 32.848C63.5807 32.848 64.0713 32.6613 64.466 32.288C64.8713 31.9147 65.074 31.3547 65.074 30.608V29.856L64.034 29.888ZM76.0008 27.568C76.0008 28.0907 75.8568 28.5067 75.5688 28.816C75.2808 29.1147 74.8861 29.3173 74.3848 29.424V29.488C74.9181 29.5627 75.3608 29.76 75.7128 30.08C76.0754 30.3893 76.2568 30.848 76.2568 31.456C76.2568 31.8293 76.1928 32.1707 76.0648 32.48C75.9474 32.7893 75.7501 33.0613 75.4728 33.296C75.2061 33.52 74.8541 33.696 74.4168 33.824C73.9794 33.9413 73.4514 34 72.8328 34H69.1848V25.376H72.8328C73.4514 25.376 74.0008 25.4453 74.4808 25.584C74.9608 25.7227 75.3341 25.952 75.6008 26.272C75.8674 26.592 76.0008 27.024 76.0008 27.568ZM74.4808 31.424C74.4808 30.976 74.3261 30.656 74.0168 30.464C73.7181 30.2613 73.2701 30.16 72.6727 30.16H70.9128V32.72H72.6888C73.2648 32.72 73.7074 32.624 74.0168 32.432C74.3261 32.2293 74.4808 31.8933 74.4808 31.424ZM74.2568 27.76C74.2568 27.3867 74.1341 27.1147 73.8888 26.944C73.6541 26.7733 73.2754 26.688 72.7528 26.688H70.9128V28.864H72.5128C73.0888 28.864 73.5208 28.7787 73.8088 28.608C74.1074 28.4267 74.2568 28.144 74.2568 27.76ZM83.1623 25.376H85.0663L81.7223 29.52L85.3542 34H83.3543L79.8503 29.632V34H78.1223V25.376H79.8503V29.568L83.1623 25.376ZM89.9331 25.216C90.9465 25.216 91.7091 25.456 92.2211 25.936C92.7438 26.4053 93.0051 27.1467 93.0051 28.16V34H91.7731L91.4371 32.8H91.3731C91.1278 33.1093 90.8825 33.3653 90.6371 33.568C90.4025 33.7707 90.1251 33.92 89.8051 34.016C89.4958 34.112 89.1118 34.16 88.6531 34.16C88.1731 34.16 87.7411 34.0693 87.3571 33.888C86.9731 33.696 86.6691 33.408 86.4451 33.024C86.2211 32.6293 86.1091 32.1387 86.1091 31.552C86.1091 30.6773 86.4185 30.0107 87.0371 29.552C87.6665 29.0933 88.6211 28.8427 89.9011 28.8L91.2771 28.752V28.272C91.2771 27.632 91.1438 27.184 90.8771 26.928C90.6211 26.672 90.2585 26.544 89.7891 26.544C89.3945 26.544 89.0051 26.608 88.6211 26.736C88.2371 26.864 87.8638 27.0187 87.5011 27.2L86.9731 25.968C87.3678 25.7547 87.8158 25.5787 88.3171 25.44C88.8291 25.2907 89.3678 25.216 89.9331 25.216ZM90.2371 29.888C89.3625 29.9307 88.7545 30.096 88.4131 30.384C88.0718 30.6613 87.9011 31.056 87.9011 31.568C87.9011 32.016 88.0185 32.3413 88.2531 32.544C88.4985 32.7467 88.8131 32.848 89.1971 32.848C89.7838 32.848 90.2745 32.6613 90.6691 32.288C91.0745 31.9147 91.2771 31.3547 91.2771 30.608V29.856L90.2371 29.888ZM100.926 30.08C100.926 30.208 100.921 30.3733 100.91 30.576C100.899 30.7787 100.889 30.992 100.878 31.216C100.867 31.4293 100.857 31.632 100.846 31.824C100.835 32.0053 100.825 32.1493 100.814 32.256L104.862 25.376H106.91V34H105.294V29.408C105.294 29.2053 105.299 28.9547 105.31 28.656C105.321 28.3573 105.331 28.0693 105.342 27.792C105.353 27.504 105.363 27.2853 105.374 27.136L101.358 34H99.2941V25.376H100.926V30.08ZM120.511 29.68C120.511 30.3947 120.42 31.0293 120.239 31.584C120.058 32.1387 119.796 32.608 119.455 32.992C119.124 33.376 118.719 33.6693 118.239 33.872C117.759 34.064 117.22 34.16 116.623 34.16C116.079 34.16 115.572 34.064 115.103 33.872C114.634 33.6693 114.228 33.376 113.887 32.992C113.546 32.608 113.279 32.1387 113.087 31.584C112.906 31.0293 112.815 30.3893 112.815 29.664C112.815 28.7147 112.97 27.9093 113.279 27.248C113.588 26.5867 114.031 26.0853 114.607 25.744C115.194 25.392 115.887 25.216 116.687 25.216C117.434 25.216 118.095 25.392 118.671 25.744C119.247 26.0853 119.695 26.5867 120.015 27.248C120.346 27.9093 120.511 28.72 120.511 29.68ZM114.607 29.68C114.607 30.32 114.676 30.8747 114.815 31.344C114.964 31.8027 115.188 32.1547 115.487 32.4C115.796 32.6453 116.186 32.768 116.655 32.768C117.135 32.768 117.524 32.6453 117.823 32.4C118.132 32.1547 118.356 31.8027 118.495 31.344C118.644 30.8747 118.719 30.32 118.719 29.68C118.719 29.0187 118.644 28.464 118.495 28.016C118.346 27.568 118.122 27.2267 117.823 26.992C117.524 26.7467 117.13 26.624 116.639 26.624C115.924 26.624 115.407 26.8907 115.087 27.424C114.767 27.9573 114.607 28.7093 114.607 29.68ZM129.586 25.376V34H127.842V26.752H124.21V34H122.482V25.376H129.586ZM138.733 34H136.973V26.736H134.765C134.658 28.0587 134.53 29.1947 134.381 30.144C134.232 31.0827 134.04 31.8453 133.805 32.432C133.581 33.0187 133.298 33.4507 132.957 33.728C132.626 33.9947 132.232 34.128 131.773 34.128C131.613 34.128 131.453 34.112 131.293 34.08C131.133 34.0587 130.994 34.0213 130.877 33.968V32.672C130.962 32.6933 131.048 32.7147 131.133 32.736C131.218 32.7467 131.304 32.752 131.389 32.752C131.581 32.752 131.757 32.6667 131.917 32.496C132.077 32.3253 132.221 32.0587 132.349 31.696C132.488 31.3333 132.61 30.864 132.717 30.288C132.834 29.7013 132.936 29.0027 133.021 28.192C133.106 27.3813 133.181 26.4427 133.245 25.376H138.733V34ZM144.418 25.216C145.431 25.216 146.194 25.456 146.706 25.936C147.228 26.4053 147.49 27.1467 147.49 28.16V34H146.258L145.922 32.8H145.858C145.612 33.1093 145.367 33.3653 145.122 33.568C144.887 33.7707 144.61 33.92 144.29 34.016C143.98 34.112 143.596 34.16 143.138 34.16C142.658 34.16 142.226 34.0693 141.842 33.888C141.458 33.696 141.154 33.408 140.93 33.024C140.706 32.6293 140.594 32.1387 140.594 31.552C140.594 30.6773 140.903 30.0107 141.522 29.552C142.151 29.0933 143.106 28.8427 144.386 28.8L145.762 28.752V28.272C145.762 27.632 145.628 27.184 145.362 26.928C145.106 26.672 144.743 26.544 144.274 26.544C143.879 26.544 143.49 26.608 143.106 26.736C142.722 26.864 142.348 27.0187 141.986 27.2L141.458 25.968C141.852 25.7547 142.3 25.5787 142.802 25.44C143.314 25.2907 143.852 25.216 144.418 25.216ZM144.722 29.888C143.847 29.9307 143.239 30.096 142.898 30.384C142.556 30.6613 142.386 31.056 142.386 31.568C142.386 32.016 142.503 32.3413 142.738 32.544C142.983 32.7467 143.298 32.848 143.682 32.848C144.268 32.848 144.759 32.6613 145.154 32.288C145.559 31.9147 145.762 31.3547 145.762 30.608V29.856L144.722 29.888ZM156 26.736H153.328V34H151.616V26.736H148.976V25.376H156V26.736ZM160.824 25.216C161.837 25.216 162.6 25.456 163.112 25.936C163.634 26.4053 163.896 27.1467 163.896 28.16V34H162.664L162.328 32.8H162.264C162.018 33.1093 161.773 33.3653 161.528 33.568C161.293 33.7707 161.016 33.92 160.696 34.016C160.386 34.112 160.002 34.16 159.544 34.16C159.064 34.16 158.632 34.0693 158.248 33.888C157.864 33.696 157.56 33.408 157.336 33.024C157.112 32.6293 157 32.1387 157 31.552C157 30.6773 157.309 30.0107 157.928 29.552C158.557 29.0933 159.512 28.8427 160.792 28.8L162.168 28.752V28.272C162.168 27.632 162.034 27.184 161.768 26.928C161.512 26.672 161.149 26.544 160.68 26.544C160.285 26.544 159.896 26.608 159.512 26.736C159.128 26.864 158.754 27.0187 158.392 27.2L157.864 25.968C158.258 25.7547 158.706 25.5787 159.208 25.44C159.72 25.2907 160.258 25.216 160.824 25.216ZM161.128 29.888C160.253 29.9307 159.645 30.096 159.304 30.384C158.962 30.6613 158.792 31.056 158.792 31.568C158.792 32.016 158.909 32.3413 159.144 32.544C159.389 32.7467 159.704 32.848 160.088 32.848C160.674 32.848 161.165 32.6613 161.56 32.288C161.965 31.9147 162.168 31.3547 162.168 30.608V29.856L161.128 29.888Z" fill="#383553"/>
<path d="M31.05 48.42C31.05 48.9667 30.98 49.4633 30.84 49.91C30.7067 50.3567 30.5067 50.7467 30.24 51.08C29.9733 51.4067 29.6367 51.66 29.23 51.84C28.83 52.0133 28.3633 52.1 27.83 52.1C27.29 52.1 26.82 52.01 26.42 51.83C26.02 51.65 25.6867 51.3967 25.42 51.07C25.1533 50.7433 24.9533 50.3567 24.82 49.91C24.6867 49.4567 24.62 48.9567 24.62 48.41C24.62 47.6833 24.74 47.0467 24.98 46.5C25.2267 45.9533 25.59 45.5267 26.07 45.22C26.5567 44.9067 27.1567 44.75 27.87 44.75C28.5567 44.75 29.1333 44.9 29.6 45.2C30.0733 45.4933 30.4333 45.9133 30.68 46.46C30.9267 47.0067 31.05 47.66 31.05 48.42ZM25.23 48.41C25.23 49.05 25.3233 49.6067 25.51 50.08C25.6967 50.5533 25.9833 50.9233 26.37 51.19C26.7567 51.4567 27.2467 51.59 27.84 51.59C28.44 51.59 28.93 51.46 29.31 51.2C29.6967 50.9333 29.98 50.5633 30.16 50.09C30.3467 49.6167 30.44 49.06 30.44 48.42C30.44 47.4267 30.2233 46.6533 29.79 46.1C29.3633 45.5467 28.7233 45.27 27.87 45.27C27.27 45.27 26.7733 45.4 26.38 45.66C25.9933 45.92 25.7033 46.2867 25.51 46.76C25.3233 47.2333 25.23 47.7833 25.23 48.41ZM36.836 46.68V52H36.266V47.18H33.116V52H32.546V46.68H36.836ZM42.3507 52H41.7807V47.17H39.9807C39.914 48.01 39.8374 48.7367 39.7507 49.35C39.664 49.9633 39.5507 50.47 39.4107 50.87C39.2774 51.27 39.1074 51.5667 38.9007 51.76C38.7007 51.9533 38.4574 52.05 38.1707 52.05C38.084 52.05 38.0074 52.0467 37.9407 52.04C37.874 52.0333 37.8174 52.0233 37.7707 52.01V51.55C37.8107 51.5633 37.854 51.5733 37.9007 51.58C37.9474 51.5867 38.0074 51.59 38.0807 51.59C38.2407 51.59 38.384 51.5267 38.5107 51.4C38.644 51.2733 38.7607 51.0833 38.8607 50.83C38.9607 50.5767 39.0474 50.2567 39.1207 49.87C39.2007 49.4767 39.2674 49.0167 39.3207 48.49C39.3807 47.9567 39.434 47.3533 39.4807 46.68H42.3507V52ZM45.9885 46.59C46.5885 46.59 47.0352 46.7367 47.3285 47.03C47.6218 47.3233 47.7685 47.79 47.7685 48.43V52H47.3385L47.2385 51.1H47.2085C47.0818 51.3 46.9352 51.4767 46.7685 51.63C46.6085 51.7767 46.4118 51.8933 46.1785 51.98C45.9518 52.06 45.6718 52.1 45.3385 52.1C45.0052 52.1 44.7152 52.0433 44.4685 51.93C44.2218 51.81 44.0318 51.64 43.8985 51.42C43.7652 51.2 43.6985 50.93 43.6985 50.61C43.6985 50.0833 43.9152 49.6833 44.3485 49.41C44.7818 49.13 45.4118 48.97 46.2385 48.93L47.2085 48.89V48.51C47.2085 47.9833 47.1018 47.6133 46.8885 47.4C46.6818 47.18 46.3718 47.07 45.9585 47.07C45.6852 47.07 45.4218 47.1067 45.1685 47.18C44.9218 47.2467 44.6718 47.3433 44.4185 47.47L44.2385 47.02C44.4852 46.8933 44.7585 46.79 45.0585 46.71C45.3585 46.63 45.6685 46.59 45.9885 46.59ZM46.2985 49.35C45.6252 49.3833 45.1218 49.5033 44.7885 49.71C44.4552 49.91 44.2885 50.2133 44.2885 50.62C44.2885 50.9467 44.3918 51.1967 44.5985 51.37C44.8052 51.5367 45.0852 51.62 45.4385 51.62C46.0052 51.62 46.4385 51.4633 46.7385 51.15C47.0452 50.8367 47.2018 50.3967 47.2085 49.83V49.31L46.2985 49.35ZM52.9098 47.17H51.1198V52H50.5598V47.17H48.7798V46.68H52.9098V47.17ZM55.8713 46.59C56.4713 46.59 56.918 46.7367 57.2113 47.03C57.5047 47.3233 57.6513 47.79 57.6513 48.43V52H57.2213L57.1213 51.1H57.0913C56.9647 51.3 56.818 51.4767 56.6513 51.63C56.4913 51.7767 56.2947 51.8933 56.0613 51.98C55.8347 52.06 55.5547 52.1 55.2213 52.1C54.888 52.1 54.598 52.0433 54.3513 51.93C54.1047 51.81 53.9147 51.64 53.7813 51.42C53.648 51.2 53.5813 50.93 53.5813 50.61C53.5813 50.0833 53.798 49.6833 54.2313 49.41C54.6647 49.13 55.2947 48.97 56.1213 48.93L57.0913 48.89V48.51C57.0913 47.9833 56.9847 47.6133 56.7713 47.4C56.5647 47.18 56.2547 47.07 55.8413 47.07C55.568 47.07 55.3047 47.1067 55.0513 47.18C54.8047 47.2467 54.5547 47.3433 54.3013 47.47L54.1213 47.02C54.368 46.8933 54.6413 46.79 54.9413 46.71C55.2413 46.63 55.5513 46.59 55.8713 46.59ZM56.1813 49.35C55.508 49.3833 55.0047 49.5033 54.6713 49.71C54.338 49.91 54.1713 50.2133 54.1713 50.62C54.1713 50.9467 54.2747 51.1967 54.4813 51.37C54.688 51.5367 54.968 51.62 55.3213 51.62C55.888 51.62 56.3213 51.4633 56.6213 51.15C56.928 50.8367 57.0847 50.3967 57.0913 49.83V49.31L56.1813 49.35ZM65.3903 47.17H63.6003V52H63.0403V47.17H61.2603V46.68H65.3903V47.17ZM70.8241 49.34C70.8241 49.7533 70.7708 50.13 70.6641 50.47C70.5641 50.8033 70.4108 51.0933 70.2041 51.34C70.0041 51.58 69.7541 51.7667 69.4541 51.9C69.1541 52.0333 68.8108 52.1 68.4241 52.1C68.0575 52.1 67.7275 52.0367 67.4341 51.91C67.1475 51.7767 66.9008 51.59 66.6941 51.35C66.4875 51.1033 66.3308 50.81 66.2241 50.47C66.1175 50.13 66.0641 49.7533 66.0641 49.34C66.0641 48.76 66.1575 48.2667 66.3441 47.86C66.5375 47.4467 66.8141 47.13 67.1741 46.91C67.5408 46.69 67.9741 46.58 68.4741 46.58C68.9808 46.58 69.4075 46.6967 69.7541 46.93C70.1075 47.1567 70.3741 47.4767 70.5541 47.89C70.7341 48.3033 70.8241 48.7867 70.8241 49.34ZM66.6541 49.34C66.6541 49.7933 66.7175 50.1933 66.8441 50.54C66.9708 50.88 67.1675 51.1433 67.4341 51.33C67.7008 51.5167 68.0341 51.61 68.4341 51.61C68.8475 51.61 69.1875 51.5167 69.4541 51.33C69.7208 51.1367 69.9175 50.87 70.0441 50.53C70.1708 50.1833 70.2341 49.7867 70.2341 49.34C70.2341 48.8933 70.1741 48.5 70.0541 48.16C69.9341 47.82 69.7441 47.5533 69.4841 47.36C69.2241 47.1667 68.8841 47.07 68.4641 47.07C67.8575 47.07 67.4041 47.27 67.1041 47.67C66.8041 48.07 66.6541 48.6267 66.6541 49.34ZM76.3126 47.98C76.3126 48.3133 76.2226 48.5767 76.0426 48.77C75.8626 48.9633 75.6259 49.0967 75.3326 49.17V49.2C75.6792 49.2533 75.9626 49.3833 76.1826 49.59C76.4026 49.79 76.5126 50.0867 76.5126 50.48C76.5126 50.7133 76.4726 50.9233 76.3926 51.11C76.3126 51.2967 76.1926 51.4567 76.0326 51.59C75.8726 51.7233 75.6692 51.8267 75.4226 51.9C75.1759 51.9667 74.8826 52 74.5426 52H72.2726V46.68H74.4926C74.8859 46.68 75.2159 46.73 75.4826 46.83C75.7559 46.9233 75.9626 47.0667 76.1026 47.26C76.2426 47.4533 76.3126 47.6933 76.3126 47.98ZM75.9226 50.48C75.9226 50.1133 75.7959 49.85 75.5426 49.69C75.2959 49.53 74.9226 49.45 74.4226 49.45H72.8426V51.52H74.4626C74.9492 51.52 75.3126 51.4367 75.5526 51.27C75.7992 51.1033 75.9226 50.84 75.9226 50.48ZM75.7326 48.04C75.7326 47.76 75.6359 47.5467 75.4426 47.4C75.2492 47.2467 74.9192 47.17 74.4526 47.17H72.8426V48.96H74.3826C74.8426 48.96 75.1826 48.8833 75.4026 48.73C75.6226 48.5767 75.7326 48.3467 75.7326 48.04ZM79.8362 46.59C80.4362 46.59 80.8828 46.7367 81.1762 47.03C81.4695 47.3233 81.6162 47.79 81.6162 48.43V52H81.1862L81.0862 51.1H81.0562C80.9295 51.3 80.7828 51.4767 80.6162 51.63C80.4562 51.7767 80.2595 51.8933 80.0262 51.98C79.7995 52.06 79.5195 52.1 79.1862 52.1C78.8528 52.1 78.5628 52.0433 78.3162 51.93C78.0695 51.81 77.8795 51.64 77.7462 51.42C77.6128 51.2 77.5462 50.93 77.5462 50.61C77.5462 50.0833 77.7628 49.6833 78.1962 49.41C78.6295 49.13 79.2595 48.97 80.0862 48.93L81.0562 48.89V48.51C81.0562 47.9833 80.9495 47.6133 80.7362 47.4C80.5295 47.18 80.2195 47.07 79.8062 47.07C79.5328 47.07 79.2695 47.1067 79.0162 47.18C78.7695 47.2467 78.5195 47.3433 78.2662 47.47L78.0862 47.02C78.3328 46.8933 78.6062 46.79 78.9062 46.71C79.2062 46.63 79.5162 46.59 79.8362 46.59ZM80.1462 49.35C79.4728 49.3833 78.9695 49.5033 78.6362 49.71C78.3028 49.91 78.1362 50.2133 78.1362 50.62C78.1362 50.9467 78.2395 51.1967 78.4462 51.37C78.6528 51.5367 78.9328 51.62 79.2862 51.62C79.8528 51.62 80.2862 51.4633 80.5862 51.15C80.8928 50.8367 81.0495 50.3967 81.0562 49.83V49.31L80.1462 49.35ZM85.6975 46.58C86.3775 46.58 86.9075 46.81 87.2875 47.27C87.6742 47.73 87.8675 48.41 87.8675 49.31C87.8675 49.91 87.7775 50.42 87.5975 50.84C87.4175 51.2533 87.1608 51.5667 86.8275 51.78C86.5008 51.9933 86.1075 52.1 85.6475 52.1C85.3342 52.1 85.0608 52.0533 84.8275 51.96C84.5942 51.8667 84.4008 51.7433 84.2475 51.59C84.0942 51.4367 83.9742 51.2667 83.8875 51.08H83.8475C83.8608 51.2467 83.8708 51.43 83.8775 51.63C83.8842 51.8233 83.8875 52.0033 83.8875 52.17V54.36H83.3175V46.68H83.7875L83.8575 47.68H83.8875C83.9742 47.4867 84.0975 47.3067 84.2575 47.14C84.4175 46.9733 84.6142 46.84 84.8475 46.74C85.0875 46.6333 85.3708 46.58 85.6975 46.58ZM85.6175 47.07C85.2242 47.07 84.9008 47.1533 84.6475 47.32C84.3942 47.4867 84.2042 47.7333 84.0775 48.06C83.9508 48.38 83.8875 48.7767 83.8875 49.25V49.35C83.8875 49.85 83.9475 50.27 84.0675 50.61C84.1942 50.9433 84.3808 51.1933 84.6275 51.36C84.8808 51.5267 85.1975 51.61 85.5775 51.61C85.9508 51.61 86.2608 51.52 86.5075 51.34C86.7608 51.1533 86.9508 50.89 87.0775 50.55C87.2108 50.2033 87.2775 49.79 87.2775 49.31C87.2775 48.5833 87.1408 48.03 86.8675 47.65C86.5942 47.2633 86.1775 47.07 85.6175 47.07ZM93.7538 49.34C93.7538 49.7533 93.7005 50.13 93.5938 50.47C93.4938 50.8033 93.3405 51.0933 93.1338 51.34C92.9338 51.58 92.6838 51.7667 92.3838 51.9C92.0838 52.0333 91.7405 52.1 91.3538 52.1C90.9872 52.1 90.6572 52.0367 90.3638 51.91C90.0772 51.7767 89.8305 51.59 89.6238 51.35C89.4172 51.1033 89.2605 50.81 89.1538 50.47C89.0472 50.13 88.9938 49.7533 88.9938 49.34C88.9938 48.76 89.0872 48.2667 89.2738 47.86C89.4672 47.4467 89.7438 47.13 90.1038 46.91C90.4705 46.69 90.9038 46.58 91.4038 46.58C91.9105 46.58 92.3372 46.6967 92.6838 46.93C93.0372 47.1567 93.3038 47.4767 93.4838 47.89C93.6638 48.3033 93.7538 48.7867 93.7538 49.34ZM89.5838 49.34C89.5838 49.7933 89.6472 50.1933 89.7738 50.54C89.9005 50.88 90.0972 51.1433 90.3638 51.33C90.6305 51.5167 90.9638 51.61 91.3638 51.61C91.7772 51.61 92.1172 51.5167 92.3838 51.33C92.6505 51.1367 92.8472 50.87 92.9738 50.53C93.1005 50.1833 93.1638 49.7867 93.1638 49.34C93.1638 48.8933 93.1038 48.5 92.9838 48.16C92.8638 47.82 92.6738 47.5533 92.4138 47.36C92.1538 47.1667 91.8138 47.07 91.3938 47.07C90.7872 47.07 90.3338 47.27 90.0338 47.67C89.7338 48.07 89.5838 48.6267 89.5838 49.34ZM99.2423 47.98C99.2423 48.3133 99.1523 48.5767 98.9723 48.77C98.7923 48.9633 98.5556 49.0967 98.2623 49.17V49.2C98.6089 49.2533 98.8923 49.3833 99.1123 49.59C99.3323 49.79 99.4423 50.0867 99.4423 50.48C99.4423 50.7133 99.4023 50.9233 99.3223 51.11C99.2423 51.2967 99.1223 51.4567 98.9623 51.59C98.8023 51.7233 98.5989 51.8267 98.3523 51.9C98.1056 51.9667 97.8123 52 97.4723 52H95.2023V46.68H97.4223C97.8156 46.68 98.1456 46.73 98.4123 46.83C98.6856 46.9233 98.8923 47.0667 99.0323 47.26C99.1723 47.4533 99.2423 47.6933 99.2423 47.98ZM98.8523 50.48C98.8523 50.1133 98.7256 49.85 98.4723 49.69C98.2256 49.53 97.8523 49.45 97.3523 49.45H95.7723V51.52H97.3923C97.8789 51.52 98.2423 51.4367 98.4823 51.27C98.7289 51.1033 98.8523 50.84 98.8523 50.48ZM98.6623 48.04C98.6623 47.76 98.5656 47.5467 98.3723 47.4C98.1789 47.2467 97.8489 47.17 97.3823 47.17H95.7723V48.96H97.3123C97.7723 48.96 98.1123 48.8833 98.3323 48.73C98.5523 48.5767 98.6623 48.3467 98.6623 48.04ZM104.054 46.68V48.99H107.314V46.68H107.884V52H107.314V49.48H104.054V52H103.484V46.68H104.054ZM111.526 46.59C112.126 46.59 112.572 46.7367 112.866 47.03C113.159 47.3233 113.306 47.79 113.306 48.43V52H112.876L112.776 51.1H112.746C112.619 51.3 112.472 51.4767 112.306 51.63C112.146 51.7767 111.949 51.8933 111.716 51.98C111.489 52.06 111.209 52.1 110.876 52.1C110.542 52.1 110.252 52.0433 110.006 51.93C109.759 51.81 109.569 51.64 109.436 51.42C109.302 51.2 109.236 50.93 109.236 50.61C109.236 50.0833 109.452 49.6833 109.886 49.41C110.319 49.13 110.949 48.97 111.776 48.93L112.746 48.89V48.51C112.746 47.9833 112.639 47.6133 112.426 47.4C112.219 47.18 111.909 47.07 111.496 47.07C111.222 47.07 110.959 47.1067 110.706 47.18C110.459 47.2467 110.209 47.3433 109.956 47.47L109.776 47.02C110.022 46.8933 110.296 46.79 110.596 46.71C110.896 46.63 111.206 46.59 111.526 46.59ZM111.836 49.35C111.162 49.3833 110.659 49.5033 110.326 49.71C109.992 49.91 109.826 50.2133 109.826 50.62C109.826 50.9467 109.929 51.1967 110.136 51.37C110.342 51.5367 110.622 51.62 110.976 51.62C111.542 51.62 111.976 51.4633 112.276 51.15C112.582 50.8367 112.739 50.3967 112.746 49.83V49.31L111.836 49.35ZM118.757 52H118.187V47.17H116.387C116.32 48.01 116.244 48.7367 116.157 49.35C116.07 49.9633 115.957 50.47 115.817 50.87C115.684 51.27 115.514 51.5667 115.307 51.76C115.107 51.9533 114.864 52.05 114.577 52.05C114.49 52.05 114.414 52.0467 114.347 52.04C114.28 52.0333 114.224 52.0233 114.177 52.01V51.55C114.217 51.5633 114.26 51.5733 114.307 51.58C114.354 51.5867 114.414 51.59 114.487 51.59C114.647 51.59 114.79 51.5267 114.917 51.4C115.05 51.2733 115.167 51.0833 115.267 50.83C115.367 50.5767 115.454 50.2567 115.527 49.87C115.607 49.4767 115.674 49.0167 115.727 48.49C115.787 47.9567 115.84 47.3533 115.887 46.68H118.757V52ZM121.055 50.39C121.055 50.4567 121.055 50.5333 121.055 50.62C121.055 50.7067 121.051 50.7967 121.045 50.89C121.045 50.9767 121.041 51.0633 121.035 51.15C121.028 51.23 121.025 51.3067 121.025 51.38L124.135 46.68H124.835V52H124.295V48.29C124.295 48.19 124.295 48.08 124.295 47.96C124.295 47.84 124.298 47.72 124.305 47.6C124.311 47.48 124.315 47.3767 124.315 47.29L121.205 52H120.515V46.68H121.055V50.39ZM127.079 48.49C127.079 48.9167 127.182 49.2267 127.389 49.42C127.602 49.6133 127.915 49.71 128.329 49.71C128.682 49.71 129.002 49.6533 129.289 49.54C129.582 49.4267 129.865 49.2767 130.139 49.09V46.68H130.699V52H130.139V49.56C129.845 49.76 129.552 49.9167 129.259 50.03C128.972 50.1367 128.629 50.19 128.229 50.19C127.669 50.19 127.242 50.0467 126.949 49.76C126.655 49.4667 126.509 49.0633 126.509 48.55V46.68H127.079V48.49ZM133.028 46.68V48.99H136.288V46.68H136.858V52H136.288V49.48H133.028V52H132.458V46.68H133.028ZM138.62 52V46.68H139.19V48.91H140.92C141.347 48.91 141.697 48.97 141.97 49.09C142.244 49.2033 142.444 49.3733 142.57 49.6C142.704 49.82 142.77 50.0867 142.77 50.4C142.77 50.7333 142.7 51.02 142.56 51.26C142.427 51.5 142.217 51.6833 141.93 51.81C141.644 51.9367 141.277 52 140.83 52H138.62ZM140.77 51.52C141.25 51.52 141.61 51.4333 141.85 51.26C142.09 51.08 142.21 50.8 142.21 50.42C142.21 50.0667 142.097 49.81 141.87 49.65C141.644 49.4833 141.304 49.4 140.85 49.4H139.19V51.52H140.77ZM143.63 52V46.68H144.2V52H143.63ZM151.244 46.68V52H150.714V48.26C150.714 48.12 150.717 47.9833 150.724 47.85C150.731 47.71 150.737 47.5667 150.744 47.42H150.724L148.834 52H148.344L146.474 47.41H146.444C146.457 47.5567 146.464 47.7 146.464 47.84C146.464 47.98 146.464 48.13 146.464 48.29V52H145.944V46.68H146.714L148.584 51.3L150.474 46.68H151.244ZM153.399 50.39C153.399 50.4567 153.399 50.5333 153.399 50.62C153.399 50.7067 153.395 50.7967 153.389 50.89C153.389 50.9767 153.385 51.0633 153.379 51.15C153.372 51.23 153.369 51.3067 153.369 51.38L156.479 46.68H157.179V52H156.639V48.29C156.639 48.19 156.639 48.08 156.639 47.96C156.639 47.84 156.642 47.72 156.649 47.6C156.655 47.48 156.659 47.3767 156.659 47.29L153.549 52H152.859V46.68H153.399V50.39ZM162.08 50.39C162.08 50.4567 162.08 50.5333 162.08 50.62C162.08 50.7067 162.077 50.7967 162.07 50.89C162.07 50.9767 162.067 51.0633 162.06 51.15C162.053 51.23 162.05 51.3067 162.05 51.38L165.16 46.68H165.86V52H165.32V48.29C165.32 48.19 165.32 48.08 165.32 47.96C165.32 47.84 165.323 47.72 165.33 47.6C165.337 47.48 165.34 47.3767 165.34 47.29L162.23 52H161.54V46.68H162.08V50.39ZM25.79 66.1C25.5033 66.1 25.25 66.0733 25.03 66.02C24.81 65.9733 24.61 65.91 24.43 65.83V65.32C24.63 65.4 24.84 65.4667 25.06 65.52C25.2867 65.5733 25.5333 65.6 25.8 65.6C26.2333 65.6 26.5933 65.5167 26.88 65.35C27.1733 65.1767 27.3967 64.9333 27.55 64.62C27.71 64.3 27.8 63.9267 27.82 63.5H24.83V63.02H27.81C27.7833 62.3933 27.6133 61.9133 27.3 61.58C26.9933 61.2467 26.5267 61.08 25.9 61.08C25.7133 61.08 25.5033 61.1033 25.27 61.15C25.0433 61.19 24.8367 61.25 24.65 61.33L24.5 60.86C24.6933 60.7733 24.9133 60.7067 25.16 60.66C25.4067 60.6067 25.6567 60.58 25.91 60.58C26.43 60.58 26.8767 60.68 27.25 60.88C27.6233 61.0733 27.91 61.37 28.11 61.77C28.31 62.17 28.41 62.6767 28.41 63.29C28.41 63.8633 28.3067 64.3633 28.1 64.79C27.9 65.21 27.6067 65.5333 27.22 65.76C26.8333 65.9867 26.3567 66.1 25.79 66.1ZM33.5421 66H32.9721V61.17H31.1721C31.1054 62.01 31.0288 62.7367 30.9421 63.35C30.8554 63.9633 30.7421 64.47 30.6021 64.87C30.4688 65.27 30.2988 65.5667 30.0921 65.76C29.8921 65.9533 29.6488 66.05 29.3621 66.05C29.2754 66.05 29.1988 66.0467 29.1321 66.04C29.0654 66.0333 29.0088 66.0233 28.9621 66.01V65.55C29.0021 65.5633 29.0454 65.5733 29.0921 65.58C29.1388 65.5867 29.1988 65.59 29.2721 65.59C29.4321 65.59 29.5754 65.5267 29.7021 65.4C29.8354 65.2733 29.9521 65.0833 30.0521 64.83C30.1521 64.5767 30.2388 64.2567 30.3121 63.87C30.3921 63.4767 30.4588 63.0167 30.5121 62.49C30.5721 61.9567 30.6254 61.3533 30.6721 60.68H33.5421V66ZM37.3099 60.58C37.7699 60.58 38.1499 60.6867 38.4499 60.9C38.7566 61.1067 38.9866 61.3933 39.1399 61.76C39.2999 62.1267 39.3799 62.55 39.3799 63.03V63.41H35.5799C35.5799 64.1233 35.7433 64.6667 36.0699 65.04C36.4033 65.4133 36.8733 65.6 37.4799 65.6C37.8133 65.6 38.1033 65.5733 38.3499 65.52C38.5966 65.4667 38.8666 65.3733 39.1599 65.24V65.76C38.8933 65.88 38.6299 65.9667 38.3699 66.02C38.1099 66.0733 37.8066 66.1 37.4599 66.1C36.9333 66.1 36.4833 65.99 36.1099 65.77C35.7433 65.55 35.4633 65.2367 35.2699 64.83C35.0833 64.4167 34.9899 63.9367 34.9899 63.39C34.9899 62.8433 35.0799 62.36 35.2599 61.94C35.4399 61.52 35.7033 61.19 36.0499 60.95C36.3966 60.7033 36.8166 60.58 37.3099 60.58ZM37.3099 61.06C36.8166 61.06 36.4199 61.2233 36.1199 61.55C35.8199 61.87 35.6433 62.3333 35.5899 62.94H38.7899C38.7899 62.5667 38.7366 62.24 38.6299 61.96C38.5233 61.68 38.3599 61.46 38.1399 61.3C37.9266 61.14 37.6499 61.06 37.3099 61.06ZM43.7575 60.68H44.4075L42.0275 63.26L44.5575 66H43.8675L41.3875 63.31V66H40.8175V60.68H41.3875V63.27L43.7575 60.68ZM48.9841 61.17H47.1941V66H46.6341V61.17H44.8541V60.68H48.9841V61.17ZM52.4455 60.58C53.1255 60.58 53.6555 60.81 54.0355 61.27C54.4222 61.73 54.6155 62.41 54.6155 63.31C54.6155 63.91 54.5255 64.42 54.3455 64.84C54.1655 65.2533 53.9089 65.5667 53.5755 65.78C53.2489 65.9933 52.8555 66.1 52.3955 66.1C52.0822 66.1 51.8089 66.0533 51.5755 65.96C51.3422 65.8667 51.1489 65.7433 50.9955 65.59C50.8422 65.4367 50.7222 65.2667 50.6355 65.08H50.5955C50.6089 65.2467 50.6189 65.43 50.6255 65.63C50.6322 65.8233 50.6355 66.0033 50.6355 66.17V68.36H50.0655V60.68H50.5355L50.6055 61.68H50.6355C50.7222 61.4867 50.8455 61.3067 51.0055 61.14C51.1655 60.9733 51.3622 60.84 51.5955 60.74C51.8355 60.6333 52.1189 60.58 52.4455 60.58ZM52.3655 61.07C51.9722 61.07 51.6489 61.1533 51.3955 61.32C51.1422 61.4867 50.9522 61.7333 50.8255 62.06C50.6989 62.38 50.6355 62.7767 50.6355 63.25V63.35C50.6355 63.85 50.6955 64.27 50.8155 64.61C50.9422 64.9433 51.1289 65.1933 51.3755 65.36C51.6289 65.5267 51.9455 65.61 52.3255 65.61C52.6989 65.61 53.0089 65.52 53.2555 65.34C53.5089 65.1533 53.6989 64.89 53.8255 64.55C53.9589 64.2033 54.0255 63.79 54.0255 63.31C54.0255 62.5833 53.8889 62.03 53.6155 61.65C53.3422 61.2633 52.9255 61.07 52.3655 61.07ZM60.5019 63.34C60.5019 63.7533 60.4485 64.13 60.3419 64.47C60.2419 64.8033 60.0885 65.0933 59.8819 65.34C59.6819 65.58 59.4319 65.7667 59.1319 65.9C58.8319 66.0333 58.4885 66.1 58.1019 66.1C57.7352 66.1 57.4052 66.0367 57.1119 65.91C56.8252 65.7767 56.5785 65.59 56.3719 65.35C56.1652 65.1033 56.0085 64.81 55.9019 64.47C55.7952 64.13 55.7419 63.7533 55.7419 63.34C55.7419 62.76 55.8352 62.2667 56.0219 61.86C56.2152 61.4467 56.4919 61.13 56.8519 60.91C57.2185 60.69 57.6519 60.58 58.1519 60.58C58.6585 60.58 59.0852 60.6967 59.4319 60.93C59.7852 61.1567 60.0519 61.4767 60.2319 61.89C60.4119 62.3033 60.5019 62.7867 60.5019 63.34ZM56.3319 63.34C56.3319 63.7933 56.3952 64.1933 56.5219 64.54C56.6485 64.88 56.8452 65.1433 57.1119 65.33C57.3785 65.5167 57.7119 65.61 58.1119 65.61C58.5252 65.61 58.8652 65.5167 59.1319 65.33C59.3985 65.1367 59.5952 64.87 59.7219 64.53C59.8485 64.1833 59.9119 63.7867 59.9119 63.34C59.9119 62.8933 59.8519 62.5 59.7319 62.16C59.6119 61.82 59.4219 61.5533 59.1619 61.36C58.9019 61.1667 58.5619 61.07 58.1419 61.07C57.5352 61.07 57.0819 61.27 56.7819 61.67C56.4819 62.07 56.3319 62.6267 56.3319 63.34ZM62.5203 60.68V62.99H65.7803V60.68H66.3503V66H65.7803V63.48H62.5203V66H61.9503V60.68H62.5203ZM68.6824 60.68V62.99H71.9424V60.68H72.5124V66H71.9424V63.48H68.6824V66H68.1124V60.68H68.6824ZM74.2745 66V60.68H74.8445V62.91H76.5745C77.0012 62.91 77.3512 62.97 77.6245 63.09C77.8979 63.2033 78.0979 63.3733 78.2245 63.6C78.3579 63.82 78.4245 64.0867 78.4245 64.4C78.4245 64.7333 78.3545 65.02 78.2145 65.26C78.0812 65.5 77.8712 65.6833 77.5845 65.81C77.2979 65.9367 76.9312 66 76.4845 66H74.2745ZM76.4245 65.52C76.9045 65.52 77.2645 65.4333 77.5045 65.26C77.7445 65.08 77.8645 64.8 77.8645 64.42C77.8645 64.0667 77.7512 63.81 77.5245 63.65C77.2979 63.4833 76.9579 63.4 76.5045 63.4H74.8445V65.52H76.4245ZM79.2845 66V60.68H79.8545V66H79.2845ZM86.8983 60.68V66H86.3683V62.26C86.3683 62.12 86.3716 61.9833 86.3783 61.85C86.3849 61.71 86.3916 61.5667 86.3983 61.42H86.3783L84.4883 66H83.9983L82.1283 61.41H82.0983C82.1116 61.5567 82.1183 61.7 82.1183 61.84C82.1183 61.98 82.1183 62.13 82.1183 62.29V66H81.5983V60.68H82.3683L84.2383 65.3L86.1283 60.68H86.8983ZM89.0528 64.39C89.0528 64.4567 89.0528 64.5333 89.0528 64.62C89.0528 64.7067 89.0495 64.7967 89.0428 64.89C89.0428 64.9767 89.0395 65.0633 89.0328 65.15C89.0261 65.23 89.0228 65.3067 89.0228 65.38L92.1328 60.68H92.8328V66H92.2928V62.29C92.2928 62.19 92.2928 62.08 92.2928 61.96C92.2928 61.84 92.2961 61.72 92.3028 61.6C92.3095 61.48 92.3128 61.3767 92.3128 61.29L89.2028 66H88.5128V60.68H89.0528V64.39ZM100.134 60.68H100.784L98.4045 63.26L100.934 66H100.244L97.7645 63.31V66H97.1945V60.68H97.7645V63.27L100.134 60.68ZM106.176 63.34C106.176 63.7533 106.122 64.13 106.016 64.47C105.916 64.8033 105.762 65.0933 105.556 65.34C105.356 65.58 105.106 65.7667 104.806 65.9C104.506 66.0333 104.162 66.1 103.776 66.1C103.409 66.1 103.079 66.0367 102.786 65.91C102.499 65.7767 102.252 65.59 102.046 65.35C101.839 65.1033 101.682 64.81 101.576 64.47C101.469 64.13 101.416 63.7533 101.416 63.34C101.416 62.76 101.509 62.2667 101.696 61.86C101.889 61.4467 102.166 61.13 102.526 60.91C102.892 60.69 103.326 60.58 103.826 60.58C104.332 60.58 104.759 60.6967 105.106 60.93C105.459 61.1567 105.726 61.4767 105.906 61.89C106.086 62.3033 106.176 62.7867 106.176 63.34ZM102.006 63.34C102.006 63.7933 102.069 64.1933 102.196 64.54C102.322 64.88 102.519 65.1433 102.786 65.33C103.052 65.5167 103.386 65.61 103.786 65.61C104.199 65.61 104.539 65.5167 104.806 65.33C105.072 65.1367 105.269 64.87 105.396 64.53C105.522 64.1833 105.586 63.7867 105.586 63.34C105.586 62.8933 105.526 62.5 105.406 62.16C105.286 61.82 105.096 61.5533 104.836 61.36C104.576 61.1667 104.236 61.07 103.816 61.07C103.209 61.07 102.756 61.27 102.456 61.67C102.156 62.07 102.006 62.6267 102.006 63.34ZM114.464 60.68V66H107.614V60.68H108.184V65.51H110.754V60.68H111.324V65.51H113.894V60.68H114.464ZM118.247 60.58C118.707 60.58 119.087 60.6867 119.387 60.9C119.694 61.1067 119.924 61.3933 120.077 61.76C120.237 62.1267 120.317 62.55 120.317 63.03V63.41H116.517C116.517 64.1233 116.681 64.6667 117.007 65.04C117.341 65.4133 117.811 65.6 118.417 65.6C118.751 65.6 119.041 65.5733 119.287 65.52C119.534 65.4667 119.804 65.3733 120.097 65.24V65.76C119.831 65.88 119.567 65.9667 119.307 66.02C119.047 66.0733 118.744 66.1 118.397 66.1C117.871 66.1 117.421 65.99 117.047 65.77C116.681 65.55 116.401 65.2367 116.207 64.83C116.021 64.4167 115.927 63.9367 115.927 63.39C115.927 62.8433 116.017 62.36 116.197 61.94C116.377 61.52 116.641 61.19 116.987 60.95C117.334 60.7033 117.754 60.58 118.247 60.58ZM118.247 61.06C117.754 61.06 117.357 61.2233 117.057 61.55C116.757 61.87 116.581 62.3333 116.527 62.94H119.727C119.727 62.5667 119.674 62.24 119.567 61.96C119.461 61.68 119.297 61.46 119.077 61.3C118.864 61.14 118.587 61.06 118.247 61.06ZM125.505 66H124.935V61.17H123.135C123.068 62.01 122.992 62.7367 122.905 63.35C122.818 63.9633 122.705 64.47 122.565 64.87C122.432 65.27 122.262 65.5667 122.055 65.76C121.855 65.9533 121.612 66.05 121.325 66.05C121.238 66.05 121.162 66.0467 121.095 66.04C121.028 66.0333 120.972 66.0233 120.925 66.01V65.55C120.965 65.5633 121.008 65.5733 121.055 65.58C121.102 65.5867 121.162 65.59 121.235 65.59C121.395 65.59 121.538 65.5267 121.665 65.4C121.798 65.2733 121.915 65.0833 122.015 64.83C122.115 64.5767 122.202 64.2567 122.275 63.87C122.355 63.4767 122.422 63.0167 122.475 62.49C122.535 61.9567 122.588 61.3533 122.635 60.68H125.505V66ZM129.663 62.91C130.089 62.91 130.439 62.97 130.713 63.09C130.993 63.2033 131.199 63.3733 131.333 63.6C131.473 63.82 131.543 64.0867 131.543 64.4C131.543 64.7333 131.469 65.02 131.323 65.26C131.183 65.5 130.966 65.6833 130.673 65.81C130.386 65.9367 130.019 66 129.573 66H127.263V60.68H127.833V62.91H129.663ZM130.973 64.42C130.973 64.0667 130.856 63.81 130.623 63.65C130.389 63.4833 130.046 63.4 129.593 63.4H127.833V65.52H129.533C130.013 65.52 130.373 65.43 130.613 65.25C130.853 65.07 130.973 64.7933 130.973 64.42ZM135.945 60.68H136.595L134.215 63.26L136.745 66H136.055L133.575 63.31V66H133.005V60.68H133.575V63.27L135.945 60.68ZM139.612 60.59C140.212 60.59 140.658 60.7367 140.952 61.03C141.245 61.3233 141.392 61.79 141.392 62.43V66H140.962L140.862 65.1H140.832C140.705 65.3 140.558 65.4767 140.392 65.63C140.232 65.7767 140.035 65.8933 139.802 65.98C139.575 66.06 139.295 66.1 138.962 66.1C138.628 66.1 138.338 66.0433 138.092 65.93C137.845 65.81 137.655 65.64 137.522 65.42C137.388 65.2 137.322 64.93 137.322 64.61C137.322 64.0833 137.538 63.6833 137.972 63.41C138.405 63.13 139.035 62.97 139.862 62.93L140.832 62.89V62.51C140.832 61.9833 140.725 61.6133 140.512 61.4C140.305 61.18 139.995 61.07 139.582 61.07C139.308 61.07 139.045 61.1067 138.792 61.18C138.545 61.2467 138.295 61.3433 138.042 61.47L137.862 61.02C138.108 60.8933 138.382 60.79 138.682 60.71C138.982 60.63 139.292 60.59 139.612 60.59ZM139.922 63.35C139.248 63.3833 138.745 63.5033 138.412 63.71C138.078 63.91 137.912 64.2133 137.912 64.62C137.912 64.9467 138.015 65.1967 138.222 65.37C138.428 65.5367 138.708 65.62 139.062 65.62C139.628 65.62 140.062 65.4633 140.362 65.15C140.668 64.8367 140.825 64.3967 140.832 63.83V63.31L139.922 63.35ZM148.373 60.68V66H147.843V62.26C147.843 62.12 147.846 61.9833 147.853 61.85C147.86 61.71 147.866 61.5667 147.873 61.42H147.853L145.963 66H145.473L143.603 61.41H143.573C143.586 61.5567 143.593 61.7 143.593 61.84C143.593 61.98 143.593 62.13 143.593 62.29V66H143.073V60.68H143.843L145.713 65.3L147.603 60.68H148.373ZM150.527 64.39C150.527 64.4567 150.527 64.5333 150.527 64.62C150.527 64.7067 150.524 64.7967 150.517 64.89C150.517 64.9767 150.514 65.0633 150.507 65.15C150.501 65.23 150.497 65.3067 150.497 65.38L153.607 60.68H154.307V66H153.767V62.29C153.767 62.19 153.767 62.08 153.767 61.96C153.767 61.84 153.771 61.72 153.777 61.6C153.784 61.48 153.787 61.3767 153.787 61.29L150.677 66H149.987V60.68H150.527V64.39Z" fill="#7A769D"/>
<rect x="0.5" y="0.5" width="327" height="85" rx="19.5" stroke="#EDEDFF"/>
</svg>
