<svg width="24" height="24" viewBox="0 0 24 24" fill="none" xmlns="http://www.w3.org/2000/svg">
<path fill-rule="evenodd" clip-rule="evenodd" d="M11.7528 19.5C7.2482 19.5 3.59649 15.8063 3.59649 11.25C3.59649 6.69365 7.2482 3 11.7528 3C16.2574 3 19.9091 6.69365 19.9091 11.25C19.9091 15.8063 16.2574 19.5 11.7528 19.5ZM2.11353 11.25C2.11353 16.6348 6.42918 21 11.7528 21C17.0764 21 21.3921 16.6348 21.3921 11.25C21.3921 5.86522 17.0764 1.5 11.7528 1.5C6.42918 1.5 2.11353 5.86522 2.11353 11.25Z" fill="#7A769D"/>
<path fill-rule="evenodd" clip-rule="evenodd" d="M11.7528 15C12.1623 15 12.4943 14.6642 12.4943 14.25V11.25C12.4943 10.8358 12.1623 10.5 11.7528 10.5C11.3433 10.5 11.0113 10.8358 11.0113 11.25V14.25C11.0113 14.6642 11.3433 15 11.7528 15Z" fill="#7A769D"/>
<path d="M12.7414 8.25C12.7414 7.69771 12.2988 7.25 11.7528 7.25C11.2068 7.25 10.7642 7.69771 10.7642 8.25C10.7642 8.80229 11.2068 9.25 11.7528 9.25C12.2988 9.25 12.7414 8.80229 12.7414 8.25Z" fill="#7A769D"/>
</svg>
