<svg width="100" height="100" viewBox="0 0 100 100" fill="none" xmlns="http://www.w3.org/2000/svg">
<path d="M0 40C0 21.1438 0 11.7157 5.85786 5.85786C11.7157 0 21.1438 0 40 0H60C78.8562 0 88.2843 0 94.1421 5.85786C100 11.7157 100 21.1438 100 40V60C100 78.8562 100 88.2843 94.1421 94.1421C88.2843 100 78.8562 100 60 100H40C21.1438 100 11.7157 100 5.85786 94.1421C0 88.2843 0 78.8562 0 60V40Z" fill="#FEE2E2"/>
<path d="M34.9241 43.9123H29.7617C28.7456 43.9123 27.9219 44.8389 27.9219 45.9821V47.3619C27.9219 48.5051 28.7456 49.4317 29.7617 49.4317H30.375L32.3767 65.1958C32.6358 67.2352 34.1883 68.75 36.0194 68.75H63.9803C65.8115 68.75 67.364 67.2352 67.6229 65.1958L69.6248 49.4317H70.238C71.2542 49.4317 72.0779 48.5051 72.0779 47.3619V45.9821C72.0779 44.8389 71.2542 43.9123 70.238 43.9123H65.0757L56.8901 31.25M34.9241 43.9123L43.1098 31.2501M34.9241 43.9123H64.6276M42.8304 52.2237V61.6099M50.1021 52.2237V61.6099M57.3738 52.2237V61.6099" stroke="#EF5D70" stroke-width="3" stroke-linecap="round"/>
</svg>
