<svg width="22" height="22" viewBox="0 0 22 22" fill="none" xmlns="http://www.w3.org/2000/svg">
<path d="M4.08785 7.61126L4.08739 7.61131C4.08709 7.6086 4.08691 7.60733 4.08694 7.60732C4.08697 7.60732 4.08716 7.60829 4.08758 7.61014L4.33041 7.58434L4.36526 7.58063L4.83307 7.53093L4.36526 7.58136L4.33035 7.58512L4.08785 7.61126ZM4.08785 7.61126C4.09263 7.6313 4.11873 7.72421 4.2229 7.80752C4.25416 7.83252 4.2838 7.8495 4.30902 7.86098C4.33225 7.87156 4.35172 7.87747 4.36526 7.88068C4.37201 7.88229 4.37729 7.88322 4.38082 7.88373L4.08785 7.61126ZM7.63634 18.1335L7.63624 18.1301C7.60908 17.2937 7.61287 16.4543 7.63634 15.6109L7.63663 15.6005V15.59C7.63663 15.3888 7.61613 14.9944 7.30555 14.7009C7.00123 14.4134 6.61303 14.4104 6.43221 14.4148L6.43175 14.4149C5.9151 14.4278 5.40873 14.4235 4.8882 14.4192C4.62223 14.4169 4.35257 14.4146 4.07596 14.4146C2.14956 14.3929 0.668787 12.8369 0.753529 11.0899L0.753628 11.0899L0.754021 11.0777C0.768432 10.6301 0.873123 10.19 1.06171 9.78424C1.25029 9.37844 1.51883 9.01531 1.851 8.7167C2.18317 8.4181 2.57208 8.1902 2.99424 8.04662C3.35746 7.92309 3.73887 7.86418 4.12133 7.87202C4.53742 10.5695 6.84017 12.2406 9.16707 12.741L9.16716 12.741C9.68027 12.8513 10.1901 12.8755 10.6317 12.8965L10.6326 12.8966C11.094 12.9185 11.484 12.9372 11.8599 13.0132L11.8701 13.0153L11.8804 13.0171C12.5445 13.1323 13.1574 13.4497 13.6359 13.9266L13.6358 13.9266L13.6422 13.9328C13.8088 14.095 13.9414 14.2893 14.0319 14.5042C14.1223 14.7191 14.1688 14.9501 14.1685 15.1835V15.1845V15.19V15.1955V15.2009V15.2064V15.2119V15.2173V15.2228V15.2283V15.2338V15.2392V15.2447V15.2502V15.2557V15.2611V15.2666V15.2721V15.2776V15.283V15.2885V15.294V15.2995V15.3049V15.3104V15.3159V15.3214V15.3268V15.3323V15.3378V15.3433V15.3487V15.3542V15.3597V15.3652V15.3706V15.3761V15.3816V15.3871V15.3925V15.398V15.4035V15.4089V15.4144V15.4199V15.4254V15.4308V15.4363V15.4418V15.4473V15.4527V15.4582V15.4637V15.4692V15.4746V15.4801V15.4856V15.4911V15.4965V15.502V15.5075V15.5129V15.5184V15.5239V15.5294V15.5348V15.5403V15.5458V15.5513V15.5567V15.5622V15.5677V15.5731V15.5786V15.5841V15.5896V15.595V15.6005V15.606V15.6115V15.6169V15.6224V15.6279V15.6333V15.6388V15.6443V15.6498V15.6552V15.6607V15.6662V15.6716V15.6771V15.6826V15.6881V15.6935V15.699V15.7045V15.7099V15.7154V15.7209V15.7263V15.7318V15.7373V15.7428V15.7482V15.7537V15.7592V15.7646V15.7701V15.7756V15.781V15.7865V15.792V15.7974V15.8029V15.8084V15.8139V15.8193V15.8248V15.8303V15.8357V15.8412V15.8467V15.8521V15.8576V15.8631V15.8685V15.874V15.8795V15.8849V15.8904V15.8959V15.9013V15.9068V15.9123V15.9177V15.9232V15.9287V15.9341V15.9396V15.9451V15.9505V15.956V15.9615V15.9669V15.9724V15.9779V15.9833V15.9888V15.9943V15.9997V16.0052V16.0107V16.0161V16.0216V16.0271V16.0325V16.038V16.0434V16.0489V16.0544V16.0598V16.0653V16.0708V16.0762V16.0817V16.0871V16.0926V16.0981V16.1035V16.109V16.1145V16.1199V16.1254V16.1308V16.1363V16.1418V16.1472V16.1527V16.1581V16.1636V16.1691V16.1745V16.18V16.1854V16.1909V16.1964V16.2018V16.2073V16.2127V16.2182V16.2237V16.2291V16.2346V16.24V16.2455V16.251V16.2564V16.2619V16.2673V16.2728V16.2782V16.2837V16.2892V16.2946V16.3001V16.3055V16.311V16.3164V16.3219V16.3273V16.3328V16.3383V16.3437V16.3492V16.3546V16.3601V16.3655V16.371V16.3764V16.3819V16.3873V16.3928V16.3982V16.4037V16.4091V16.4146V16.4201V16.4255V16.431V16.4364V16.4419V16.4473V16.4528V16.4582V16.4637V16.4691V16.4746V16.48V16.4855V16.4909V16.4964V16.5018V16.5073V16.5127V16.5182V16.5236V16.529V16.5345V16.5399V16.5454V16.5508V16.5563V16.5617V16.5672V16.5726V16.5781V16.5835V16.589V16.5944V16.5999V16.6053V16.6107V16.6162V16.6216V16.6271V16.6325V16.638V16.6434V16.6488V16.6543V16.6597V16.6652V16.6706V16.6761V16.6815V16.6869V16.6924V16.6978V16.7033V16.7087V16.7141V16.7196V16.725V16.7305V16.7359V16.7413V16.7468V16.7522V16.7576V16.7631V16.7685V16.774V16.7794V16.7848V16.7903V16.7957V16.8011V16.8066V16.812V16.8174V16.8229V16.8283V16.8338V16.8392V16.8446V16.8501V16.8555V16.8609V16.8664V16.8718V16.8772V16.8826V16.8881V16.8935V16.8989V16.9044V16.9098V16.9152V16.9207V16.9261V16.9315V16.937V16.9424V16.9478V16.9532V16.9587V16.9641V16.9695V16.9749V16.9804V16.9858V16.9912V16.9966V17.0021V17.0075V17.0129V17.0183V17.0238V17.0292V17.0346V17.04V17.0455V17.0509V17.0563V17.0617V17.0672V17.0726V17.078V17.0834V17.0888V17.0943V17.0997V17.1051V17.1105V17.1159V17.1214V17.1268V17.1322V17.1376V17.143V17.1484V17.1539V17.1593V17.1647V17.1701V17.1755V17.1809V17.1864V17.1918V17.1972V17.2026V17.208V17.2134V17.2188V17.2243V17.2297V17.2351V17.2405V17.2459V17.2513V17.2567V17.2621V17.2675V17.273V17.2784V17.2838V17.2892V17.2946V17.3V17.3054V17.3108V17.3162V17.3216V17.327V17.3324V17.3378V17.3432V17.3487V17.3541V17.3595V17.3649V17.3703V17.3757V17.3811V17.3865V17.3919V17.3973V17.4027V17.4081V17.4135V17.4189V17.4243V17.4297V17.4351V17.4405V17.4459V17.4513V17.4567V17.4621V17.4675V17.4729V17.4783V17.4837V17.489V17.4944V17.4998V17.5052V17.5106V17.516V17.5214V17.5268V17.5322V17.5376V17.543V17.5484V17.5538V17.5592V17.5645V17.5699V17.5753V17.5807V17.5861V17.5915V17.5969V17.6023V17.6076V17.613V17.6184V17.6238V17.6292V17.6346V17.64V17.6453V17.6507V17.6561V17.6615V17.6669V17.6723V17.6776V17.683V17.6884V17.6938V17.6992V17.7045V17.7099V17.7153V17.7207V17.7261V17.7314V17.7368V17.7422V17.7476V17.7529V17.7583V17.7637V17.7691V17.7744V17.7798V17.7852V17.7906V17.7959V17.8013V17.8067V17.812V17.8174V17.8228V17.8282V17.8335V17.8389V17.8443V17.8496V17.855V17.8604V17.8657V17.8711V17.8765V17.8818V17.8872V17.8926V17.8979V17.9033V17.9087V17.914V17.9194V17.9247V17.9301V17.9355V17.9408V17.9462V17.9515V17.9569V17.9623V17.9631C14.1467 19.6941 13.0204 21.0504 11.4173 21.1966L11.3899 21.1991L11.3628 21.2036C10.9348 21.2744 10.4973 21.2641 10.0731 21.1731C9.39425 21.0035 8.78865 20.6162 8.34867 20.0694C7.90653 19.5199 7.65615 18.8398 7.63634 18.1335Z" stroke="#7A769D" stroke-width="1.5"/>
<path d="M7.92113 3.40966L7.92515 3.3927L7.92838 3.37557C8.07908 2.57636 8.52502 1.86422 9.17629 1.38129C9.82749 0.89841 10.6361 0.680133 11.4404 0.769671C12.2448 0.859212 12.9863 1.25007 13.5163 1.86472C14.0464 2.47944 14.3258 3.27261 14.298 4.08559L14.2976 4.09836V4.11115V4.11595V4.12075V4.12555V4.13034V4.13514V4.13994V4.14474V4.14954V4.15434V4.15914V4.16394V4.16874V4.17354V4.17833V4.18313V4.18793V4.19273V4.19753V4.20233V4.20713V4.21193V4.21673V4.22153V4.22633V4.23113V4.23594V4.24074V4.24554V4.25034V4.25514V4.25994V4.26474V4.26954V4.27434V4.27914V4.28395V4.28875V4.29355V4.29835V4.30315V4.30795V4.31276V4.31756V4.32236V4.32716V4.33196V4.33677V4.34157V4.34637V4.35117V4.35598V4.36078V4.36558V4.37038V4.37519V4.37999V4.38479V4.3896V4.3944V4.3992V4.40401V4.40881V4.41361V4.41842V4.42322V4.42802V4.43283V4.43763V4.44244V4.44724V4.45204V4.45685V4.46165V4.46646V4.47126V4.47607V4.48087V4.48568V4.49048V4.49529V4.50009V4.5049V4.5097V4.51451V4.51931V4.52412V4.52892V4.53373V4.53853V4.54334V4.54815V4.55295V4.55776V4.56256V4.56737V4.57218V4.57698V4.58179V4.58659V4.5914V4.59621V4.60101V4.60582V4.61063V4.61543V4.62024V4.62505V4.62986V4.63466V4.63947V4.64428V4.64908V4.65389V4.6587V4.66351V4.66831V4.67312V4.67793V4.68274V4.68754V4.69235V4.69716V4.70197V4.70678V4.71159V4.71639V4.7212V4.72601V4.73082V4.73563V4.74044V4.74524V4.75005V4.75486V4.75967V4.76448V4.76929V4.7741V4.77891V4.78372V4.78853V4.79333V4.79814V4.80295V4.80776V4.81257V4.81738V4.82219V4.827V4.83181V4.83662V4.84143V4.84624V4.85105V4.85586V4.86067V4.86548V4.87029V4.8751V4.87991V4.88472V4.88954V4.89435V4.89916V4.90397V4.90878V4.91359V4.9184V4.92321V4.92802V4.93283V4.93764V4.94246V4.94727V4.95208V4.95689V4.9617V4.96651V4.97133V4.97614V4.98095V4.98576V4.99057V4.99538V5.0002V5.00501V5.00982V5.01463V5.01944V5.02426V5.02907V5.03388V5.03869V5.04351V5.04832V5.05313V5.05795V5.06276V5.06757V5.07238V5.0772V5.08201V5.08682V5.09164V5.09645V5.10126V5.10608V5.11089V5.1157V5.12052V5.12533V5.13014V5.13496V5.13977V5.14458V5.1494V5.15421V5.15902V5.16384V5.16865V5.17347V5.17828V5.18309V5.18791V5.19272V5.19754V5.20235V5.20717V5.21198V5.21679V5.22161V5.22642V5.23124V5.23605V5.24087V5.24568V5.2505V5.25531V5.26013V5.26494V5.26976V5.27457V5.27939V5.2842V5.28902V5.29383V5.29865V5.30346V5.30828V5.31309V5.31791V5.32272V5.32754V5.33236V5.33717V5.34199V5.3468V5.35162V5.35643V5.36125V5.36607V5.37088V5.3757V5.38051V5.38533V5.39015V5.39496V5.39978V5.4046V5.40941V5.41423V5.41904V5.42386V5.42868V5.43349V5.43831V5.44313V5.44794V5.45276V5.45758V5.46239V5.46721V5.47203V5.47684V5.48166V5.48648V5.4913V5.49611V5.50093V5.50575V5.51056V5.51538V5.5202V5.52502V5.52983V5.53465V5.53947V5.54429V5.5491V5.55392V5.55874V5.56356V5.56837V5.57319V5.57801V5.58283V5.58764V5.59246V5.59728V5.6021V5.60692V5.61173V5.61655V5.62137V5.62619V5.63101V5.63582V5.64064V5.64546V5.65028V5.6551V5.65992V5.66473V5.66955V5.67437V5.67919V5.68401V5.68883V5.69364V5.69846V5.70328V5.7081V5.71292V5.71774V5.72256V5.72738V5.73219V5.73701V5.74183V5.74665V5.75147V5.75629V5.76111V5.76593V5.77075V5.77556V5.78038V5.7852V5.79002V5.79484V5.79966V5.80448V5.8093V5.81412V5.81894V5.82376V5.82858V5.8334V5.83822V5.84304V5.84785V5.85267V5.85749V5.86231V5.86713V5.87195V5.87677V5.88159V5.88641V5.89123V5.89605V5.90087V5.90569V5.91051V5.91533V5.92015V5.92497V5.92979V5.93461V5.93943V5.94425V5.94907V5.95389V5.95871V5.96353V5.96835V5.97317V5.97799V5.98281V5.98763V5.99245V5.99727V6.00209V6.00691V6.01173V6.01655V6.02137V6.02619V6.03101V6.03583V6.04065V6.04548V6.0503V6.05512V6.05994V6.06476V6.06958V6.0744V6.07922V6.08404V6.08886V6.09368V6.0985V6.10332V6.10814V6.11296V6.11778V6.12261V6.12743V6.13225V6.13707V6.14189V6.14671V6.15153V6.15635V6.16117V6.16599V6.17081V6.17563V6.18046V6.18528V6.1901V6.19492V6.19974V6.20456V6.20938V6.2142V6.21902V6.22384V6.22867V6.23349V6.23831V6.24313V6.24795V6.25277V6.25759V6.26241V6.26723V6.27206V6.27688V6.2817V6.28652V6.29134V6.29616V6.30098V6.3058V6.31063V6.31545V6.32027V6.32509V6.32991V6.33473V6.33955V6.34437V6.3492V6.35402V6.35884V6.36366V6.36848V6.3733V6.37812V6.38295V6.38777V6.39259V6.39741V6.40223V6.40705V6.41187V6.4167V6.42152V6.42634V6.43116V6.43598V6.4408V6.44562V6.45045V6.45527V6.46009V6.46491V6.46973V6.47455V6.47937V6.4842V6.48902V6.49384V6.49866V6.50348V6.5083V6.51313V6.51795V6.52277V6.52759V6.53241V6.53723V6.54205V6.54688V6.5517V6.55652V6.56134V6.56616V6.57098V6.57581C14.2976 6.75035 14.3069 7.13047 14.5835 7.42921C14.8756 7.74474 15.2678 7.76726 15.4836 7.76309H15.4857H15.4907H15.4957H15.5007H15.5056H15.5106H15.5156H15.5206H15.5256H15.5306H15.5356H15.5406H15.5456H15.5506H15.5556H15.5606H15.5656H15.5706H15.5756H15.5806H15.5856H15.5906H15.5956H15.6005H15.6055H15.6105H15.6155H15.6205H15.6255H15.6305H15.6355H15.6405H15.6455H15.6505H15.6555H15.6605H15.6655H15.6705H15.6755H15.6805H15.6855H15.6905H15.6955H15.7005H15.7055H15.7105H15.7155H15.7205H15.7255H15.7305H15.7355H15.7405H15.7455H15.7505H15.7554H15.7604H15.7654H15.7704H15.7754H15.7804H15.7854H15.7904H15.7954H15.8004H15.8054H15.8104H15.8154H15.8204H15.8254H15.8304H15.8354H15.8404H15.8454H15.8504H15.8554H15.8604H15.8654H15.8704H15.8754H15.8804H15.8854H15.8904H15.8954H15.9004H15.9054H15.9104H15.9154H15.9204H15.9254H15.9304H15.9354H15.9404H15.9454H15.9504H15.9554H15.9604H15.9654H15.9704H15.9754H15.9804H15.9854H15.9904H15.9954H16.0004H16.0054H16.0104H16.0154H16.0204H16.0254H16.0304H16.0354H16.0404H16.0454H16.0504H16.0554H16.0604H16.0654H16.0704H16.0754H16.0805H16.0855H16.0905H16.0955H16.1005H16.1055H16.1105H16.1155H16.1205H16.1255H16.1305H16.1355H16.1405H16.1455H16.1505H16.1555H16.1605H16.1655H16.1705H16.1755H16.1805H16.1855H16.1905H16.1955H16.2005H16.2055H16.2105H16.2155H16.2205H16.2255H16.2305H16.2355H16.2405H16.2455H16.2505H16.2555H16.2605H16.2655H16.2706H16.2756H16.2806H16.2856H16.2906H16.2956H16.3006H16.3056H16.3106H16.3156H16.3206H16.3256H16.3306H16.3356H16.3406H16.3456H16.3506H16.3556H16.3606H16.3656H16.3706H16.3756H16.3806H16.3856H16.3906H16.3956H16.4007H16.4057H16.4107H16.4157H16.4207H16.4257H16.4307H16.4357H16.4407H16.4457H16.4507H16.4557H16.4607H16.4657H16.4707H16.4757H16.4807H16.4857H16.4907H16.4957H16.5007H16.5057H16.5107H16.5158H16.5208H16.5258H16.5308H16.5358H16.5408H16.5458H16.5508H16.5558H16.5608H16.5658H16.5708H16.5758H16.5808H16.5858H16.5908H16.5958H16.6008H16.6058H16.6108H16.6158H16.6209H16.6259H16.6309H16.6359H16.6409H16.6459H16.6509H16.6559H16.6609H16.6659H16.6709H16.6759H16.6809H16.6859H16.6909H16.6959H16.7009H16.7059H16.7109H16.7159H16.721H16.726H16.731H16.736H16.741H16.746H16.751H16.756H16.761H16.766H16.771H16.776H16.781H16.786H16.791H16.796H16.801H16.806H16.811H16.816H16.8211H16.8261H16.8311H16.8361H16.8411H16.8461H16.8511H16.8561H16.8611H16.8661H16.8711H16.8761H16.8811H16.8861H16.8911H16.8961H16.9011H16.9061H16.9111H16.9161H16.9212H16.9262H16.9312H16.9362H16.9412H16.9462H16.9512H16.9562H16.9612H16.9662H16.9712H16.9762H16.9812H16.9862H16.9912H16.9962H17.0012H17.0062H17.0112H17.0162H17.0212H17.0263H17.0313H17.0363H17.0413H17.0463H17.0513H17.0563H17.0613H17.0663H17.0713H17.0763H17.0813H17.0863H17.0913H17.0963H17.1013H17.1063H17.1113H17.1163H17.1213H17.1263H17.1313H17.1363H17.1414H17.1464H17.1514H17.1564H17.1614H17.1664H17.1714H17.1764H17.1814H17.1864H17.1914H17.1964H17.2014H17.2064H17.2114H17.2164H17.2214H17.2264H17.2314H17.2364H17.2414H17.2464H17.2514H17.2564H17.2614H17.2664H17.2714H17.2764H17.2815H17.2865H17.2915H17.2965H17.3015H17.3065H17.3115H17.3165H17.3215H17.3265H17.3315H17.3365H17.3415H17.3465H17.3515H17.3565H17.3615H17.3665H17.3715H17.3765H17.3815H17.3865H17.3915H17.3965H17.4015H17.4065H17.4115H17.4165H17.4215H17.4265H17.4315H17.4365H17.4415H17.4465H17.4515H17.4565H17.4615H17.4665H17.4715H17.4765H17.4815H17.4865H17.4915H17.4965H17.5015H17.5065H17.5115H17.5166H17.5216H17.5266H17.5316H17.5366H17.5416H17.5466H17.5516H17.5566H17.5616H17.5666H17.5716H17.5766H17.5816H17.5866H17.5916H17.5966H17.6016H17.6066H17.6116H17.6166H17.6216H17.6266H17.6316H17.6366H17.6416H17.6466H17.6516H17.6566H17.6616H17.6666H17.6716H17.6766H17.6816H17.6866H17.6915H17.6965H17.7015H17.7065H17.7115H17.7165H17.7215H17.7265H17.7315H17.7365H17.7415H17.7465H17.7515H17.7565H17.7615H17.7665H17.7715H17.7765H17.7815H17.7865H17.7915H17.7965H17.8015H17.8065H17.8115H17.8165H17.8215H17.8265H17.8315H17.8365H17.8415H17.8465H17.8515H17.8565H17.8615H17.8665H17.8715H17.8765H17.8815H17.8865H17.8914H17.8964H17.9014H17.9064H17.9114H17.9164H17.9214H17.9264H17.9314H17.9364H17.9414H17.9464H17.9514H17.9564H17.9614H17.9664H17.9714H17.9764H17.9814H17.9864H17.9913H17.9963H18.0013H18.0063H18.0113H18.0163H18.0213H18.0263H18.0313H18.0363C18.8879 7.76309 19.7051 8.10236 20.308 8.70697C20.911 9.31166 21.2501 10.1322 21.2501 10.9883C21.2501 11.8444 20.911 12.665 20.308 13.2697C19.7051 13.8743 18.8879 14.2136 18.0363 14.2136H18.0355H18.0346H18.0338H18.0329H18.0321H18.0313H18.0304H18.0296H18.0288H18.0279H18.0271H18.0263H18.0254H18.0246H18.0238H18.0229H18.0221H18.0212H18.0204H18.0196H18.0187H18.0179H18.0171H18.0162H18.0154H18.0146H18.0137H18.0129H18.012H18.0112H18.0104H18.0095H18.0087H18.0079H18.007H18.0062H18.0054H18.0045H18.0037H18.0028H18.002H18.0012H18.0003H17.9995H17.9987H17.9978H17.997H17.9962H17.9953H17.9945H17.9937H17.9928H17.992H17.9911H17.9903H17.9895H17.9886H17.9878H17.987H17.9861H17.9853H17.9845H17.9836H17.9828H17.9819H17.9811H17.9803H17.9794H17.9786H17.9778H17.9769H17.9761H17.9753H17.9744H17.9736H17.9727H17.9719H17.9711H17.9702H17.9694H17.9686H17.9677H17.9669H17.9661H17.9652H17.9644H17.9636H17.9627H17.9619H17.961H17.9602H17.9594H17.9585H17.9577H17.9569H17.956H17.9552H17.9544H17.9535H17.9527H17.9518H17.951H17.9502H17.9493H17.9485H17.9477H17.9468H17.946H17.9452H17.9443H17.9435H17.9426H17.9418H17.941H17.9401H17.9393H17.9385H17.9376H17.9368H17.936H17.9351H17.9343H17.9335H17.9326H17.9318H17.9309H17.9301H17.9293H17.9284H17.9276H17.9268H17.9259H17.9251H17.9243H17.9234H17.9226H17.9217H17.9209H17.9201H17.9192H17.9184H17.9176H17.9167H17.9159H17.9151H17.9142H17.9134H17.9125H17.9117H17.9109H17.91H17.9092H17.9084H17.9075H17.9067H17.9059H17.905H17.9042H17.9034H17.9025H17.9017H17.9008H17.9H17.8992H17.8983H17.8975H17.8967H17.8958H17.895H17.8942H17.8933H17.8925H17.8916H17.8908H17.89H17.8891H17.8883H17.8875H17.8866H17.8858H17.885H17.8841H17.8833H17.8824H17.8816H17.8808H17.8799H17.8791H17.8783H17.8774H17.8766H17.8758H17.8749H17.8741H17.8733H17.8724H17.8718C17.3859 11.2751 14.7822 9.63649 12.3215 9.26486L12.3197 9.26459C11.9357 9.20753 11.5379 9.19519 11.1935 9.18451C11.1067 9.18182 11.0234 9.17923 10.9445 9.17606C10.5245 9.15919 10.1749 9.12663 9.84981 9.02455L9.83616 9.02027L9.82236 9.01651C9.24083 8.85801 8.71258 8.54492 8.29343 8.11016C8.13252 7.92766 8.00911 7.71486 7.93046 7.48397C7.85049 7.2492 7.81848 7.00062 7.83636 6.75308L7.83757 6.73637L7.83803 6.71961C7.84562 6.44294 7.84228 6.16371 7.83871 5.86517C7.83668 5.69544 7.83458 5.51948 7.83436 5.3342C7.85353 5.08585 7.84888 4.80518 7.84479 4.55847C7.8434 4.47495 7.84208 4.39531 7.84177 4.32214C7.84036 3.98757 7.85483 3.68924 7.92113 3.40966ZM17.9127 14.5025C17.9127 14.5025 17.9125 14.5018 17.9122 14.5002L17.9127 14.5025Z" stroke="#7A769D" stroke-width="1.5"/>
</svg>
