<svg width="24" height="24" viewBox="0 0 24 24" fill="none" xmlns="http://www.w3.org/2000/svg">
<path d="M4.76339 9.07788H2.28546C1.79772 9.07788 1.40234 9.52268 1.40234 10.0714V10.7337C1.40234 11.2824 1.79772 11.7272 2.28546 11.7272H2.57984L3.54067 19.294C3.66501 20.2729 4.41021 21 5.28918 21H18.7104C19.5894 21 20.3346 20.2729 20.4589 19.294L21.4197 11.7272H21.7141C22.2018 11.7272 22.5972 11.2824 22.5972 10.7337V10.0714C22.5972 9.52268 22.2018 9.07788 21.7141 9.07788H19.2362L15.3071 3M4.76339 9.07788L8.69254 3.00004M4.76339 9.07788H19.0211M8.55845 13.0674V17.5727M12.0489 13.0674V17.5727M15.5393 13.0674V17.5727" stroke="#7A769D" stroke-width="1.5" stroke-linecap="round"/>
</svg>
