<svg width="328" height="86" viewBox="0 0 328 86" fill="none" xmlns="http://www.w3.org/2000/svg">
<rect x="0.5" y="0.5" width="327" height="85" rx="19.5" fill="white"/>
<path d="M276.444 62.9445C274.864 62.5551 273.455 61.6566 272.433 60.3867C271.411 59.1168 270.833 57.5458 270.787 55.9147C270.735 54.3119 270.743 52.7091 270.787 51.1063C270.787 50.4652 270.579 50.2937 269.97 50.3087C268.483 50.3459 266.996 50.3087 265.51 50.3087C261.161 50.2639 257.683 46.7378 257.883 42.6004C257.916 41.5718 258.157 40.5606 258.59 39.6278C259.024 38.695 259.641 37.8599 260.405 37.173C261.17 36.4861 262.065 35.9616 263.036 35.631C264.008 35.3005 265.037 35.1709 266.06 35.25C266.58 35.25 266.878 35.4438 266.937 35.9955C267.42 40.5429 271.233 43.5024 275.359 44.3896C277.024 44.7474 278.734 44.561 280.391 44.8965C281.922 45.162 283.333 45.8934 284.435 46.9913C284.883 47.427 285.238 47.9485 285.481 48.5247C285.723 49.101 285.848 49.7204 285.847 50.3459C285.847 52.0978 285.847 53.8497 285.847 55.5643C285.803 59.4109 283.253 62.6687 279.41 63.0191C278.426 63.1821 277.419 63.1568 276.444 62.9445Z" fill="#3CE682"/>
<path d="M271.158 31.8195C271.254 30.7164 271.031 29.3225 271.359 27.9436C271.707 26.0979 272.737 24.4521 274.243 23.3353C275.749 22.2186 277.62 21.7133 279.481 21.9205C281.343 22.1277 283.058 23.0322 284.283 24.453C285.508 25.8738 286.153 27.7061 286.089 29.5834C286.089 31.1188 286.089 32.6617 286.089 34.2046C286.089 34.8158 286.252 35.0394 286.892 35.0245C288.49 35.0245 290.095 35.0245 291.693 35.0245C293.664 35.0245 295.554 35.8098 296.948 37.2076C298.342 38.6055 299.125 40.5013 299.125 42.4781C299.125 44.455 298.342 46.3508 296.948 47.7486C295.554 49.1464 293.664 49.9317 291.693 49.9317C291.425 49.9317 291.158 49.9317 290.89 49.9317C290.4 49.9317 290.147 49.7976 290.065 49.246C289.5 44.2372 285.16 41.3005 280.768 40.6371C279.162 40.3986 277.512 40.6371 275.922 40.1377C274.577 39.7711 273.356 39.0445 272.392 38.0358C271.957 37.549 271.624 36.9794 271.413 36.3609C271.202 35.7424 271.118 35.0876 271.165 34.4357C271.188 33.6233 271.158 32.8779 271.158 31.8195Z" fill="#4839C3"/>
<path d="M34.944 28.272C34.944 29.1573 34.8373 29.9627 34.624 30.688C34.4213 31.4027 34.1067 32.0213 33.68 32.544C33.264 33.0667 32.7413 33.4667 32.112 33.744C31.4827 34.0213 30.752 34.16 29.92 34.16C29.0667 34.16 28.32 34.0213 27.68 33.744C27.0507 33.456 26.528 33.056 26.112 32.544C25.696 32.0213 25.3867 31.3973 25.184 30.672C24.9813 29.9467 24.88 29.1413 24.88 28.256C24.88 27.0827 25.0613 26.0587 25.424 25.184C25.7973 24.3093 26.3573 23.6267 27.104 23.136C27.8507 22.6453 28.7947 22.4 29.936 22.4C31.0453 22.4 31.968 22.6453 32.704 23.136C33.4507 23.616 34.0107 24.2987 34.384 25.184C34.7573 26.0587 34.944 27.088 34.944 28.272ZM26.752 28.272C26.752 29.1893 26.8587 29.9787 27.072 30.64C27.296 31.2907 27.6427 31.7973 28.112 32.16C28.592 32.512 29.1947 32.688 29.92 32.688C30.656 32.688 31.2533 32.512 31.712 32.16C32.1813 31.7973 32.5227 31.2907 32.736 30.64C32.96 29.9787 33.072 29.1893 33.072 28.272C33.072 26.896 32.8213 25.824 32.32 25.056C31.8187 24.2773 31.024 23.888 29.936 23.888C29.2 23.888 28.592 24.064 28.112 24.416C27.6427 24.768 27.296 25.2693 27.072 25.92C26.8587 26.5707 26.752 27.3547 26.752 28.272ZM48.0544 25.376V34H46.3104V26.752H42.6784V34H40.9504V25.376H48.0544ZM54.6416 25.216C55.6123 25.216 56.391 25.5893 56.9776 26.336C57.5643 27.0827 57.8576 28.1973 57.8576 29.68C57.8576 30.6507 57.719 31.472 57.4416 32.144C57.175 32.816 56.7963 33.3227 56.3056 33.664C55.815 33.9947 55.2443 34.16 54.5936 34.16C54.199 34.16 53.847 34.1067 53.5376 34C53.2283 33.8827 52.967 33.7333 52.7536 33.552C52.551 33.36 52.3696 33.1573 52.2096 32.944H52.1136C52.135 33.136 52.1563 33.3653 52.1776 33.632C52.199 33.888 52.2096 34.1173 52.2096 34.32V37.84H50.4816V25.376H51.8896L52.1296 26.528H52.2096C52.3696 26.2933 52.5563 26.0747 52.7696 25.872C52.9936 25.6693 53.255 25.5093 53.5536 25.392C53.863 25.2747 54.2256 25.216 54.6416 25.216ZM54.1776 26.608C53.7083 26.608 53.3296 26.7147 53.0416 26.928C52.7536 27.1307 52.5403 27.44 52.4016 27.856C52.2736 28.2613 52.2096 28.7787 52.2096 29.408V29.664C52.2096 30.3253 52.2683 30.8907 52.3856 31.36C52.5136 31.8187 52.7216 32.1707 53.0096 32.416C53.3083 32.6507 53.7083 32.768 54.2096 32.768C54.6363 32.768 54.9883 32.64 55.2656 32.384C55.543 32.1173 55.7456 31.7493 55.8736 31.28C56.0123 30.8107 56.0816 30.2667 56.0816 29.648C56.0816 28.7093 55.9216 27.968 55.6016 27.424C55.2923 26.88 54.8176 26.608 54.1776 26.608ZM67.089 29.68C67.089 30.3947 66.9983 31.0293 66.817 31.584C66.6357 32.1387 66.3743 32.608 66.033 32.992C65.7023 33.376 65.297 33.6693 64.817 33.872C64.337 34.064 63.7983 34.16 63.201 34.16C62.657 34.16 62.1503 34.064 61.681 33.872C61.2117 33.6693 60.8063 33.376 60.465 32.992C60.1237 32.608 59.857 32.1387 59.665 31.584C59.4837 31.0293 59.393 30.3893 59.393 29.664C59.393 28.7147 59.5477 27.9093 59.857 27.248C60.1663 26.5867 60.609 26.0853 61.185 25.744C61.7717 25.392 62.465 25.216 63.265 25.216C64.0117 25.216 64.673 25.392 65.249 25.744C65.825 26.0853 66.273 26.5867 66.593 27.248C66.9237 27.9093 67.089 28.72 67.089 29.68ZM61.185 29.68C61.185 30.32 61.2543 30.8747 61.393 31.344C61.5423 31.8027 61.7663 32.1547 62.065 32.4C62.3743 32.6453 62.7637 32.768 63.233 32.768C63.713 32.768 64.1023 32.6453 64.401 32.4C64.7103 32.1547 64.9343 31.8027 65.073 31.344C65.2223 30.8747 65.297 30.32 65.297 29.68C65.297 29.0187 65.2223 28.464 65.073 28.016C64.9237 27.568 64.6997 27.2267 64.401 26.992C64.1023 26.7467 63.7077 26.624 63.217 26.624C62.5023 26.624 61.985 26.8907 61.665 27.424C61.345 27.9573 61.185 28.7093 61.185 29.68ZM72.3238 25.216C73.0384 25.216 73.6571 25.376 74.1798 25.696C74.7024 26.0053 75.1024 26.4533 75.3798 27.04C75.6678 27.6267 75.8118 28.32 75.8118 29.12V30.048H70.3878C70.4091 30.9333 70.6224 31.6107 71.0278 32.08C71.4331 32.5493 72.0038 32.784 72.7398 32.784C73.2624 32.784 73.7264 32.736 74.1318 32.64C74.5478 32.5333 74.9691 32.3787 75.3958 32.176V33.584C74.9904 33.776 74.5744 33.92 74.1478 34.016C73.7318 34.112 73.2251 34.16 72.6278 34.16C71.8491 34.16 71.1558 33.9947 70.5478 33.664C69.9398 33.3333 69.4651 32.8427 69.1238 32.192C68.7824 31.5307 68.6118 30.72 68.6118 29.76C68.6118 28.7893 68.7664 27.968 69.0758 27.296C69.3851 26.624 69.8171 26.112 70.3718 25.76C70.9371 25.3973 71.5878 25.216 72.3238 25.216ZM72.3238 26.528C71.7798 26.528 71.3424 26.7253 71.0118 27.12C70.6811 27.5147 70.4891 28.0747 70.4358 28.8H74.0998C74.0998 28.352 74.0358 27.9573 73.9078 27.616C73.7798 27.2747 73.5824 27.008 73.3158 26.816C73.0598 26.624 72.7291 26.528 72.3238 26.528ZM82.7873 25.376H84.6913L81.3473 29.52L84.9792 34H82.9793L79.4753 29.632V34H77.7473V25.376H79.4753V29.568L82.7873 25.376ZM92.4221 26.736H89.7501V34H88.0381V26.736H85.3981V25.376H92.4221V26.736ZM97.105 25.216C97.8197 25.216 98.4383 25.376 98.961 25.696C99.4837 26.0053 99.8837 26.4533 100.161 27.04C100.449 27.6267 100.593 28.32 100.593 29.12V30.048H95.169C95.1903 30.9333 95.4037 31.6107 95.809 32.08C96.2143 32.5493 96.785 32.784 97.521 32.784C98.0437 32.784 98.5077 32.736 98.913 32.64C99.329 32.5333 99.7503 32.3787 100.177 32.176V33.584C99.7717 33.776 99.3557 33.92 98.929 34.016C98.513 34.112 98.0063 34.16 97.409 34.16C96.6303 34.16 95.937 33.9947 95.329 33.664C94.721 33.3333 94.2463 32.8427 93.905 32.192C93.5637 31.5307 93.393 30.72 93.393 29.76C93.393 28.7893 93.5477 27.968 93.857 27.296C94.1663 26.624 94.5983 26.112 95.153 25.76C95.7183 25.3973 96.369 25.216 97.105 25.216ZM97.105 26.528C96.561 26.528 96.1237 26.7253 95.793 27.12C95.4623 27.5147 95.2703 28.0747 95.217 28.8H98.881C98.881 28.352 98.817 27.9573 98.689 27.616C98.561 27.2747 98.3637 27.008 98.097 26.816C97.841 26.624 97.5103 26.528 97.105 26.528Z" fill="#383553"/>
<path d="M29.56 44.86V51.48H30.32V53.81H29.76V52H24.63V53.81H24.07V51.48H24.59C24.8367 51.0533 25.0667 50.57 25.28 50.03C25.5 49.49 25.69 48.9233 25.85 48.33C26.0167 47.7367 26.15 47.1467 26.25 46.56C26.3567 45.9667 26.4233 45.4 26.45 44.86H29.56ZM26.97 45.39C26.9433 45.85 26.8767 46.35 26.77 46.89C26.67 47.43 26.54 47.9767 26.38 48.53C26.22 49.0833 26.04 49.6133 25.84 50.12C25.6467 50.6267 25.4367 51.08 25.21 51.48H28.99V45.39H26.97ZM35.9316 49.34C35.9316 49.7533 35.8782 50.13 35.7716 50.47C35.6716 50.8033 35.5182 51.0933 35.3116 51.34C35.1116 51.58 34.8616 51.7667 34.5616 51.9C34.2616 52.0333 33.9182 52.1 33.5316 52.1C33.1649 52.1 32.8349 52.0367 32.5416 51.91C32.2549 51.7767 32.0082 51.59 31.8016 51.35C31.5949 51.1033 31.4382 50.81 31.3316 50.47C31.2249 50.13 31.1716 49.7533 31.1716 49.34C31.1716 48.76 31.2649 48.2667 31.4516 47.86C31.6449 47.4467 31.9216 47.13 32.2816 46.91C32.6482 46.69 33.0816 46.58 33.5816 46.58C34.0882 46.58 34.5149 46.6967 34.8616 46.93C35.2149 47.1567 35.4816 47.4767 35.6616 47.89C35.8416 48.3033 35.9316 48.7867 35.9316 49.34ZM31.7616 49.34C31.7616 49.7933 31.8249 50.1933 31.9516 50.54C32.0782 50.88 32.2749 51.1433 32.5416 51.33C32.8082 51.5167 33.1416 51.61 33.5416 51.61C33.9549 51.61 34.2949 51.5167 34.5616 51.33C34.8282 51.1367 35.0249 50.87 35.1516 50.53C35.2782 50.1833 35.3416 49.7867 35.3416 49.34C35.3416 48.8933 35.2816 48.5 35.1616 48.16C35.0416 47.82 34.8516 47.5533 34.5916 47.36C34.3316 47.1667 33.9916 47.07 33.5716 47.07C32.9649 47.07 32.5116 47.27 32.2116 47.67C31.9116 48.07 31.7616 48.6267 31.7616 49.34ZM37.09 48.81C37.09 48.1167 37.1467 47.5233 37.26 47.03C37.3733 46.5367 37.5467 46.1333 37.78 45.82C38.02 45.5 38.3167 45.2633 38.67 45.11C39.03 44.91 39.4467 44.7567 39.92 44.65C40.4 44.5367 40.9333 44.4433 41.52 44.37L41.61 44.87C41.31 44.9033 41.0233 44.9433 40.75 44.99C40.4767 45.0367 40.22 45.09 39.98 45.15C39.7467 45.2033 39.5333 45.2633 39.34 45.33C39.1533 45.3967 38.99 45.4733 38.85 45.56C38.6767 45.6467 38.52 45.7633 38.38 45.91C38.2467 46.0567 38.13 46.2367 38.03 46.45C37.9367 46.6633 37.86 46.91 37.8 47.19C37.74 47.47 37.7033 47.7833 37.69 48.13H37.73C37.85 47.93 38.0033 47.75 38.19 47.59C38.3767 47.4233 38.5933 47.2933 38.84 47.2C39.0933 47.1 39.37 47.05 39.67 47.05C40.1167 47.05 40.4933 47.1467 40.8 47.34C41.1067 47.5267 41.3367 47.8 41.49 48.16C41.65 48.5133 41.73 48.9467 41.73 49.46C41.73 50 41.64 50.47 41.46 50.87C41.2867 51.2633 41.0267 51.5667 40.68 51.78C40.34 51.9933 39.92 52.1 39.42 52.1C39.02 52.1 38.6733 52.02 38.38 51.86C38.0867 51.6933 37.8433 51.4633 37.65 51.17C37.4567 50.87 37.3133 50.52 37.22 50.12C37.1333 49.72 37.09 49.2833 37.09 48.81ZM39.46 51.61C39.84 51.61 40.15 51.53 40.39 51.37C40.6367 51.2033 40.82 50.9633 40.94 50.65C41.0667 50.33 41.13 49.9467 41.13 49.5C41.13 48.86 41 48.3733 40.74 48.04C40.4867 47.7067 40.1033 47.54 39.59 47.54C39.29 47.54 39.0167 47.5967 38.77 47.71C38.53 47.8233 38.3167 47.9767 38.13 48.17C37.9433 48.3567 37.79 48.56 37.67 48.78C37.67 49.14 37.6967 49.49 37.75 49.83C37.8033 50.1633 37.8933 50.4667 38.02 50.74C38.1533 51.0067 38.3367 51.22 38.57 51.38C38.81 51.5333 39.1067 51.61 39.46 51.61ZM45.551 46.58C46.231 46.58 46.761 46.81 47.141 47.27C47.5277 47.73 47.721 48.41 47.721 49.31C47.721 49.91 47.631 50.42 47.451 50.84C47.271 51.2533 47.0143 51.5667 46.681 51.78C46.3543 51.9933 45.961 52.1 45.501 52.1C45.1877 52.1 44.9143 52.0533 44.681 51.96C44.4477 51.8667 44.2543 51.7433 44.101 51.59C43.9477 51.4367 43.8277 51.2667 43.741 51.08H43.701C43.7143 51.2467 43.7243 51.43 43.731 51.63C43.7377 51.8233 43.741 52.0033 43.741 52.17V54.36H43.171V46.68H43.641L43.711 47.68H43.741C43.8277 47.4867 43.951 47.3067 44.111 47.14C44.271 46.9733 44.4677 46.84 44.701 46.74C44.941 46.6333 45.2243 46.58 45.551 46.58ZM45.471 47.07C45.0777 47.07 44.7543 47.1533 44.501 47.32C44.2477 47.4867 44.0577 47.7333 43.931 48.06C43.8043 48.38 43.741 48.7767 43.741 49.25V49.35C43.741 49.85 43.801 50.27 43.921 50.61C44.0477 50.9433 44.2343 51.1933 44.481 51.36C44.7343 51.5267 45.051 51.61 45.431 51.61C45.8043 51.61 46.1143 51.52 46.361 51.34C46.6143 51.1533 46.8043 50.89 46.931 50.55C47.0643 50.2033 47.131 49.79 47.131 49.31C47.131 48.5833 46.9943 48.03 46.721 47.65C46.4477 47.2633 46.031 47.07 45.471 47.07ZM53.6073 49.34C53.6073 49.7533 53.554 50.13 53.4473 50.47C53.3473 50.8033 53.194 51.0933 52.9873 51.34C52.7873 51.58 52.5373 51.7667 52.2373 51.9C51.9373 52.0333 51.594 52.1 51.2073 52.1C50.8407 52.1 50.5107 52.0367 50.2173 51.91C49.9307 51.7767 49.684 51.59 49.4773 51.35C49.2707 51.1033 49.114 50.81 49.0073 50.47C48.9007 50.13 48.8473 49.7533 48.8473 49.34C48.8473 48.76 48.9407 48.2667 49.1273 47.86C49.3207 47.4467 49.5973 47.13 49.9573 46.91C50.324 46.69 50.7573 46.58 51.2573 46.58C51.764 46.58 52.1907 46.6967 52.5373 46.93C52.8907 47.1567 53.1573 47.4767 53.3373 47.89C53.5173 48.3033 53.6073 48.7867 53.6073 49.34ZM49.4373 49.34C49.4373 49.7933 49.5007 50.1933 49.6273 50.54C49.754 50.88 49.9507 51.1433 50.2173 51.33C50.484 51.5167 50.8173 51.61 51.2173 51.61C51.6307 51.61 51.9707 51.5167 52.2373 51.33C52.504 51.1367 52.7007 50.87 52.8273 50.53C52.954 50.1833 53.0173 49.7867 53.0173 49.34C53.0173 48.8933 52.9573 48.5 52.8373 48.16C52.7173 47.82 52.5273 47.5533 52.2673 47.36C52.0073 47.1667 51.6673 47.07 51.2473 47.07C50.6407 47.07 50.1873 47.27 49.8873 47.67C49.5873 48.07 49.4373 48.6267 49.4373 49.34ZM61.9434 46.68V52H61.3734V47.18H58.2234V52H57.6534V46.68H61.9434ZM68.1581 49.34C68.1581 49.7533 68.1048 50.13 67.9981 50.47C67.8981 50.8033 67.7448 51.0933 67.5381 51.34C67.3381 51.58 67.0881 51.7667 66.7881 51.9C66.4881 52.0333 66.1448 52.1 65.7581 52.1C65.3915 52.1 65.0615 52.0367 64.7681 51.91C64.4815 51.7767 64.2348 51.59 64.0281 51.35C63.8215 51.1033 63.6648 50.81 63.5581 50.47C63.4515 50.13 63.3981 49.7533 63.3981 49.34C63.3981 48.76 63.4915 48.2667 63.6781 47.86C63.8715 47.4467 64.1481 47.13 64.5081 46.91C64.8748 46.69 65.3081 46.58 65.8081 46.58C66.3148 46.58 66.7415 46.6967 67.0881 46.93C67.4415 47.1567 67.7081 47.4767 67.8881 47.89C68.0681 48.3033 68.1581 48.7867 68.1581 49.34ZM63.9881 49.34C63.9881 49.7933 64.0515 50.1933 64.1781 50.54C64.3048 50.88 64.5015 51.1433 64.7681 51.33C65.0348 51.5167 65.3681 51.61 65.7681 51.61C66.1815 51.61 66.5215 51.5167 66.7881 51.33C67.0548 51.1367 67.2515 50.87 67.3781 50.53C67.5048 50.1833 67.5681 49.7867 67.5681 49.34C67.5681 48.8933 67.5081 48.5 67.3881 48.16C67.2681 47.82 67.0781 47.5533 66.8181 47.36C66.5581 47.1667 66.2181 47.07 65.7981 47.07C65.1915 47.07 64.7381 47.27 64.4381 47.67C64.1381 48.07 63.9881 48.6267 63.9881 49.34ZM75.1013 46.68L72.8113 49.28L75.2813 52H74.6113L72.2013 49.31V52H71.6613V49.31L69.2513 52H68.5813L71.0513 49.28L68.7513 46.68H69.4013L71.6613 49.27V46.68H72.2013V49.27L74.4613 46.68H75.1013ZM78.1077 46.59C78.7077 46.59 79.1543 46.7367 79.4477 47.03C79.741 47.3233 79.8877 47.79 79.8877 48.43V52H79.4577L79.3577 51.1H79.3277C79.201 51.3 79.0543 51.4767 78.8877 51.63C78.7277 51.7767 78.531 51.8933 78.2977 51.98C78.071 52.06 77.791 52.1 77.4577 52.1C77.1243 52.1 76.8343 52.0433 76.5877 51.93C76.341 51.81 76.151 51.64 76.0177 51.42C75.8843 51.2 75.8177 50.93 75.8177 50.61C75.8177 50.0833 76.0343 49.6833 76.4677 49.41C76.901 49.13 77.531 48.97 78.3577 48.93L79.3277 48.89V48.51C79.3277 47.9833 79.221 47.6133 79.0077 47.4C78.801 47.18 78.491 47.07 78.0777 47.07C77.8043 47.07 77.541 47.1067 77.2877 47.18C77.041 47.2467 76.791 47.3433 76.5377 47.47L76.3577 47.02C76.6043 46.8933 76.8777 46.79 77.1777 46.71C77.4777 46.63 77.7877 46.59 78.1077 46.59ZM78.4177 49.35C77.7443 49.3833 77.241 49.5033 76.9077 49.71C76.5743 49.91 76.4077 50.2133 76.4077 50.62C76.4077 50.9467 76.511 51.1967 76.7177 51.37C76.9243 51.5367 77.2043 51.62 77.5577 51.62C78.1243 51.62 78.5577 51.4633 78.8577 51.15C79.1643 50.8367 79.321 50.3967 79.3277 49.83V49.31L78.4177 49.35ZM85.339 52H84.769V47.17H82.969C82.9023 48.01 82.8257 48.7367 82.739 49.35C82.6523 49.9633 82.539 50.47 82.399 50.87C82.2657 51.27 82.0957 51.5667 81.889 51.76C81.689 51.9533 81.4457 52.05 81.159 52.05C81.0723 52.05 80.9957 52.0467 80.929 52.04C80.8623 52.0333 80.8057 52.0233 80.759 52.01V51.55C80.799 51.5633 80.8423 51.5733 80.889 51.58C80.9357 51.5867 80.9957 51.59 81.069 51.59C81.229 51.59 81.3723 51.5267 81.499 51.4C81.6323 51.2733 81.749 51.0833 81.849 50.83C81.949 50.5767 82.0357 50.2567 82.109 49.87C82.189 49.4767 82.2557 49.0167 82.309 48.49C82.369 47.9567 82.4223 47.3533 82.469 46.68H85.339V52ZM91.5468 49.34C91.5468 49.7533 91.4935 50.13 91.3868 50.47C91.2868 50.8033 91.1335 51.0933 90.9268 51.34C90.7268 51.58 90.4768 51.7667 90.1768 51.9C89.8768 52.0333 89.5335 52.1 89.1468 52.1C88.7801 52.1 88.4501 52.0367 88.1568 51.91C87.8701 51.7767 87.6235 51.59 87.4168 51.35C87.2101 51.1033 87.0535 50.81 86.9468 50.47C86.8401 50.13 86.7868 49.7533 86.7868 49.34C86.7868 48.76 86.8801 48.2667 87.0668 47.86C87.2601 47.4467 87.5368 47.13 87.8968 46.91C88.2635 46.69 88.6968 46.58 89.1968 46.58C89.7035 46.58 90.1301 46.6967 90.4768 46.93C90.8301 47.1567 91.0968 47.4767 91.2768 47.89C91.4568 48.3033 91.5468 48.7867 91.5468 49.34ZM87.3768 49.34C87.3768 49.7933 87.4401 50.1933 87.5668 50.54C87.6935 50.88 87.8901 51.1433 88.1568 51.33C88.4235 51.5167 88.7568 51.61 89.1568 51.61C89.5701 51.61 89.9101 51.5167 90.1768 51.33C90.4435 51.1367 90.6401 50.87 90.7668 50.53C90.8935 50.1833 90.9568 49.7867 90.9568 49.34C90.9568 48.8933 90.8968 48.5 90.7768 48.16C90.6568 47.82 90.4668 47.5533 90.2068 47.36C89.9468 47.1667 89.6068 47.07 89.1868 47.07C88.5801 47.07 88.1268 47.27 87.8268 47.67C87.5268 48.07 87.3768 48.6267 87.3768 49.34ZM97.0352 47.98C97.0352 48.3133 96.9452 48.5767 96.7652 48.77C96.5852 48.9633 96.3486 49.0967 96.0552 49.17V49.2C96.4019 49.2533 96.6852 49.3833 96.9052 49.59C97.1252 49.79 97.2352 50.0867 97.2352 50.48C97.2352 50.7133 97.1952 50.9233 97.1152 51.11C97.0352 51.2967 96.9152 51.4567 96.7552 51.59C96.5952 51.7233 96.3919 51.8267 96.1452 51.9C95.8986 51.9667 95.6052 52 95.2652 52H92.9952V46.68H95.2152C95.6086 46.68 95.9386 46.73 96.2052 46.83C96.4786 46.9233 96.6852 47.0667 96.8252 47.26C96.9652 47.4533 97.0352 47.6933 97.0352 47.98ZM96.6452 50.48C96.6452 50.1133 96.5186 49.85 96.2652 49.69C96.0186 49.53 95.6452 49.45 95.1452 49.45H93.5652V51.52H95.1852C95.6719 51.52 96.0352 51.4367 96.2752 51.27C96.5219 51.1033 96.6452 50.84 96.6452 50.48ZM96.4552 48.04C96.4552 47.76 96.3586 47.5467 96.1652 47.4C95.9719 47.2467 95.6419 47.17 95.1752 47.17H93.5652V48.96H95.1052C95.5652 48.96 95.9052 48.8833 96.1252 48.73C96.3452 48.5767 96.4552 48.3467 96.4552 48.04ZM100.559 46.59C101.159 46.59 101.605 46.7367 101.899 47.03C102.192 47.3233 102.339 47.79 102.339 48.43V52H101.909L101.809 51.1H101.779C101.652 51.3 101.505 51.4767 101.339 51.63C101.179 51.7767 100.982 51.8933 100.749 51.98C100.522 52.06 100.242 52.1 99.9088 52.1C99.5755 52.1 99.2855 52.0433 99.0388 51.93C98.7922 51.81 98.6022 51.64 98.4688 51.42C98.3355 51.2 98.2688 50.93 98.2688 50.61C98.2688 50.0833 98.4855 49.6833 98.9188 49.41C99.3522 49.13 99.9822 48.97 100.809 48.93L101.779 48.89V48.51C101.779 47.9833 101.672 47.6133 101.459 47.4C101.252 47.18 100.942 47.07 100.529 47.07C100.255 47.07 99.9922 47.1067 99.7388 47.18C99.4922 47.2467 99.2422 47.3433 98.9888 47.47L98.8088 47.02C99.0555 46.8933 99.3288 46.79 99.6288 46.71C99.9288 46.63 100.239 46.59 100.559 46.59ZM100.869 49.35C100.195 49.3833 99.6922 49.5033 99.3588 49.71C99.0255 49.91 98.8588 50.2133 98.8588 50.62C98.8588 50.9467 98.9622 51.1967 99.1688 51.37C99.3755 51.5367 99.6555 51.62 100.009 51.62C100.575 51.62 101.009 51.4633 101.309 51.15C101.615 50.8367 101.772 50.3967 101.779 49.83V49.31L100.869 49.35ZM107.48 47.17H105.69V52H105.13V47.17H103.35V46.68H107.48V47.17ZM110.962 48.91C111.388 48.91 111.738 48.97 112.012 49.09C112.292 49.2033 112.498 49.3733 112.632 49.6C112.772 49.82 112.842 50.0867 112.842 50.4C112.842 50.7333 112.768 51.02 112.622 51.26C112.482 51.5 112.265 51.6833 111.972 51.81C111.685 51.9367 111.318 52 110.872 52H108.562V46.68H109.132V48.91H110.962ZM112.272 50.42C112.272 50.0667 112.155 49.81 111.922 49.65C111.688 49.4833 111.345 49.4 110.892 49.4H109.132V51.52H110.832C111.312 51.52 111.672 51.43 111.912 51.25C112.152 51.07 112.272 50.7933 112.272 50.42ZM117.471 46.68V48.99H120.731V46.68H121.301V52H120.731V49.48H117.471V52H116.901V46.68H117.471ZM124.944 46.59C125.544 46.59 125.99 46.7367 126.284 47.03C126.577 47.3233 126.724 47.79 126.724 48.43V52H126.294L126.194 51.1H126.164C126.037 51.3 125.89 51.4767 125.724 51.63C125.564 51.7767 125.367 51.8933 125.134 51.98C124.907 52.06 124.627 52.1 124.294 52.1C123.96 52.1 123.67 52.0433 123.424 51.93C123.177 51.81 122.987 51.64 122.854 51.42C122.72 51.2 122.654 50.93 122.654 50.61C122.654 50.0833 122.87 49.6833 123.304 49.41C123.737 49.13 124.367 48.97 125.194 48.93L126.164 48.89V48.51C126.164 47.9833 126.057 47.6133 125.844 47.4C125.637 47.18 125.327 47.07 124.914 47.07C124.64 47.07 124.377 47.1067 124.124 47.18C123.877 47.2467 123.627 47.3433 123.374 47.47L123.194 47.02C123.44 46.8933 123.714 46.79 124.014 46.71C124.314 46.63 124.624 46.59 124.944 46.59ZM125.254 49.35C124.58 49.3833 124.077 49.5033 123.744 49.71C123.41 49.91 123.244 50.2133 123.244 50.62C123.244 50.9467 123.347 51.1967 123.554 51.37C123.76 51.5367 124.04 51.62 124.394 51.62C124.96 51.62 125.394 51.4633 125.694 51.15C126 50.8367 126.157 50.3967 126.164 49.83V49.31L125.254 49.35ZM134.363 50.59C134.363 50.91 134.283 51.1833 134.123 51.41C133.963 51.6367 133.729 51.81 133.423 51.93C133.116 52.0433 132.743 52.1 132.303 52.1C131.936 52.1 131.609 52.0667 131.323 52C131.036 51.9333 130.793 51.8533 130.593 51.76V51.21C130.833 51.33 131.103 51.43 131.403 51.51C131.703 51.5833 132.006 51.62 132.313 51.62C132.846 51.62 133.229 51.5333 133.463 51.36C133.696 51.18 133.813 50.9367 133.813 50.63C133.813 50.43 133.756 50.2667 133.643 50.14C133.536 50.0067 133.373 49.89 133.153 49.79C132.939 49.6833 132.673 49.5767 132.353 49.47C132.026 49.3567 131.736 49.2433 131.483 49.13C131.229 49.01 131.033 48.86 130.893 48.68C130.753 48.5 130.683 48.2533 130.683 47.94C130.683 47.5133 130.856 47.18 131.203 46.94C131.549 46.7 132.013 46.58 132.593 46.58C132.913 46.58 133.209 46.61 133.483 46.67C133.763 46.73 134.016 46.81 134.243 46.91L134.043 47.38C133.909 47.32 133.759 47.2667 133.593 47.22C133.426 47.1667 133.256 47.1267 133.083 47.1C132.909 47.0733 132.736 47.06 132.563 47.06C132.143 47.06 131.816 47.1333 131.583 47.28C131.349 47.4267 131.233 47.64 131.233 47.92C131.233 48.1333 131.286 48.3033 131.393 48.43C131.506 48.55 131.669 48.6533 131.883 48.74C132.103 48.8267 132.366 48.9267 132.673 49.04C132.986 49.1467 133.269 49.26 133.523 49.38C133.783 49.5 133.986 49.6533 134.133 49.84C134.286 50.0267 134.363 50.2767 134.363 50.59ZM137.58 46.59C138.18 46.59 138.627 46.7367 138.92 47.03C139.214 47.3233 139.36 47.79 139.36 48.43V52H138.93L138.83 51.1H138.8C138.674 51.3 138.527 51.4767 138.36 51.63C138.2 51.7767 138.004 51.8933 137.77 51.98C137.544 52.06 137.264 52.1 136.93 52.1C136.597 52.1 136.307 52.0433 136.06 51.93C135.814 51.81 135.624 51.64 135.49 51.42C135.357 51.2 135.29 50.93 135.29 50.61C135.29 50.0833 135.507 49.6833 135.94 49.41C136.374 49.13 137.004 48.97 137.83 48.93L138.8 48.89V48.51C138.8 47.9833 138.694 47.6133 138.48 47.4C138.274 47.18 137.964 47.07 137.55 47.07C137.277 47.07 137.014 47.1067 136.76 47.18C136.514 47.2467 136.264 47.3433 136.01 47.47L135.83 47.02C136.077 46.8933 136.35 46.79 136.65 46.71C136.95 46.63 137.26 46.59 137.58 46.59ZM137.89 49.35C137.217 49.3833 136.714 49.5033 136.38 49.71C136.047 49.91 135.88 50.2133 135.88 50.62C135.88 50.9467 135.984 51.1967 136.19 51.37C136.397 51.5367 136.677 51.62 137.03 51.62C137.597 51.62 138.03 51.4633 138.33 51.15C138.637 50.8367 138.794 50.3967 138.8 49.83V49.31L137.89 49.35ZM141.632 52H141.062V44.4H141.632V52ZM147.836 49.34C147.836 49.7533 147.783 50.13 147.676 50.47C147.576 50.8033 147.423 51.0933 147.216 51.34C147.016 51.58 146.766 51.7667 146.466 51.9C146.166 52.0333 145.823 52.1 145.436 52.1C145.069 52.1 144.739 52.0367 144.446 51.91C144.159 51.7767 143.913 51.59 143.706 51.35C143.499 51.1033 143.343 50.81 143.236 50.47C143.129 50.13 143.076 49.7533 143.076 49.34C143.076 48.76 143.169 48.2667 143.356 47.86C143.549 47.4467 143.826 47.13 144.186 46.91C144.553 46.69 144.986 46.58 145.486 46.58C145.993 46.58 146.419 46.6967 146.766 46.93C147.119 47.1567 147.386 47.4767 147.566 47.89C147.746 48.3033 147.836 48.7867 147.836 49.34ZM143.666 49.34C143.666 49.7933 143.729 50.1933 143.856 50.54C143.983 50.88 144.179 51.1433 144.446 51.33C144.713 51.5167 145.046 51.61 145.446 51.61C145.859 51.61 146.199 51.5167 146.466 51.33C146.733 51.1367 146.929 50.87 147.056 50.53C147.183 50.1833 147.246 49.7867 147.246 49.34C147.246 48.8933 147.186 48.5 147.066 48.16C146.946 47.82 146.756 47.5533 146.496 47.36C146.236 47.1667 145.896 47.07 145.476 47.07C144.869 47.07 144.416 47.27 144.116 47.67C143.816 48.07 143.666 48.6267 143.666 49.34ZM154.834 46.58C155.368 46.58 155.781 46.73 156.074 47.03C156.374 47.33 156.524 47.8033 156.524 48.45V52H155.954V48.47C155.954 47.9967 155.848 47.6467 155.634 47.42C155.421 47.1867 155.131 47.07 154.764 47.07C154.251 47.07 153.858 47.22 153.584 47.52C153.318 47.8133 153.184 48.27 153.184 48.89V52H152.614V48.47C152.614 48.15 152.564 47.8867 152.464 47.68C152.371 47.4733 152.234 47.32 152.054 47.22C151.881 47.12 151.668 47.07 151.414 47.07C151.081 47.07 150.798 47.14 150.564 47.28C150.331 47.42 150.151 47.63 150.024 47.91C149.904 48.19 149.844 48.5467 149.844 48.98V52H149.284V46.68H149.734L149.824 47.53H149.854C149.948 47.35 150.068 47.19 150.214 47.05C150.368 46.91 150.551 46.7967 150.764 46.71C150.978 46.6233 151.221 46.58 151.494 46.58C151.888 46.58 152.218 46.6633 152.484 46.83C152.751 46.9967 152.938 47.2467 153.044 47.58H153.084C153.238 47.26 153.464 47.0133 153.764 46.84C154.071 46.6667 154.428 46.58 154.834 46.58ZM160.09 46.59C160.69 46.59 161.137 46.7367 161.43 47.03C161.723 47.3233 161.87 47.79 161.87 48.43V52H161.44L161.34 51.1H161.31C161.183 51.3 161.037 51.4767 160.87 51.63C160.71 51.7767 160.513 51.8933 160.28 51.98C160.053 52.06 159.773 52.1 159.44 52.1C159.107 52.1 158.817 52.0433 158.57 51.93C158.323 51.81 158.133 51.64 158 51.42C157.867 51.2 157.8 50.93 157.8 50.61C157.8 50.0833 158.017 49.6833 158.45 49.41C158.883 49.13 159.513 48.97 160.34 48.93L161.31 48.89V48.51C161.31 47.9833 161.203 47.6133 160.99 47.4C160.783 47.18 160.473 47.07 160.06 47.07C159.787 47.07 159.523 47.1067 159.27 47.18C159.023 47.2467 158.773 47.3433 158.52 47.47L158.34 47.02C158.587 46.8933 158.86 46.79 159.16 46.71C159.46 46.63 159.77 46.59 160.09 46.59ZM160.4 49.35C159.727 49.3833 159.223 49.5033 158.89 49.71C158.557 49.91 158.39 50.2133 158.39 50.62C158.39 50.9467 158.493 51.1967 158.7 51.37C158.907 51.5367 159.187 51.62 159.54 51.62C160.107 51.62 160.54 51.4633 160.84 51.15C161.147 50.8367 161.303 50.3967 161.31 49.83V49.31L160.4 49.35ZM165.071 51.62C165.218 51.62 165.358 51.61 165.491 51.59C165.625 51.5633 165.741 51.5333 165.841 51.5V51.96C165.741 52 165.615 52.0333 165.461 52.06C165.315 52.0867 165.158 52.1 164.991 52.1C164.698 52.1 164.448 52.0467 164.241 51.94C164.035 51.8267 163.875 51.6533 163.761 51.42C163.655 51.1867 163.601 50.8867 163.601 50.52V47.14H162.821V46.82L163.601 46.64L163.811 45.41H164.171V46.68H165.811V47.14H164.171V50.5C164.171 50.8667 164.245 51.1467 164.391 51.34C164.538 51.5267 164.765 51.62 165.071 51.62ZM166.88 51.62C166.88 51.4533 166.917 51.33 166.99 51.25C167.063 51.17 167.167 51.13 167.3 51.13C167.447 51.13 167.557 51.17 167.63 51.25C167.71 51.33 167.75 51.4533 167.75 51.62C167.75 51.78 167.71 51.9033 167.63 51.99C167.557 52.07 167.447 52.11 167.3 52.11C167.167 52.11 167.063 52.07 166.99 51.99C166.917 51.9033 166.88 51.78 166.88 51.62ZM170.911 51.62C171.058 51.62 171.198 51.61 171.331 51.59C171.465 51.5633 171.581 51.5333 171.681 51.5V51.96C171.581 52 171.455 52.0333 171.301 52.06C171.155 52.0867 170.998 52.1 170.831 52.1C170.538 52.1 170.288 52.0467 170.081 51.94C169.875 51.8267 169.715 51.6533 169.601 51.42C169.495 51.1867 169.441 50.8867 169.441 50.52V47.14H168.661V46.82L169.441 46.64L169.651 45.41H170.011V46.68H171.651V47.14H170.011V50.5C170.011 50.8667 170.085 51.1467 170.231 51.34C170.378 51.5267 170.605 51.62 170.911 51.62ZM172.09 54.4C171.943 54.4 171.816 54.39 171.71 54.37C171.596 54.35 171.496 54.3233 171.41 54.29V53.81C171.51 53.8433 171.613 53.8667 171.72 53.88C171.82 53.9 171.926 53.91 172.04 53.91C172.28 53.91 172.466 53.8367 172.6 53.69C172.74 53.5433 172.81 53.3133 172.81 53V46.68H173.37V53C173.37 53.3 173.32 53.5533 173.22 53.76C173.12 53.9733 172.973 54.1333 172.78 54.24C172.593 54.3467 172.363 54.4 172.09 54.4ZM172.71 45.14C172.71 45.0067 172.743 44.9033 172.81 44.83C172.876 44.75 172.97 44.71 173.09 44.71C173.216 44.71 173.313 44.75 173.38 44.83C173.446 44.9033 173.48 45.0067 173.48 45.14C173.48 45.28 173.446 45.39 173.38 45.47C173.313 45.5433 173.216 45.58 173.09 45.58C172.97 45.58 172.876 45.5433 172.81 45.47C172.743 45.39 172.71 45.28 172.71 45.14ZM175.044 51.62C175.044 51.4533 175.081 51.33 175.154 51.25C175.227 51.17 175.331 51.13 175.464 51.13C175.611 51.13 175.721 51.17 175.794 51.25C175.874 51.33 175.914 51.4533 175.914 51.62C175.914 51.78 175.874 51.9033 175.794 51.99C175.721 52.07 175.611 52.11 175.464 52.11C175.331 52.11 175.227 52.07 175.154 51.99C175.081 51.9033 175.044 51.78 175.044 51.62ZM184.853 44.86V51.48H185.613V53.81H185.053V52H179.923V53.81H179.363V51.48H179.883C180.13 51.0533 180.36 50.57 180.573 50.03C180.793 49.49 180.983 48.9233 181.143 48.33C181.31 47.7367 181.443 47.1467 181.543 46.56C181.65 45.9667 181.716 45.4 181.743 44.86H184.853ZM182.263 45.39C182.236 45.85 182.17 46.35 182.063 46.89C181.963 47.43 181.833 47.9767 181.673 48.53C181.513 49.0833 181.333 49.6133 181.133 50.12C180.94 50.6267 180.73 51.08 180.503 51.48H184.283V45.39H182.263ZM188.785 46.58C189.245 46.58 189.625 46.6867 189.925 46.9C190.231 47.1067 190.461 47.3933 190.615 47.76C190.775 48.1267 190.855 48.55 190.855 49.03V49.41H187.055C187.055 50.1233 187.218 50.6667 187.545 51.04C187.878 51.4133 188.348 51.6 188.955 51.6C189.288 51.6 189.578 51.5733 189.825 51.52C190.071 51.4667 190.341 51.3733 190.635 51.24V51.76C190.368 51.88 190.105 51.9667 189.845 52.02C189.585 52.0733 189.281 52.1 188.935 52.1C188.408 52.1 187.958 51.99 187.585 51.77C187.218 51.55 186.938 51.2367 186.745 50.83C186.558 50.4167 186.465 49.9367 186.465 49.39C186.465 48.8433 186.555 48.36 186.735 47.94C186.915 47.52 187.178 47.19 187.525 46.95C187.871 46.7033 188.291 46.58 188.785 46.58ZM188.785 47.06C188.291 47.06 187.895 47.2233 187.595 47.55C187.295 47.87 187.118 48.3333 187.065 48.94H190.265C190.265 48.5667 190.211 48.24 190.105 47.96C189.998 47.68 189.835 47.46 189.615 47.3C189.401 47.14 189.125 47.06 188.785 47.06ZM196.042 52H195.472V47.17H193.672C193.605 48.01 193.529 48.7367 193.442 49.35C193.355 49.9633 193.242 50.47 193.102 50.87C192.969 51.27 192.799 51.5667 192.592 51.76C192.392 51.9533 192.149 52.05 191.862 52.05C191.775 52.05 191.699 52.0467 191.632 52.04C191.565 52.0333 191.509 52.0233 191.462 52.01V51.55C191.502 51.5633 191.545 51.5733 191.592 51.58C191.639 51.5867 191.699 51.59 191.772 51.59C191.932 51.59 192.075 51.5267 192.202 51.4C192.335 51.2733 192.452 51.0833 192.552 50.83C192.652 50.5767 192.739 50.2567 192.812 49.87C192.892 49.4767 192.959 49.0167 193.012 48.49C193.072 47.9567 193.125 47.3533 193.172 46.68H196.042V52ZM199.68 46.59C200.28 46.59 200.727 46.7367 201.02 47.03C201.313 47.3233 201.46 47.79 201.46 48.43V52H201.03L200.93 51.1H200.9C200.773 51.3 200.627 51.4767 200.46 51.63C200.3 51.7767 200.103 51.8933 199.87 51.98C199.643 52.06 199.363 52.1 199.03 52.1C198.697 52.1 198.407 52.0433 198.16 51.93C197.913 51.81 197.723 51.64 197.59 51.42C197.457 51.2 197.39 50.93 197.39 50.61C197.39 50.0833 197.607 49.6833 198.04 49.41C198.473 49.13 199.103 48.97 199.93 48.93L200.9 48.89V48.51C200.9 47.9833 200.793 47.6133 200.58 47.4C200.373 47.18 200.063 47.07 199.65 47.07C199.377 47.07 199.113 47.1067 198.86 47.18C198.613 47.2467 198.363 47.3433 198.11 47.47L197.93 47.02C198.177 46.8933 198.45 46.79 198.75 46.71C199.05 46.63 199.36 46.59 199.68 46.59ZM199.99 49.35C199.317 49.3833 198.813 49.5033 198.48 49.71C198.147 49.91 197.98 50.2133 197.98 50.62C197.98 50.9467 198.083 51.1967 198.29 51.37C198.497 51.5367 198.777 51.62 199.13 51.62C199.697 51.62 200.13 51.4633 200.43 51.15C200.737 50.8367 200.893 50.3967 200.9 49.83V49.31L199.99 49.35ZM205.171 46.58C205.631 46.58 206.011 46.6867 206.311 46.9C206.618 47.1067 206.848 47.3933 207.001 47.76C207.161 48.1267 207.241 48.55 207.241 49.03V49.41H203.441C203.441 50.1233 203.605 50.6667 203.931 51.04C204.265 51.4133 204.735 51.6 205.341 51.6C205.675 51.6 205.965 51.5733 206.211 51.52C206.458 51.4667 206.728 51.3733 207.021 51.24V51.76C206.755 51.88 206.491 51.9667 206.231 52.02C205.971 52.0733 205.668 52.1 205.321 52.1C204.795 52.1 204.345 51.99 203.971 51.77C203.605 51.55 203.325 51.2367 203.131 50.83C202.945 50.4167 202.851 49.9367 202.851 49.39C202.851 48.8433 202.941 48.36 203.121 47.94C203.301 47.52 203.565 47.19 203.911 46.95C204.258 46.7033 204.678 46.58 205.171 46.58ZM205.171 47.06C204.678 47.06 204.281 47.2233 203.981 47.55C203.681 47.87 203.505 48.3333 203.451 48.94H206.651C206.651 48.5667 206.598 48.24 206.491 47.96C206.385 47.68 206.221 47.46 206.001 47.3C205.788 47.14 205.511 47.06 205.171 47.06ZM213.959 46.68V52H213.429V48.26C213.429 48.12 213.432 47.9833 213.439 47.85C213.445 47.71 213.452 47.5667 213.459 47.42H213.439L211.549 52H211.059L209.189 47.41H209.159C209.172 47.5567 209.179 47.7 209.179 47.84C209.179 47.98 209.179 48.13 209.179 48.29V52H208.659V46.68H209.429L211.299 51.3L213.189 46.68H213.959ZM29.17 60.68V66H28.6V61.18H25.45V66H24.88V60.68H29.17ZM35.3847 63.34C35.3847 63.7533 35.3314 64.13 35.2247 64.47C35.1247 64.8033 34.9714 65.0933 34.7647 65.34C34.5647 65.58 34.3147 65.7667 34.0147 65.9C33.7147 66.0333 33.3714 66.1 32.9847 66.1C32.618 66.1 32.288 66.0367 31.9947 65.91C31.708 65.7767 31.4614 65.59 31.2547 65.35C31.048 65.1033 30.8914 64.81 30.7847 64.47C30.678 64.13 30.6247 63.7533 30.6247 63.34C30.6247 62.76 30.718 62.2667 30.9047 61.86C31.098 61.4467 31.3747 61.13 31.7347 60.91C32.1014 60.69 32.5347 60.58 33.0347 60.58C33.5414 60.58 33.968 60.6967 34.3147 60.93C34.668 61.1567 34.9347 61.4767 35.1147 61.89C35.2947 62.3033 35.3847 62.7867 35.3847 63.34ZM31.2147 63.34C31.2147 63.7933 31.278 64.1933 31.4047 64.54C31.5314 64.88 31.728 65.1433 31.9947 65.33C32.2614 65.5167 32.5947 65.61 32.9947 65.61C33.408 65.61 33.748 65.5167 34.0147 65.33C34.2814 65.1367 34.478 64.87 34.6047 64.53C34.7314 64.1833 34.7947 63.7867 34.7947 63.34C34.7947 62.8933 34.7347 62.5 34.6147 62.16C34.4947 61.82 34.3047 61.5533 34.0447 61.36C33.7847 61.1667 33.4447 61.07 33.0247 61.07C32.418 61.07 31.9647 61.27 31.6647 61.67C31.3647 62.07 31.2147 62.6267 31.2147 63.34ZM39.7731 60.68H40.4231L38.0431 63.26L40.5731 66H39.8831L37.4031 63.31V66H36.8331V60.68H37.4031V63.27L39.7731 60.68ZM40.6797 60.68H41.2897L42.5497 63.99C42.623 64.1833 42.6897 64.3633 42.7497 64.53C42.8097 64.6967 42.863 64.8533 42.9097 65C42.9564 65.14 42.9964 65.27 43.0297 65.39H43.0597C43.1064 65.2367 43.1697 65.04 43.2497 64.8C43.3297 64.5533 43.423 64.2867 43.5297 64L44.7697 60.68H45.3797L42.9797 66.95C42.8597 67.2567 42.7264 67.52 42.5797 67.74C42.433 67.96 42.2597 68.1267 42.0597 68.24C41.8597 68.36 41.6197 68.42 41.3397 68.42C41.213 68.42 41.0964 68.41 40.9897 68.39C40.8897 68.3767 40.793 68.3567 40.6997 68.33V67.85C40.7864 67.87 40.873 67.8867 40.9597 67.9C41.053 67.92 41.1564 67.93 41.2697 67.93C41.4564 67.93 41.6197 67.89 41.7597 67.81C41.8997 67.7367 42.023 67.62 42.1297 67.46C42.2364 67.3067 42.333 67.1133 42.4197 66.88L42.7697 65.98L40.6797 60.68ZM50.5372 60.68V66H49.9672V61.18H46.8172V66H46.2472V60.68H50.5372ZM55.2419 60.68H55.8919L53.5119 63.26L56.0419 66H55.3519L52.8719 63.31V66H52.3019V60.68H52.8719V63.27L55.2419 60.68ZM56.1484 60.68H56.7584L58.0184 63.99C58.0918 64.1833 58.1584 64.3633 58.2184 64.53C58.2784 64.6967 58.3318 64.8533 58.3784 65C58.4251 65.14 58.4651 65.27 58.4984 65.39H58.5284C58.5751 65.2367 58.6384 65.04 58.7184 64.8C58.7984 64.5533 58.8918 64.2867 58.9984 64L60.2384 60.68H60.8484L58.4484 66.95C58.3284 67.2567 58.1951 67.52 58.0484 67.74C57.9018 67.96 57.7284 68.1267 57.5284 68.24C57.3284 68.36 57.0884 68.42 56.8084 68.42C56.6818 68.42 56.5651 68.41 56.4584 68.39C56.3584 68.3767 56.2618 68.3567 56.1684 68.33V67.85C56.2551 67.87 56.3418 67.8867 56.4284 67.9C56.5218 67.92 56.6251 67.93 56.7384 67.93C56.9251 67.93 57.0884 67.89 57.2284 67.81C57.3684 67.7367 57.4918 67.62 57.5984 67.46C57.7051 67.3067 57.8018 67.1133 57.8884 66.88L58.2384 65.98L56.1484 60.68ZM68.0636 66H67.4936V61.17H65.6936C65.6269 62.01 65.5503 62.7367 65.4636 63.35C65.3769 63.9633 65.2636 64.47 65.1236 64.87C64.9903 65.27 64.8203 65.5667 64.6136 65.76C64.4136 65.9533 64.1703 66.05 63.8836 66.05C63.7969 66.05 63.7203 66.0467 63.6536 66.04C63.5869 66.0333 63.5303 66.0233 63.4836 66.01V65.55C63.5236 65.5633 63.5669 65.5733 63.6136 65.58C63.6603 65.5867 63.7203 65.59 63.7936 65.59C63.9536 65.59 64.0969 65.5267 64.2236 65.4C64.3569 65.2733 64.4736 65.0833 64.5736 64.83C64.6736 64.5767 64.7603 64.2567 64.8336 63.87C64.9136 63.4767 64.9803 63.0167 65.0336 62.49C65.0936 61.9567 65.1469 61.3533 65.1936 60.68H68.0636V66ZM71.8314 60.58C72.2914 60.58 72.6714 60.6867 72.9714 60.9C73.2781 61.1067 73.5081 61.3933 73.6614 61.76C73.8214 62.1267 73.9014 62.55 73.9014 63.03V63.41H70.1014C70.1014 64.1233 70.2647 64.6667 70.5914 65.04C70.9247 65.4133 71.3947 65.6 72.0014 65.6C72.3347 65.6 72.6247 65.5733 72.8714 65.52C73.1181 65.4667 73.3881 65.3733 73.6814 65.24V65.76C73.4147 65.88 73.1514 65.9667 72.8914 66.02C72.6314 66.0733 72.3281 66.1 71.9814 66.1C71.4547 66.1 71.0047 65.99 70.6314 65.77C70.2647 65.55 69.9847 65.2367 69.7914 64.83C69.6047 64.4167 69.5114 63.9367 69.5114 63.39C69.5114 62.8433 69.6014 62.36 69.7814 61.94C69.9614 61.52 70.2247 61.19 70.5714 60.95C70.9181 60.7033 71.3381 60.58 71.8314 60.58ZM71.8314 61.06C71.3381 61.06 70.9414 61.2233 70.6414 61.55C70.3414 61.87 70.1647 62.3333 70.1114 62.94H73.3114C73.3114 62.5667 73.2581 62.24 73.1514 61.96C73.0447 61.68 72.8814 61.46 72.6614 61.3C72.4481 61.14 72.1714 61.06 71.8314 61.06ZM78.279 60.68H78.929L76.549 63.26L79.079 66H78.389L75.909 63.31V66H75.339V60.68H75.909V63.27L78.279 60.68ZM81.9455 60.59C82.5455 60.59 82.9922 60.7367 83.2855 61.03C83.5789 61.3233 83.7255 61.79 83.7255 62.43V66H83.2955L83.1955 65.1H83.1655C83.0389 65.3 82.8922 65.4767 82.7255 65.63C82.5655 65.7767 82.3689 65.8933 82.1355 65.98C81.9089 66.06 81.6289 66.1 81.2955 66.1C80.9622 66.1 80.6722 66.0433 80.4255 65.93C80.1789 65.81 79.9889 65.64 79.8555 65.42C79.7222 65.2 79.6555 64.93 79.6555 64.61C79.6555 64.0833 79.8722 63.6833 80.3055 63.41C80.7389 63.13 81.3689 62.97 82.1955 62.93L83.1655 62.89V62.51C83.1655 61.9833 83.0589 61.6133 82.8455 61.4C82.6389 61.18 82.3289 61.07 81.9155 61.07C81.6422 61.07 81.3789 61.1067 81.1255 61.18C80.8789 61.2467 80.6289 61.3433 80.3755 61.47L80.1955 61.02C80.4422 60.8933 80.7155 60.79 81.0155 60.71C81.3155 60.63 81.6255 60.59 81.9455 60.59ZM82.2555 63.35C81.5822 63.3833 81.0789 63.5033 80.7455 63.71C80.4122 63.91 80.2455 64.2133 80.2455 64.62C80.2455 64.9467 80.3489 65.1967 80.5555 65.37C80.7622 65.5367 81.0422 65.62 81.3955 65.62C81.9622 65.62 82.3955 65.4633 82.6955 65.15C83.0022 64.8367 83.1589 64.3967 83.1655 63.83V63.31L82.2555 63.35ZM87.8069 60.58C88.4869 60.58 89.0169 60.81 89.3969 61.27C89.7835 61.73 89.9769 62.41 89.9769 63.31C89.9769 63.91 89.8869 64.42 89.7069 64.84C89.5269 65.2533 89.2702 65.5667 88.9369 65.78C88.6102 65.9933 88.2169 66.1 87.7569 66.1C87.4435 66.1 87.1702 66.0533 86.9369 65.96C86.7035 65.8667 86.5102 65.7433 86.3569 65.59C86.2035 65.4367 86.0835 65.2667 85.9969 65.08H85.9569C85.9702 65.2467 85.9802 65.43 85.9869 65.63C85.9935 65.8233 85.9969 66.0033 85.9969 66.17V68.36H85.4269V60.68H85.8969L85.9669 61.68H85.9969C86.0835 61.4867 86.2069 61.3067 86.3669 61.14C86.5269 60.9733 86.7235 60.84 86.9569 60.74C87.1969 60.6333 87.4802 60.58 87.8069 60.58ZM87.7269 61.07C87.3335 61.07 87.0102 61.1533 86.7569 61.32C86.5035 61.4867 86.3135 61.7333 86.1869 62.06C86.0602 62.38 85.9969 62.7767 85.9969 63.25V63.35C85.9969 63.85 86.0569 64.27 86.1769 64.61C86.3035 64.9433 86.4902 65.1933 86.7369 65.36C86.9902 65.5267 87.3069 65.61 87.6869 65.61C88.0602 65.61 88.3702 65.52 88.6169 65.34C88.8702 65.1533 89.0602 64.89 89.1869 64.55C89.3202 64.2033 89.3869 63.79 89.3869 63.31C89.3869 62.5833 89.2502 62.03 88.9769 61.65C88.7035 61.2633 88.2869 61.07 87.7269 61.07ZM93.5432 66.1C93.0232 66.1 92.5799 65.9933 92.2132 65.78C91.8532 65.56 91.5765 65.2467 91.3832 64.84C91.1965 64.4333 91.1032 63.9433 91.1032 63.37C91.1032 62.77 91.2099 62.2633 91.4232 61.85C91.6432 61.4367 91.9432 61.1233 92.3232 60.91C92.7032 60.69 93.1499 60.58 93.6632 60.58C93.9165 60.58 94.1532 60.6067 94.3732 60.66C94.5999 60.7067 94.7999 60.77 94.9732 60.85L94.8232 61.33C94.6432 61.2567 94.4499 61.2 94.2432 61.16C94.0365 61.1133 93.8399 61.09 93.6532 61.09C93.2265 61.09 92.8665 61.1833 92.5732 61.37C92.2865 61.55 92.0665 61.81 91.9132 62.15C91.7665 62.49 91.6932 62.8967 91.6932 63.37C91.6932 63.81 91.7565 64.2 91.8832 64.54C92.0165 64.8733 92.2199 65.1333 92.4932 65.32C92.7665 65.5067 93.1165 65.6 93.5432 65.6C93.8032 65.6 94.0465 65.5733 94.2732 65.52C94.5065 65.4667 94.7199 65.3967 94.9132 65.31V65.83C94.7399 65.9033 94.5399 65.9667 94.3132 66.02C94.0865 66.0733 93.8299 66.1 93.5432 66.1ZM99.6091 61.17H97.8191V66H97.2591V61.17H95.4791V60.68H99.6091V61.17ZM104.731 61.98C104.731 62.3133 104.641 62.5767 104.461 62.77C104.281 62.9633 104.044 63.0967 103.751 63.17V63.2C104.097 63.2533 104.381 63.3833 104.601 63.59C104.821 63.79 104.931 64.0867 104.931 64.48C104.931 64.7133 104.891 64.9233 104.811 65.11C104.731 65.2967 104.611 65.4567 104.451 65.59C104.291 65.7233 104.087 65.8267 103.841 65.9C103.594 65.9667 103.301 66 102.961 66H100.691V60.68H102.911C103.304 60.68 103.634 60.73 103.901 60.83C104.174 60.9233 104.381 61.0667 104.521 61.26C104.661 61.4533 104.731 61.6933 104.731 61.98ZM104.341 64.48C104.341 64.1133 104.214 63.85 103.961 63.69C103.714 63.53 103.341 63.45 102.841 63.45H101.261V65.52H102.881C103.367 65.52 103.731 65.4367 103.971 65.27C104.217 65.1033 104.341 64.84 104.341 64.48ZM104.151 62.04C104.151 61.76 104.054 61.5467 103.861 61.4C103.667 61.2467 103.337 61.17 102.871 61.17H101.261V62.96H102.801C103.261 62.96 103.601 62.8833 103.821 62.73C104.041 62.5767 104.151 62.3467 104.151 62.04ZM112.662 60.68V65.51H113.392V67.81H112.832V66H108.842V67.81H108.292V65.51H108.662C108.962 65.09 109.212 64.6267 109.412 64.12C109.612 63.6133 109.765 63.07 109.872 62.49C109.978 61.91 110.035 61.3067 110.042 60.68H112.662ZM110.562 61.15C110.535 61.71 110.468 62.2533 110.362 62.78C110.255 63.3 110.112 63.79 109.932 64.25C109.752 64.71 109.532 65.13 109.272 65.51H112.112V61.15H110.562ZM118.949 63.34C118.949 63.7533 118.896 64.13 118.789 64.47C118.689 64.8033 118.536 65.0933 118.329 65.34C118.129 65.58 117.879 65.7667 117.579 65.9C117.279 66.0333 116.936 66.1 116.549 66.1C116.182 66.1 115.852 66.0367 115.559 65.91C115.272 65.7767 115.026 65.59 114.819 65.35C114.612 65.1033 114.456 64.81 114.349 64.47C114.242 64.13 114.189 63.7533 114.189 63.34C114.189 62.76 114.282 62.2667 114.469 61.86C114.662 61.4467 114.939 61.13 115.299 60.91C115.666 60.69 116.099 60.58 116.599 60.58C117.106 60.58 117.532 60.6967 117.879 60.93C118.232 61.1567 118.499 61.4767 118.679 61.89C118.859 62.3033 118.949 62.7867 118.949 63.34ZM114.779 63.34C114.779 63.7933 114.842 64.1933 114.969 64.54C115.096 64.88 115.292 65.1433 115.559 65.33C115.826 65.5167 116.159 65.61 116.559 65.61C116.972 65.61 117.312 65.5167 117.579 65.33C117.846 65.1367 118.042 64.87 118.169 64.53C118.296 64.1833 118.359 63.7867 118.359 63.34C118.359 62.8933 118.299 62.5 118.179 62.16C118.059 61.82 117.869 61.5533 117.609 61.36C117.349 61.1667 117.009 61.07 116.589 61.07C115.982 61.07 115.529 61.27 115.229 61.67C114.929 62.07 114.779 62.6267 114.779 63.34ZM122.528 66.1C122.008 66.1 121.564 65.9933 121.198 65.78C120.838 65.56 120.561 65.2467 120.368 64.84C120.181 64.4333 120.088 63.9433 120.088 63.37C120.088 62.77 120.194 62.2633 120.408 61.85C120.628 61.4367 120.928 61.1233 121.308 60.91C121.688 60.69 122.134 60.58 122.648 60.58C122.901 60.58 123.138 60.6067 123.358 60.66C123.584 60.7067 123.784 60.77 123.958 60.85L123.808 61.33C123.628 61.2567 123.434 61.2 123.228 61.16C123.021 61.1133 122.824 61.09 122.638 61.09C122.211 61.09 121.851 61.1833 121.558 61.37C121.271 61.55 121.051 61.81 120.898 62.15C120.751 62.49 120.678 62.8967 120.678 63.37C120.678 63.81 120.741 64.2 120.868 64.54C121.001 64.8733 121.204 65.1333 121.478 65.32C121.751 65.5067 122.101 65.6 122.528 65.6C122.788 65.6 123.031 65.5733 123.258 65.52C123.491 65.4667 123.704 65.3967 123.898 65.31V65.83C123.724 65.9033 123.524 65.9667 123.298 66.02C123.071 66.0733 122.814 66.1 122.528 66.1ZM128.593 61.17H126.803V66H126.243V61.17H124.463V60.68H128.593V61.17ZM128.795 60.68H129.405L130.665 63.99C130.738 64.1833 130.805 64.3633 130.865 64.53C130.925 64.6967 130.978 64.8533 131.025 65C131.072 65.14 131.112 65.27 131.145 65.39H131.175C131.222 65.2367 131.285 65.04 131.365 64.8C131.445 64.5533 131.538 64.2867 131.645 64L132.885 60.68H133.495L131.095 66.95C130.975 67.2567 130.842 67.52 130.695 67.74C130.548 67.96 130.375 68.1267 130.175 68.24C129.975 68.36 129.735 68.42 129.455 68.42C129.328 68.42 129.212 68.41 129.105 68.39C129.005 68.3767 128.908 68.3567 128.815 68.33V67.85C128.902 67.87 128.988 67.8867 129.075 67.9C129.168 67.92 129.272 67.93 129.385 67.93C129.572 67.93 129.735 67.89 129.875 67.81C130.015 67.7367 130.138 67.62 130.245 67.46C130.352 67.3067 130.448 67.1133 130.535 66.88L130.885 65.98L128.795 60.68ZM138.652 60.68V66H138.082V61.18H134.932V66H134.362V60.68H138.652ZM140.987 60.68V62.99H144.247V60.68H144.817V66H144.247V63.48H140.987V66H140.417V60.68H140.987ZM148.589 60.58C149.049 60.58 149.429 60.6867 149.729 60.9C150.036 61.1067 150.266 61.3933 150.419 61.76C150.579 62.1267 150.659 62.55 150.659 63.03V63.41H146.859C146.859 64.1233 147.023 64.6667 147.349 65.04C147.683 65.4133 148.153 65.6 148.759 65.6C149.093 65.6 149.383 65.5733 149.629 65.52C149.876 65.4667 150.146 65.3733 150.439 65.24V65.76C150.173 65.88 149.909 65.9667 149.649 66.02C149.389 66.0733 149.086 66.1 148.739 66.1C148.213 66.1 147.763 65.99 147.389 65.77C147.023 65.55 146.743 65.2367 146.549 64.83C146.363 64.4167 146.269 63.9367 146.269 63.39C146.269 62.8433 146.359 62.36 146.539 61.94C146.719 61.52 146.983 61.19 147.329 60.95C147.676 60.7033 148.096 60.58 148.589 60.58ZM148.589 61.06C148.096 61.06 147.699 61.2233 147.399 61.55C147.099 61.87 146.923 62.3333 146.869 62.94H150.069C150.069 62.5667 150.016 62.24 149.909 61.96C149.803 61.68 149.639 61.46 149.419 61.3C149.206 61.14 148.929 61.06 148.589 61.06ZM155.937 58.54C155.917 58.8533 155.84 59.1167 155.707 59.33C155.58 59.5367 155.397 59.69 155.157 59.79C154.917 59.89 154.62 59.94 154.267 59.94C153.913 59.94 153.617 59.89 153.377 59.79C153.143 59.69 152.967 59.5367 152.847 59.33C152.733 59.1233 152.663 58.86 152.637 58.54H153.177C153.21 58.9 153.31 59.1533 153.477 59.3C153.65 59.4467 153.917 59.52 154.277 59.52C154.617 59.52 154.88 59.4467 155.067 59.3C155.253 59.1533 155.36 58.9 155.387 58.54H155.937ZM152.637 64.39C152.637 64.4567 152.637 64.5333 152.637 64.62C152.637 64.7067 152.633 64.7967 152.627 64.89C152.627 64.9767 152.623 65.0633 152.617 65.15C152.61 65.23 152.607 65.3067 152.607 65.38L155.717 60.68H156.417V66H155.877V62.29C155.877 62.19 155.877 62.08 155.877 61.96C155.877 61.84 155.88 61.72 155.887 61.6C155.893 61.48 155.897 61.3767 155.897 61.29L152.787 66H152.097V60.68H152.637V64.39ZM161.318 64.39C161.318 64.4567 161.318 64.5333 161.318 64.62C161.318 64.7067 161.315 64.7967 161.308 64.89C161.308 64.9767 161.305 65.0633 161.298 65.15C161.292 65.23 161.288 65.3067 161.288 65.38L164.398 60.68H165.098V66H164.558V62.29C164.558 62.19 164.558 62.08 164.558 61.96C164.558 61.84 164.562 61.72 164.568 61.6C164.575 61.48 164.578 61.3767 164.578 61.29L161.468 66H160.778V60.68H161.318V64.39ZM168.58 60.68H169.19L170.45 63.99C170.523 64.1833 170.59 64.3633 170.65 64.53C170.71 64.6967 170.763 64.8533 170.81 65C170.857 65.14 170.897 65.27 170.93 65.39H170.96C171.007 65.2367 171.07 65.04 171.15 64.8C171.23 64.5533 171.323 64.2867 171.43 64L172.67 60.68H173.28L170.88 66.95C170.76 67.2567 170.627 67.52 170.48 67.74C170.333 67.96 170.16 68.1267 169.96 68.24C169.76 68.36 169.52 68.42 169.24 68.42C169.113 68.42 168.997 68.41 168.89 68.39C168.79 68.3767 168.693 68.3567 168.6 68.33V67.85C168.687 67.87 168.773 67.8867 168.86 67.9C168.953 67.92 169.057 67.93 169.17 67.93C169.357 67.93 169.52 67.89 169.66 67.81C169.8 67.7367 169.923 67.62 170.03 67.46C170.137 67.3067 170.233 67.1133 170.32 66.88L170.67 65.98L168.58 60.68ZM177.642 60.68V65.51H178.372V67.81H177.812V66H173.822V67.81H173.272V65.51H173.642C173.942 65.09 174.192 64.6267 174.392 64.12C174.592 63.6133 174.746 63.07 174.852 62.49C174.959 61.91 175.016 61.3067 175.022 60.68H177.642ZM175.542 61.15C175.516 61.71 175.449 62.2533 175.342 62.78C175.236 63.3 175.092 63.79 174.912 64.25C174.732 64.71 174.512 65.13 174.252 65.51H177.092V61.15H175.542ZM183.93 63.34C183.93 63.7533 183.876 64.13 183.77 64.47C183.67 64.8033 183.516 65.0933 183.31 65.34C183.11 65.58 182.86 65.7667 182.56 65.9C182.26 66.0333 181.916 66.1 181.53 66.1C181.163 66.1 180.833 66.0367 180.54 65.91C180.253 65.7767 180.006 65.59 179.8 65.35C179.593 65.1033 179.436 64.81 179.33 64.47C179.223 64.13 179.17 63.7533 179.17 63.34C179.17 62.76 179.263 62.2667 179.45 61.86C179.643 61.4467 179.92 61.13 180.28 60.91C180.646 60.69 181.08 60.58 181.58 60.58C182.086 60.58 182.513 60.6967 182.86 60.93C183.213 61.1567 183.48 61.4767 183.66 61.89C183.84 62.3033 183.93 62.7867 183.93 63.34ZM179.76 63.34C179.76 63.7933 179.823 64.1933 179.95 64.54C180.076 64.88 180.273 65.1433 180.54 65.33C180.806 65.5167 181.14 65.61 181.54 65.61C181.953 65.61 182.293 65.5167 182.56 65.33C182.826 65.1367 183.023 64.87 183.15 64.53C183.276 64.1833 183.34 63.7867 183.34 63.34C183.34 62.8933 183.28 62.5 183.16 62.16C183.04 61.82 182.85 61.5533 182.59 61.36C182.33 61.1667 181.99 61.07 181.57 61.07C180.963 61.07 180.51 61.27 180.21 61.67C179.91 62.07 179.76 62.6267 179.76 63.34ZM185.088 62.81C185.088 62.1167 185.145 61.5233 185.258 61.03C185.371 60.5367 185.545 60.1333 185.778 59.82C186.018 59.5 186.315 59.2633 186.668 59.11C187.028 58.91 187.445 58.7567 187.918 58.65C188.398 58.5367 188.931 58.4433 189.518 58.37L189.608 58.87C189.308 58.9033 189.021 58.9433 188.748 58.99C188.475 59.0367 188.218 59.09 187.978 59.15C187.745 59.2033 187.531 59.2633 187.338 59.33C187.151 59.3967 186.988 59.4733 186.848 59.56C186.675 59.6467 186.518 59.7633 186.378 59.91C186.245 60.0567 186.128 60.2367 186.028 60.45C185.935 60.6633 185.858 60.91 185.798 61.19C185.738 61.47 185.701 61.7833 185.688 62.13H185.728C185.848 61.93 186.001 61.75 186.188 61.59C186.375 61.4233 186.591 61.2933 186.838 61.2C187.091 61.1 187.368 61.05 187.668 61.05C188.115 61.05 188.491 61.1467 188.798 61.34C189.105 61.5267 189.335 61.8 189.488 62.16C189.648 62.5133 189.728 62.9467 189.728 63.46C189.728 64 189.638 64.47 189.458 64.87C189.285 65.2633 189.025 65.5667 188.678 65.78C188.338 65.9933 187.918 66.1 187.418 66.1C187.018 66.1 186.671 66.02 186.378 65.86C186.085 65.6933 185.841 65.4633 185.648 65.17C185.455 64.87 185.311 64.52 185.218 64.12C185.131 63.72 185.088 63.2833 185.088 62.81ZM187.458 65.61C187.838 65.61 188.148 65.53 188.388 65.37C188.635 65.2033 188.818 64.9633 188.938 64.65C189.065 64.33 189.128 63.9467 189.128 63.5C189.128 62.86 188.998 62.3733 188.738 62.04C188.485 61.7067 188.101 61.54 187.588 61.54C187.288 61.54 187.015 61.5967 186.768 61.71C186.528 61.8233 186.315 61.9767 186.128 62.17C185.941 62.3567 185.788 62.56 185.668 62.78C185.668 63.14 185.695 63.49 185.748 63.83C185.801 64.1633 185.891 64.4667 186.018 64.74C186.151 65.0067 186.335 65.22 186.568 65.38C186.808 65.5333 187.105 65.61 187.458 65.61ZM191.739 60.68V62.99H194.999V60.68H195.569V66H194.999V63.48H191.739V66H191.169V60.68H191.739ZM199.341 60.58C199.801 60.58 200.181 60.6867 200.481 60.9C200.788 61.1067 201.018 61.3933 201.171 61.76C201.331 62.1267 201.411 62.55 201.411 63.03V63.41H197.611C197.611 64.1233 197.775 64.6667 198.101 65.04C198.435 65.4133 198.905 65.6 199.511 65.6C199.845 65.6 200.135 65.5733 200.381 65.52C200.628 65.4667 200.898 65.3733 201.191 65.24V65.76C200.925 65.88 200.661 65.9667 200.401 66.02C200.141 66.0733 199.838 66.1 199.491 66.1C198.965 66.1 198.515 65.99 198.141 65.77C197.775 65.55 197.495 65.2367 197.301 64.83C197.115 64.4167 197.021 63.9367 197.021 63.39C197.021 62.8433 197.111 62.36 197.291 61.94C197.471 61.52 197.735 61.19 198.081 60.95C198.428 60.7033 198.848 60.58 199.341 60.58ZM199.341 61.06C198.848 61.06 198.451 61.2233 198.151 61.55C197.851 61.87 197.675 62.3333 197.621 62.94H200.821C200.821 62.5667 200.768 62.24 200.661 61.96C200.555 61.68 200.391 61.46 200.171 61.3C199.958 61.14 199.681 61.06 199.341 61.06ZM206.689 58.54C206.669 58.8533 206.592 59.1167 206.459 59.33C206.332 59.5367 206.149 59.69 205.909 59.79C205.669 59.89 205.372 59.94 205.019 59.94C204.665 59.94 204.369 59.89 204.129 59.79C203.895 59.69 203.719 59.5367 203.599 59.33C203.485 59.1233 203.415 58.86 203.389 58.54H203.929C203.962 58.9 204.062 59.1533 204.229 59.3C204.402 59.4467 204.669 59.52 205.029 59.52C205.369 59.52 205.632 59.4467 205.819 59.3C206.005 59.1533 206.112 58.9 206.139 58.54H206.689ZM203.389 64.39C203.389 64.4567 203.389 64.5333 203.389 64.62C203.389 64.7067 203.385 64.7967 203.379 64.89C203.379 64.9767 203.375 65.0633 203.369 65.15C203.362 65.23 203.359 65.3067 203.359 65.38L206.469 60.68H207.169V66H206.629V62.29C206.629 62.19 206.629 62.08 206.629 61.96C206.629 61.84 206.632 61.72 206.639 61.6C206.645 61.48 206.649 61.3767 206.649 61.29L203.539 66H202.849V60.68H203.389V64.39ZM208.843 65.62C208.843 65.4533 208.879 65.33 208.953 65.25C209.026 65.17 209.129 65.13 209.263 65.13C209.409 65.13 209.519 65.17 209.593 65.25C209.673 65.33 209.713 65.4533 209.713 65.62C209.713 65.78 209.673 65.9033 209.593 65.99C209.519 66.07 209.409 66.11 209.263 66.11C209.129 66.11 209.026 66.07 208.953 65.99C208.879 65.9033 208.843 65.78 208.843 65.62Z" fill="#7A769D"/>
<rect x="0.5" y="0.5" width="327" height="85" rx="19.5" stroke="#EDEDFF"/>
</svg>
