<svg width="23" height="23" viewBox="0 0 23 23" fill="none" xmlns="http://www.w3.org/2000/svg">
<path d="M10.9081 22.8605C10.0613 22.6512 9.30621 22.1681 8.75862 21.4854C8.21103 20.8027 7.90121 19.9581 7.87669 19.0812C7.84881 18.2195 7.85279 17.3579 7.87669 16.4962C7.87669 16.1515 7.76516 16.0594 7.43851 16.0674C6.64183 16.0874 5.84514 16.0674 5.04846 16.0674C2.71815 16.0433 0.85391 14.1477 0.961462 11.9234C0.979207 11.3704 1.10812 10.8268 1.34043 10.3253C1.57273 9.82382 1.90361 9.37489 2.3131 9.0056C2.72259 8.63631 3.2022 8.35431 3.72299 8.17663C4.24377 7.99895 4.79494 7.92927 5.34323 7.97178C5.62207 7.97178 5.78141 8.07598 5.81328 8.37255C6.0722 10.8173 8.1157 12.4083 10.3265 12.8853C11.2188 13.0776 12.135 12.9774 13.0233 13.1578C13.8434 13.3005 14.5999 13.6937 15.1903 14.2839C15.4301 14.5182 15.6207 14.7985 15.7507 15.1083C15.8808 15.4182 15.9475 15.7511 15.9471 16.0874C15.9471 17.0292 15.9471 17.9711 15.9471 18.8928C15.9232 20.9608 14.5569 22.7122 12.4975 22.9006C11.9699 22.9882 11.4306 22.9746 10.9081 22.8605Z" fill="url(#paint0_linear_6320_10384)"/>
<path d="M7.90028 6.30455C7.95206 5.71141 7.83256 4.96196 8.00783 4.22053C8.19437 3.22813 8.74645 2.34317 9.55364 1.74271C10.3608 1.14224 11.3636 0.870547 12.3613 0.981971C13.3591 1.09339 14.2782 1.57972 14.9349 2.34367C15.5915 3.10761 15.9373 4.09283 15.903 5.10223C15.903 5.92782 15.903 6.75742 15.903 7.58702C15.903 7.91565 15.9906 8.03589 16.3332 8.02787C17.1896 8.02787 18.0501 8.02787 18.9065 8.02787C19.963 8.02787 20.9762 8.45011 21.7232 9.2017C22.4702 9.9533 22.8899 10.9727 22.8899 12.0356C22.8899 13.0985 22.4702 14.1179 21.7232 14.8695C20.9762 15.6211 19.963 16.0433 18.9065 16.0433C18.7631 16.0433 18.6197 16.0433 18.4763 16.0433C18.2134 16.0433 18.0779 15.9712 18.0341 15.6746C17.7314 12.9814 15.4051 11.4024 13.0509 11.0457C12.1904 10.9174 11.3061 11.0457 10.4537 10.7772C9.73275 10.5801 9.0787 10.1894 8.56153 9.64699C8.3284 9.38527 8.15005 9.07898 8.03713 8.74641C7.9242 8.41383 7.87902 8.06178 7.90426 7.71126C7.91621 7.27442 7.90028 6.87365 7.90028 6.30455Z" fill="url(#paint1_linear_6320_10384)"/>
<defs>
<linearGradient id="paint0_linear_6320_10384" x1="23.0244" y1="-0.924118" x2="2.52441" y2="21.0759" gradientUnits="userSpaceOnUse">
<stop stop-color="#4839C3"/>
<stop offset="1" stop-color="#3CE682"/>
</linearGradient>
<linearGradient id="paint1_linear_6320_10384" x1="15.3937" y1="0.957496" x2="3.02417" y2="15.5759" gradientUnits="userSpaceOnUse">
<stop stop-color="#4839C3"/>
<stop offset="1" stop-color="#3CE682"/>
</linearGradient>
</defs>
</svg>
