<svg width="10" height="18" viewBox="0 0 10 18" fill="none" xmlns="http://www.w3.org/2000/svg">
<path d="M8.83159 0.919817L8.83183 0.919564C8.83952 0.911669 8.84871 0.905393 8.85886 0.901109C8.86901 0.896824 8.87992 0.894617 8.89094 0.894617C8.90196 0.894617 8.91287 0.896824 8.92302 0.901109C8.93317 0.905392 8.94236 0.911667 8.95005 0.919567L8.95011 0.919621C8.97138 0.941467 8.98329 0.970757 8.98329 1.00125C8.98329 1.03167 8.97144 1.0609 8.95026 1.08273C8.95021 1.08278 8.95016 1.08283 8.95011 1.08288L1.64084 8.57965L1.2325 8.99846L1.6408 9.41732L8.9503 16.9158L8.95072 16.9163C8.97207 16.9381 8.98402 16.9674 8.98402 16.998C8.98402 17.0286 8.97207 17.0579 8.95072 17.0798L8.95005 17.0804C8.94236 17.0883 8.93317 17.0946 8.92303 17.0989L9.15633 17.6517L8.92302 17.0989C8.91287 17.1032 8.90197 17.1054 8.89094 17.1054C8.87992 17.1054 8.86901 17.1032 8.85887 17.0989L8.62556 17.6517L8.85886 17.0989C8.84871 17.0946 8.83952 17.0883 8.83183 17.0804L8.83167 17.0803L1.05867 9.10327L1.0586 9.1032C1.0313 9.07519 1.01602 9.03762 1.01602 8.9985C1.01602 8.95939 1.03129 8.92183 1.05859 8.89382C1.05859 8.89381 1.0586 8.89381 1.0586 8.8938L8.83159 0.919817Z" fill="#A8A8A8" stroke="#A8A8A8" stroke-width="1.2"/>
</svg>
