<svg width="16" height="16" viewBox="0 0 16 16" fill="none" xmlns="http://www.w3.org/2000/svg">
<mask id="path-1-inside-1_6360_11267" fill="white">
<path d="M13.6661 10.2679L8.35012 5.08592C8.25675 4.99491 8.13151 4.94397 8.00112 4.94397C7.87073 4.94397 7.7455 4.99491 7.65212 5.08592L2.33412 10.2679C2.29058 10.3103 2.25597 10.361 2.23234 10.417C2.20871 10.473 2.19653 10.5331 2.19653 10.5939C2.19653 10.6547 2.20871 10.7149 2.23234 10.7708C2.25597 10.8268 2.29058 10.8775 2.33412 10.9199C2.42342 11.0071 2.54329 11.056 2.66812 11.056C2.79295 11.056 2.91282 11.0071 3.00212 10.9199L8.00112 6.04692L12.9991 10.9199C13.0884 11.0068 13.208 11.0555 13.3326 11.0555C13.4572 11.0555 13.5769 11.0068 13.6661 10.9199C13.7097 10.8775 13.7443 10.8268 13.7679 10.7708C13.7915 10.7149 13.8037 10.6547 13.8037 10.5939C13.8037 10.5331 13.7915 10.473 13.7679 10.417C13.7443 10.361 13.7097 10.3103 13.6661 10.2679Z"/>
</mask>
<path d="M13.6661 10.2679L8.35012 5.08592C8.25675 4.99491 8.13151 4.94397 8.00112 4.94397C7.87073 4.94397 7.7455 4.99491 7.65212 5.08592L2.33412 10.2679C2.29058 10.3103 2.25597 10.361 2.23234 10.417C2.20871 10.473 2.19653 10.5331 2.19653 10.5939C2.19653 10.6547 2.20871 10.7149 2.23234 10.7708C2.25597 10.8268 2.29058 10.8775 2.33412 10.9199C2.42342 11.0071 2.54329 11.056 2.66812 11.056C2.79295 11.056 2.91282 11.0071 3.00212 10.9199L8.00112 6.04692L12.9991 10.9199C13.0884 11.0068 13.208 11.0555 13.3326 11.0555C13.4572 11.0555 13.5769 11.0068 13.6661 10.9199C13.7097 10.8775 13.7443 10.8268 13.7679 10.7708C13.7915 10.7149 13.8037 10.6547 13.8037 10.5939C13.8037 10.5331 13.7915 10.473 13.7679 10.417C13.7443 10.361 13.7097 10.3103 13.6661 10.2679Z" fill="#4839C3"/>
<path d="M8.35012 5.08592L9.18775 4.22663L9.18772 4.2266L8.35012 5.08592ZM7.65212 5.08592L8.48959 5.94537L8.48972 5.94524L7.65212 5.08592ZM2.33412 10.2679L3.17125 11.1277L3.17159 11.1274L2.33412 10.2679ZM2.33412 10.9199L3.17262 10.0615L3.17125 10.0601L2.33412 10.9199ZM2.66812 11.056L2.66812 12.256L2.66812 11.056ZM3.00212 10.9199L2.16449 10.0606L2.16363 10.0615L3.00212 10.9199ZM8.00112 6.04692L8.83884 5.18772L8.0012 4.37103L7.16349 5.18763L8.00112 6.04692ZM12.9991 10.9199L12.1614 11.7791L12.1619 11.7796L12.9991 10.9199ZM13.3326 11.0555L13.3326 12.2555L13.3326 11.0555ZM13.6661 10.9199L12.829 10.0601L12.8289 10.0603L13.6661 10.9199ZM14.5037 9.40863L9.18775 4.22663L7.51249 5.94521L12.8285 11.1272L14.5037 9.40863ZM9.18772 4.2266C8.87025 3.91716 8.44445 3.74397 8.00112 3.74397L8.00112 6.14397C7.81857 6.14397 7.64324 6.07266 7.51252 5.94524L9.18772 4.2266ZM8.00112 3.74397C7.55778 3.74397 7.13199 3.91716 6.81452 4.2266L8.48972 5.94524C8.359 6.07266 8.18367 6.14397 8.00112 6.14397L8.00112 3.74397ZM6.81465 4.22647L1.49665 9.40847L3.17159 11.1274L8.48959 5.94537L6.81465 4.22647ZM1.497 9.40814C1.33862 9.56235 1.21273 9.74672 1.12677 9.95039L3.3379 10.8836C3.29921 10.9753 3.24254 11.0583 3.17125 11.1277L1.497 9.40814ZM1.12677 9.95039C1.04081 10.1541 0.996531 10.3729 0.996531 10.5939L3.39653 10.5939C3.39653 10.6934 3.3766 10.7919 3.3379 10.8836L1.12677 9.95039ZM0.996531 10.5939C0.996531 10.815 1.04081 11.0338 1.12677 11.2375L3.3379 10.3042C3.3766 10.3959 3.39653 10.4944 3.39653 10.5939L0.996531 10.5939ZM1.12677 11.2375C1.21273 11.4411 1.33862 11.6255 1.497 11.7797L3.17125 10.0601C3.24254 10.1296 3.29921 10.2126 3.3379 10.3042L1.12677 11.2375ZM1.49563 11.7784C1.8091 12.0846 2.22992 12.256 2.66812 12.256L2.66812 9.85597C2.85667 9.85597 3.03773 9.92973 3.17261 10.0615L1.49563 11.7784ZM2.66812 12.256C3.10633 12.256 3.52714 12.0846 3.84061 11.7784L2.16363 10.0615C2.2985 9.92973 2.47957 9.85597 2.66812 9.85597L2.66812 12.256ZM3.83975 11.7792L8.83875 6.90621L7.16349 5.18763L2.16449 10.0606L3.83975 11.7792ZM7.1634 6.90613L12.1614 11.7791L13.8368 10.0607L8.83884 5.18772L7.1634 6.90613ZM12.1619 11.7796C12.4752 12.0847 12.8953 12.2555 13.3326 12.2555L13.3326 9.85549C13.5208 9.85549 13.7015 9.92896 13.8364 10.0603L12.1619 11.7796ZM13.3326 12.2555C13.77 12.2555 14.19 12.0847 14.5034 11.7796L12.8289 10.0603C12.9637 9.92896 13.1444 9.85549 13.3326 9.85549L13.3326 12.2555ZM14.5032 11.7797C14.6616 11.6255 14.7875 11.4411 14.8735 11.2375L12.6623 10.3042C12.701 10.2126 12.7577 10.1296 12.829 10.0601L14.5032 11.7797ZM14.8735 11.2375C14.9594 11.0338 15.0037 10.815 15.0037 10.5939L12.6037 10.5939C12.6037 10.4944 12.6236 10.3959 12.6623 10.3042L14.8735 11.2375ZM15.0037 10.5939C15.0037 10.3729 14.9594 10.154 14.8735 9.95039L12.6623 10.8836C12.6236 10.7919 12.6037 10.6934 12.6037 10.5939L15.0037 10.5939ZM14.8735 9.95039C14.7875 9.74672 14.6616 9.56235 14.5032 9.40814L12.829 11.1277C12.7577 11.0583 12.701 10.9753 12.6623 10.8836L14.8735 9.95039Z" fill="#BCBDFF" mask="url(#path-1-inside-1_6360_11267)"/>
</svg>
